<svg width="21" height="19" viewBox="0 0 21 19" fill="none" xmlns="http://www.w3.org/2000/svg">
<path d="M20.1875 13.8359C20.5391 14.2266 20.5391 14.8125 20.1875 15.1641L17.0625 18.2891C16.9062 18.4844 16.6719 18.5625 16.4375 18.5625C16.1641 18.5625 15.9297 18.4844 15.7734 18.2891C15.3828 17.9375 15.3828 17.3516 15.7734 17L17.2969 15.4375H13C12.7266 15.4375 12.4922 15.3594 12.3359 15.1641L7.60938 10.4375H1.4375C0.890625 10.4375 0.5 10.0469 0.5 9.5C0.5 8.99219 0.890625 8.5625 1.4375 8.5625H7.60938L12.2969 3.875C12.4922 3.67969 12.7266 3.5625 13 3.5625H17.2969L15.7734 2.03906C15.3828 1.6875 15.3828 1.10156 15.7734 0.75C16.125 0.359375 16.7109 0.359375 17.1016 0.75L20.2266 3.875C20.5781 4.22656 20.5781 4.8125 20.2266 5.16406L17.1016 8.28906C16.9062 8.48438 16.6719 8.5625 16.4375 8.5625C16.1641 8.5625 15.9297 8.48438 15.7734 8.28906C15.3828 7.9375 15.3828 7.35156 15.7734 7L17.2969 5.4375H13.3906L9.32812 9.5L13.3906 13.5625H17.2969L15.7734 12.0391C15.3828 11.6875 15.3828 11.1016 15.7734 10.75C16.125 10.3594 16.7109 10.3594 17.1016 10.75L20.1875 13.8359Z" fill="#FFF9F9"/>
</svg>
