<svg width="31" height="24" viewBox="0 0 31 24" fill="none" xmlns="http://www.w3.org/2000/svg">
<path d="M0.404541 1.21289C0.773682 0.474609 1.51196 0 2.35571 0H25.137C25.928 0 26.6663 0.474609 27.0354 1.21289C27.3518 1.95117 27.2463 2.84766 26.719 3.48047L17.1213 15.2402V21.9375C17.1213 22.623 16.7522 23.2031 16.1721 23.4668C15.592 23.7305 14.9065 23.6777 14.3792 23.3086L11.0042 20.7773C10.5823 20.4609 10.3713 19.9863 10.3713 19.4062V15.2402L0.720947 3.48047C0.193604 2.84766 0.0881348 1.95117 0.404541 1.21289Z" fill="white"/>
<circle cx="21.8868" cy="13.5929" r="8.14075" fill="#293842"/>
<path d="M27.3992 16.0528C27.5991 16.2749 27.5991 16.6081 27.3992 16.8081L25.622 18.5852C25.5332 18.6963 25.3999 18.7407 25.2666 18.7407C25.1111 18.7407 24.9778 18.6963 24.889 18.5852C24.6668 18.3853 24.6668 18.0521 24.889 17.8522L25.7553 16.9636H23.3117C23.1562 16.9636 23.023 16.9191 22.9341 16.8081L20.2462 14.1201H16.7363C16.4253 14.1201 16.2031 13.898 16.2031 13.587C16.2031 13.2982 16.4253 13.0538 16.7363 13.0538H20.2462L22.9119 10.3881C23.023 10.277 23.1562 10.2104 23.3117 10.2104H25.7553L24.889 9.34402C24.6668 9.14409 24.6668 8.81087 24.889 8.61094C25.0889 8.3888 25.4221 8.3888 25.6443 8.61094L27.4214 10.3881C27.6213 10.588 27.6213 10.9212 27.4214 11.1212L25.6443 12.8983C25.5332 13.0094 25.3999 13.0538 25.2666 13.0538C25.1111 13.0538 24.9778 13.0094 24.889 12.8983C24.6668 12.6984 24.6668 12.3652 24.889 12.1653L25.7553 11.2767H23.5339L21.2236 13.587L23.5339 15.8973H25.7553L24.889 15.0309C24.6668 14.831 24.6668 14.4978 24.889 14.2978C25.0889 14.0757 25.4221 14.0757 25.6443 14.2978L27.3992 16.0528Z" fill="#D7D7D7"/>
</svg>
