<svg width="126" height="135" viewBox="0 0 126 135" fill="none" xmlns="http://www.w3.org/2000/svg">
<path d="M63.0012 132.004C53.4598 132.004 45.3958 124.875 44.2426 115.422L44.1031 114.291H7.24671C6.8117 114.291 6.41363 114.07 6.18792 113.701C5.95811 113.333 5.93759 112.878 6.13457 112.489C12.6802 99.4181 16.1397 84.7866 16.1397 70.1714V62.4398C16.1397 41.4042 30.3389 22.8433 50.6692 17.2996L51.6172 17.0415V14.366C51.6172 8.09707 56.7224 3 63.0012 3C69.28 3 74.3852 8.09707 74.3852 14.366V17.0415L75.3332 17.2996C95.6635 22.8433 109.863 41.4042 109.863 62.4398V70.1714C109.863 84.7825 113.322 99.4181 119.868 112.489C120.061 112.878 120.04 113.329 119.814 113.701C119.585 114.07 119.191 114.291 118.756 114.291H81.8993L81.7598 115.422C80.6066 124.875 72.5426 132.004 63.0012 132.004ZM46.8075 115.787C48.1125 123.74 54.9208 129.517 63.0012 129.517C71.0816 129.517 77.8899 123.744 79.1949 115.787L79.4411 114.295H46.5654L46.8116 115.787H46.8075ZM12.1549 104.999C11.5065 106.691 10.8047 108.371 10.0783 109.993L9.26579 111.804H116.737L115.924 109.993C110.331 97.5457 107.372 83.7787 107.372 70.1756V62.4439C107.372 41.5722 92.5241 23.335 72.0706 19.0779L71.8901 19.041C71.6644 18.9959 71.4345 18.9509 71.2088 18.9099L71.1678 18.9017C70.9831 18.8689 70.819 18.8361 70.6548 18.8075C70.4866 18.7788 70.3142 18.7501 70.1418 18.7214C69.8833 18.6804 69.6248 18.6395 69.3662 18.6026L69.0584 18.5616C68.7137 18.5165 68.3649 18.4715 68.0202 18.4305L67.934 18.4223C66.3048 18.242 64.6427 18.1519 62.9971 18.1519C61.3515 18.1519 59.6894 18.242 58.0602 18.4223L57.9781 18.4305C57.6293 18.4674 57.2846 18.5125 56.9399 18.5616L56.6321 18.6067C56.3735 18.6436 56.115 18.6845 55.8605 18.7255L55.8195 18.7337C55.6636 18.7583 55.5035 18.7829 55.3476 18.8116C55.1998 18.8361 55.0562 18.8648 54.9085 18.8894L54.7895 18.9099C54.5637 18.9509 54.338 18.9959 54.1123 19.041L53.9359 19.0779C33.4783 23.335 18.6307 41.5763 18.6307 62.4439V70.1756C18.6307 80.2673 17.0425 90.3016 13.9154 100.004L13.3737 101.684H27.5196C28.209 101.684 28.7671 102.241 28.7671 102.93C28.7671 103.618 28.209 104.175 27.5196 104.175H12.4709L12.1549 104.999ZM63.0012 5.49527C58.1012 5.49527 54.1123 9.47786 54.1123 14.3701V16.472L55.6759 16.2261L56.0781 16.1647C56.3243 16.1278 56.5705 16.095 56.8167 16.0623C56.9522 16.0459 57.0835 16.0254 57.2189 16.009C57.4528 15.9803 57.6867 15.9557 57.9207 15.927C57.9207 15.927 58.2161 15.8943 58.2982 15.8861C58.6388 15.8533 58.9795 15.8205 59.3201 15.7959C59.3939 15.7918 59.6771 15.7713 59.6771 15.7713C59.9233 15.755 60.1655 15.7386 60.4117 15.7263C60.5471 15.7181 60.6866 15.714 60.8221 15.7058C61.0642 15.6935 61.3104 15.6853 61.5567 15.6771L61.9137 15.6648C62.2748 15.6566 62.6401 15.6525 63.0012 15.6525C63.3623 15.6525 63.7276 15.6566 64.0887 15.6648C64.1872 15.6648 64.4457 15.6771 64.4457 15.6771C64.692 15.6853 64.9382 15.6935 65.1803 15.7058C65.1803 15.7058 65.4676 15.7181 65.5907 15.7263C65.8369 15.7386 66.0791 15.755 66.3253 15.7713L66.6823 15.7959C67.0188 15.8205 67.3595 15.8533 67.7001 15.8861C67.7822 15.8943 68.0776 15.927 68.0776 15.927C68.3115 15.9516 68.5496 15.9803 68.7835 16.009C68.9148 16.0254 69.0502 16.0418 69.1816 16.0623C69.4278 16.095 69.6781 16.1278 69.9243 16.1647L70.4086 16.2343L71.8942 16.4679V14.366C71.8942 9.47376 67.9053 5.49117 63.0053 5.49117L63.0012 5.49527Z" fill="#48637B"/>
<path d="M38.1248 104.167C38.0509 104.167 37.9688 104.159 37.8867 104.142C37.8047 104.126 37.7308 104.105 37.6528 104.073C37.5707 104.04 37.501 104.003 37.4312 103.958C37.3614 103.913 37.2999 103.864 37.2424 103.806C37.185 103.749 37.1357 103.687 37.0947 103.626C37.0413 103.548 37.0044 103.478 36.9757 103.405C36.9388 103.319 36.9182 103.245 36.9059 103.183C36.8854 103.085 36.8772 103.003 36.8772 102.925C36.8772 102.847 36.8854 102.77 36.9018 102.688C36.9182 102.606 36.9429 102.528 36.9716 102.454C37.0044 102.376 37.0413 102.302 37.0906 102.233C37.1357 102.163 37.185 102.102 37.2424 102.044C37.2999 101.987 37.3614 101.938 37.4189 101.897C37.4969 101.844 37.5666 101.807 37.6405 101.778C37.7267 101.741 37.7965 101.721 37.8621 101.708C37.9565 101.688 38.0386 101.68 38.1207 101.68C38.2027 101.68 38.2807 101.688 38.3587 101.704C38.4408 101.721 38.5146 101.741 38.5926 101.774C38.6706 101.807 38.7444 101.844 38.8101 101.889C38.8799 101.934 38.9414 101.983 38.9989 102.04C39.0563 102.098 39.1056 102.159 39.1466 102.221C39.2 102.298 39.2369 102.368 39.2656 102.442C39.3026 102.528 39.3231 102.602 39.3354 102.663C39.3559 102.765 39.3641 102.847 39.3641 102.921C39.3641 102.995 39.3559 103.077 39.3395 103.159C39.3231 103.245 39.3026 103.319 39.2697 103.396C39.2369 103.474 39.2 103.548 39.1548 103.614C39.1097 103.687 39.0604 103.745 39.003 103.802C38.9455 103.859 38.884 103.909 38.8224 103.95C38.7444 103.999 38.6747 104.04 38.6008 104.068C38.5146 104.105 38.4408 104.126 38.3751 104.138C38.2766 104.159 38.1945 104.167 38.1165 104.167H38.1248Z" fill="#48637B"/>
</svg>
