<svg width="22" height="19" viewBox="0 0 22 19" fill="none" xmlns="http://www.w3.org/2000/svg">
<path d="M14.2422 7.97656C13.8125 8.36719 13.1875 8.36719 12.7188 8.01562L8.5 4.85156L2.99219 9.22656C2.48438 9.65625 1.70313 9.57812 1.27344 9.03125C0.804689 8.52344 0.921877 7.74219 1.46875 7.27344L7.71875 2.3125C8.14844 1.92187 8.77344 1.92187 9.24219 2.27344L13.4609 5.4375L18.9688 1.0625C19.4766 0.593747 20.2578 0.710934 20.6875 1.25781C21.1563 1.76562 21.0391 2.54687 20.4922 2.97656L14.2422 7.97656ZM7.25 9.5C7.25 8.83594 7.79688 8.25 8.5 8.25C9.16406 8.25 9.75 8.83594 9.75 9.5L9.75 17C9.75 17.7031 9.16407 18.25 8.5 18.25C7.79688 18.25 7.25 17.7031 7.25 17L7.25 9.5ZM2.25 13.25C2.25 12.5859 2.79688 12 3.5 12C4.16406 12 4.75 12.5859 4.75 13.25L4.75 17C4.75 17.7031 4.16407 18.25 3.5 18.25C2.79688 18.25 2.25 17.7031 2.25 17L2.25 13.25ZM14.75 12L14.75 17C14.75 17.7031 14.1641 18.25 13.5 18.25C12.7969 18.25 12.25 17.7031 12.25 17L12.25 12C12.25 11.3359 12.7969 10.75 13.5 10.75C14.1641 10.75 14.75 11.3359 14.75 12ZM17.25 9.5C17.25 8.83593 17.7969 8.25 18.5 8.25C19.1641 8.25 19.75 8.83593 19.75 9.5L19.75 17C19.75 17.7031 19.1641 18.25 18.5 18.25C17.7969 18.25 17.25 17.7031 17.25 17L17.25 9.5Z" fill="#696B6C"/>
</svg>
