<svg width="21" height="23" viewBox="0 0 21 23" fill="none" xmlns="http://www.w3.org/2000/svg">
<path d="M6.4375 8.67464H17.0234L12.0625 4.41683C11.6719 4.06527 11.6328 3.47933 11.9453 3.0887C12.2969 2.69808 12.8828 2.65902 13.2734 2.97152L20.1484 8.86995C20.3438 9.10433 20.5 9.3387 20.5 9.61214C20.5 9.88558 20.3438 10.159 20.1484 10.3543L13.2734 16.2528C13.1172 16.409 12.8828 16.4871 12.6875 16.4871C12.4141 16.4871 12.1406 16.37 11.9453 16.1356C11.6328 15.745 11.6719 15.159 12.0625 14.8075L17.0234 10.5496H6.4375C4.17188 10.5496 2.375 12.3465 2.375 14.5731V19.2215C2.375 19.8465 1.94531 20.2371 1.4375 20.2371C0.890625 20.2371 0.5 19.8465 0.5 19.2996V14.6512C0.5 11.37 3.15625 8.67464 6.4375 8.67464Z" fill="white"/>
</svg>
