<svg width="21" height="19" viewBox="0 0 21 19" fill="none" xmlns="http://www.w3.org/2000/svg">
<path d="M20.25 6.9375C20.25 10.3828 15.7148 13.125 10.125 13.125C9.59766 13.125 9.07031 13.125 8.57812 13.0547C8.82422 13.6172 9 14.2148 9 14.8477C9 16.9922 7.20703 18.75 5.0625 18.75H1.96875C1.47656 18.75 1.125 18.3984 1.125 17.9062C1.125 17.4492 1.47656 17.0625 1.96875 17.0625H5.0625C6.29297 17.0625 7.3125 16.0781 7.3125 14.8477C7.3125 13.9688 6.78516 13.1602 5.97656 12.8086L4.42969 12.0703C1.75781 10.9805 0 9.08203 0 6.9375C0 3.52734 4.5 0.75 10.125 0.75C15.7148 0.75 20.25 3.52734 20.25 6.9375ZM10.125 11.4375C14.7656 11.4375 18.5625 9.43359 18.5625 6.9375C18.5625 4.47656 14.7656 2.4375 10.125 2.4375C5.44922 2.4375 1.6875 4.47656 1.6875 6.9375C1.6875 9.43359 5.44922 11.4375 10.125 11.4375Z" fill="white"/>
</svg>
