<svg width="21" height="23" viewBox="0 0 21 23" fill="none" xmlns="http://www.w3.org/2000/svg">
<path d="M2.0625 2.625C2.57031 2.625 3 3.05469 3 3.5625V7.58594C4.52344 4.96875 7.375 3.28906 10.5 3.28906C15.3047 3.28906 19.25 7.19531 19.25 12C19.25 16.8438 15.3047 20.75 10.5 20.75C8.42969 20.75 6.4375 20.0469 4.875 18.7578C4.48438 18.4062 4.44531 17.8203 4.75781 17.4297C5.10938 17.0391 5.69531 16.9609 6.08594 17.3125C7.29688 18.3281 8.85938 18.875 10.5 18.875C14.2891 18.875 17.375 15.8281 17.375 12C17.375 8.21094 14.2891 5.125 10.5 5.125C7.88281 5.125 5.53906 6.64844 4.36719 8.875H8.3125C8.82031 8.875 9.25 9.30469 9.25 9.8125C9.25 10.3594 8.82031 10.75 8.3125 10.75H2.0625C1.51562 10.75 1.125 10.3594 1.125 9.8125V3.5625C1.125 3.05469 1.51562 2.625 2.0625 2.625Z" fill="white"/>
</svg>
