<svg width="18" height="19" viewBox="0 0 18 19" fill="none" xmlns="http://www.w3.org/2000/svg">
<path d="M12.0937 5.3125C12.0937 4.85547 12.4453 4.46875 12.9375 4.46875C13.3945 4.46875 13.7812 4.85547 13.7812 5.3125C13.7812 5.80469 13.3945 6.15625 12.9375 6.15625C12.4453 6.15625 12.0937 5.80469 12.0937 5.3125ZM11.8125 12.625C11.4609 12.625 11.1445 12.625 10.8281 12.5547L9.84375 13.5039C9.70312 13.6797 9.49219 13.75 9.28125 13.75L7.875 13.75L7.875 15.1563C7.875 15.6484 7.48828 16 7.03125 16L5.625 16L5.625 17.4063C5.625 17.8984 5.23828 18.25 4.78125 18.25L0.843747 18.25C0.351559 18.25 -2.95462e-06 17.8984 -2.86856e-06 17.4062L-2.27846e-06 14.0312C-2.24157e-06 13.8203 0.0703103 13.6094 0.246092 13.4336L5.76562 7.91406C5.66016 7.42188 5.625 6.96484 5.625 6.4375C5.625 3.02734 8.36719 0.250001 11.8125 0.250002C15.2227 0.250003 18 3.02735 18 6.4375C18 9.88282 15.2227 12.625 11.8125 12.625ZM11.8125 11.5C14.5898 11.5 16.875 9.25 16.875 6.4375C16.875 3.66016 14.5898 1.375 11.8125 1.375C9 1.375 6.75 3.66016 6.75 6.4375C6.75 6.85938 6.78516 7.24609 6.85547 7.63281L7.03125 8.26563L1.125 14.1719L1.125 17.125L4.5 17.125L4.5 14.875L6.75 14.875L6.75 12.625L9.14062 12.625L10.4414 11.3594L11.0039 11.4648C11.25 11.5 11.5312 11.5 11.8125 11.5Z" fill="white"/>
</svg>
