<svg width="16" height="17" viewBox="0 0 16 17" fill="none" xmlns="http://www.w3.org/2000/svg">
<path d="M12.9063 16.125L12.3438 16.125C11.8867 16.125 11.5 15.7383 11.5 15.2813C11.5 14.7891 11.8867 14.4375 12.3438 14.4375L12.9063 14.4375C13.7148 14.4375 14.3125 13.8047 14.3125 13.0313L14.3125 12.4688C14.3125 11.9766 14.6992 11.625 15.1563 11.625C15.6484 11.625 16 11.9766 16 12.4688L16 13.0312C16 14.7188 14.6289 16.125 12.9063 16.125ZM14.3125 9.65625L14.3125 6.84375C14.3125 6.35156 14.6992 6 15.1562 6C15.6484 6 16 6.35156 16 6.84375L16 9.65625C16 10.1133 15.6484 10.5 15.1563 10.5C14.6992 10.5 14.3125 10.1133 14.3125 9.65625ZM0.25 9.65625L0.25 6.84375C0.25 6.35156 0.636719 6 1.09375 6C1.58594 6 1.9375 6.35156 1.9375 6.84375L1.9375 9.65625C1.9375 10.1133 1.58594 10.5 1.09375 10.5C0.636719 10.5 0.25 10.1133 0.25 9.65625ZM1.9375 12.4688L1.9375 13.0313C1.9375 13.8047 2.57031 14.4375 3.34375 14.4375L3.90625 14.4375C4.39844 14.4375 4.75 14.7891 4.75 15.2813C4.75 15.7383 4.39844 16.125 3.90625 16.125L3.34375 16.125C1.65625 16.125 0.250001 14.7188 0.25 13.0313L0.25 12.4688C0.25 11.9766 0.636719 11.625 1.09375 11.625C1.58594 11.625 1.9375 11.9766 1.9375 12.4688ZM0.25 3.46875C0.249999 1.7461 1.65625 0.375001 3.34375 0.375001L3.90625 0.375001C4.39844 0.375001 4.75 0.726563 4.75 1.21875C4.75 1.67578 4.39844 2.0625 3.90625 2.0625L3.34375 2.0625C2.57031 2.0625 1.9375 2.66016 1.9375 3.46875L1.9375 4.03125C1.9375 4.48828 1.58594 4.875 1.09375 4.875C0.636718 4.875 0.25 4.48828 0.25 4.03125L0.25 3.46875ZM14.3125 3.46875C14.3125 2.66016 13.7148 2.0625 12.9062 2.0625L12.3437 2.0625C11.8867 2.0625 11.5 1.67578 11.5 1.21875C11.5 0.726563 11.8867 0.375 12.3437 0.375L12.9062 0.375C14.6289 0.375 16 1.74609 16 3.46875L16 4.03125C16 4.48828 15.6484 4.875 15.1562 4.875C14.6992 4.875 14.3125 4.48828 14.3125 4.03125L14.3125 3.46875ZM9.53125 0.375001C10.0234 0.375001 10.375 0.726563 10.375 1.21875C10.375 1.67578 10.0234 2.0625 9.53125 2.0625L6.71875 2.0625C6.26172 2.0625 5.875 1.67578 5.875 1.21875C5.875 0.726563 6.26172 0.375001 6.71875 0.375001L9.53125 0.375001ZM9.53125 16.125L6.71875 16.125C6.26172 16.125 5.875 15.7383 5.875 15.2813C5.875 14.7891 6.26172 14.4375 6.71875 14.4375L9.53125 14.4375C10.0234 14.4375 10.375 14.7891 10.375 15.2813C10.375 15.7383 10.0234 16.125 9.53125 16.125Z" fill="white"/>
</svg>
