<svg width="18" height="19" viewBox="0 0 18 19" fill="none" xmlns="http://www.w3.org/2000/svg">
<path d="M0.949219 8.90625C0.457031 8.90625 0.0703125 8.48438 0.140625 7.99219C0.386719 6.83203 0.84375 5.74219 1.47656 4.79297C1.75781 4.37109 2.35547 4.33594 2.70703 4.6875C3.02344 5.00391 3.05859 5.49609 2.8125 5.84766C2.35547 6.55078 2.03906 7.32422 1.82813 8.16797C1.75781 8.58984 1.40625 8.90625 0.949219 8.90625ZM5.0625 3.59766C4.71094 3.84375 4.21875 3.80859 3.90234 3.49219C3.55078 3.14062 3.58594 2.54297 4.00781 2.26172C4.95703 1.62891 6.04688 1.17188 7.20703 0.925781C7.69922 0.855469 8.15625 1.24219 8.15625 1.73438C8.15625 2.19141 7.80469 2.54297 7.38281 2.61328C6.53906 2.82422 5.76563 3.14063 5.0625 3.59766ZM9.84375 17.8008C9.84375 17.3438 10.1602 16.9922 10.582 16.8867C11.4258 16.7109 12.1992 16.3945 12.9023 15.9375C13.2539 15.6914 13.7461 15.7266 14.0625 16.043C14.4141 16.3945 14.3789 16.9922 13.957 17.2734C13.0078 17.9062 11.918 18.3633 10.7578 18.6094C10.2656 18.6797 9.84375 18.293 9.84375 17.8008ZM16.1367 11.3672C16.207 10.9453 16.5586 10.5938 17.0156 10.5938C17.5078 10.5938 17.8945 11.0508 17.8242 11.543C17.5781 12.7031 17.1211 13.793 16.4883 14.7422C16.207 15.1641 15.6094 15.1992 15.2578 14.8477C14.9414 14.5313 14.9062 14.0391 15.1523 13.6875C15.6094 12.9844 15.9258 12.2109 16.1367 11.3672ZM5.0625 15.9375C5.76562 16.3945 6.53906 16.7109 7.38281 16.8867C7.80469 16.9922 8.15625 17.3438 8.15625 17.8008C8.15625 18.293 7.69922 18.6797 7.20703 18.6094C6.04687 18.3633 4.95703 17.9062 4.00781 17.2734C3.58594 16.9922 3.55078 16.3945 3.90234 16.043C4.21875 15.7266 4.71094 15.6914 5.0625 15.9375ZM0.140625 11.543C0.0703125 11.0508 0.457031 10.5938 0.949219 10.5938C1.40625 10.5938 1.75781 10.9453 1.82812 11.3672C2.03906 12.2109 2.35547 12.9844 2.8125 13.6875C3.05859 14.0391 3.02344 14.5312 2.70703 14.8477C2.35547 15.1992 1.75781 15.1641 1.47656 14.7422C0.84375 13.793 0.386719 12.7031 0.140625 11.543ZM12.9023 3.59766C12.1992 3.14063 11.4258 2.82422 10.582 2.61328C10.1602 2.54297 9.84375 2.19141 9.84375 1.73438C9.84375 1.24219 10.2656 0.855469 10.7578 0.925781C11.918 1.17188 13.0078 1.62891 13.957 2.26172C14.3789 2.54297 14.4141 3.14063 14.0625 3.49219C13.7461 3.80859 13.2539 3.84375 12.9023 3.59766ZM15.1523 5.84766C14.9062 5.49609 14.9414 5.00391 15.2578 4.6875C15.6094 4.33594 16.207 4.37109 16.4883 4.79297C17.1211 5.74219 17.5781 6.83203 17.8242 7.99219C17.8945 8.48438 17.5078 8.90625 17.0156 8.90625C16.5586 8.90625 16.207 8.58984 16.1367 8.16797C15.9258 7.32422 15.6094 6.55078 15.1523 5.84766Z" fill="white"/>
</svg>
