<svg width="16" height="17" viewBox="0 0 16 17" fill="none" xmlns="http://www.w3.org/2000/svg">
<path d="M12.832 12.2305C13.043 12.1602 13.2539 12.125 13.5 12.125C14.7305 12.125 15.75 13.1445 15.75 14.375C15.75 15.6406 14.7305 16.625 13.5 16.625C12.4453 16.625 11.5664 15.9219 11.3203 14.9375L4.39453 14.9375C4.14844 15.9219 3.26953 16.625 2.25 16.625C0.984375 16.625 0 15.6406 0 14.375C0 13.3555 0.703125 12.4766 1.6875 12.1953L1.6875 5.30469C0.703125 5.05859 0 4.17969 0 3.125C0 1.89453 0.984375 0.875 2.25 0.875C3.26953 0.875 4.14844 1.61328 4.39453 2.5625L11.3203 2.5625C11.5664 1.61328 12.4453 0.875 13.5 0.875C14.7305 0.875 15.75 1.89453 15.75 3.125C15.75 4.39063 14.7305 5.375 13.5 5.375C13.2539 5.375 13.043 5.375 12.832 5.30469L11.707 7.20313C12.0938 7.58984 12.375 8.15234 12.375 8.75C12.375 9.38281 12.0938 9.94531 11.707 10.332L12.832 12.2305ZM2.25 2C1.61719 2 1.125 2.52734 1.125 3.125C1.125 3.75781 1.61719 4.25 2.25 4.25C2.84766 4.25 3.375 3.75781 3.375 3.125C3.375 2.52734 2.84766 2 2.25 2ZM2.8125 12.1953C3.58594 12.4062 4.21875 13.0391 4.39453 13.8125L11.3203 13.8125C11.3906 13.4258 11.6016 13.0742 11.8828 12.8281L10.7578 10.9297C10.5469 11 10.3359 11 10.125 11C8.85938 11 7.875 10.0156 7.875 8.75C7.875 7.51953 8.85938 6.5 10.125 6.5C10.3359 6.5 10.5469 6.53516 10.7578 6.60547L11.8828 4.70703C11.6016 4.42578 11.3906 4.10938 11.3203 3.6875L4.39453 3.6875C4.21875 4.49609 3.58594 5.12891 2.8125 5.30469L2.8125 12.1953ZM2.25 13.25C1.61719 13.25 1.125 13.7773 1.125 14.375C1.125 15.0078 1.61719 15.5 2.25 15.5C2.84766 15.5 3.375 15.0078 3.375 14.375C3.375 13.7773 2.84766 13.25 2.25 13.25ZM12.375 3.125C12.375 3.75781 12.8672 4.25 13.5 4.25C14.0977 4.25 14.625 3.75781 14.625 3.125C14.625 2.52734 14.0977 2 13.5 2C12.8672 2 12.375 2.52734 12.375 3.125ZM14.625 14.375C14.625 13.7773 14.0977 13.25 13.5 13.25C12.8672 13.25 12.375 13.7773 12.375 14.375C12.375 15.0078 12.8672 15.5 13.5 15.5C14.0977 15.5 14.625 15.0078 14.625 14.375ZM10.125 9.875C10.7227 9.875 11.25 9.38281 11.25 8.75C11.25 8.15234 10.7227 7.625 10.125 7.625C9.49219 7.625 9 8.15234 9 8.75C9 9.38281 9.49219 9.875 10.125 9.875Z" fill="white"/>
</svg>
