<svg width="21" height="23" viewBox="0 0 21 23" fill="none" xmlns="http://www.w3.org/2000/svg">
<path d="M14.5625 8.67432H3.97656L8.9375 4.4165C9.32812 4.06494 9.36719 3.479 9.05469 3.08838C8.70312 2.69775 8.11719 2.65869 7.72656 2.97119L0.851562 8.86963C0.65625 9.104 0.5 9.33838 0.5 9.61182C0.5 9.88525 0.65625 10.1587 0.851562 10.354L7.72656 16.2524C7.88281 16.4087 8.11719 16.4868 8.3125 16.4868C8.58594 16.4868 8.85938 16.3696 9.05469 16.1353C9.36719 15.7446 9.32812 15.1587 8.9375 14.8071L3.97656 10.5493H14.5625C16.8281 10.5493 18.625 12.3462 18.625 14.5728V19.2212C18.625 19.8462 19.0547 20.2368 19.5625 20.2368C20.1094 20.2368 20.5 19.8462 20.5 19.2993V14.6509C20.5 11.3696 17.8438 8.67432 14.5625 8.67432Z" fill="white"/>
</svg>
