<svg width="18" height="16" viewBox="0 0 18 16" fill="none" xmlns="http://www.w3.org/2000/svg">
<path d="M15.9062 0.1875H2.09375C1.19727 0.1875 0.5 0.917969 0.5 1.78125V3.90625C0.5 4.50391 0.964844 4.96875 1.5293 4.96875L1.5625 12.9375C1.5625 14.1328 2.49219 15.0625 3.6875 15.0625H14.3125C15.4746 15.0625 16.4375 14.1328 16.4375 12.9375V4.96875C17.002 4.96875 17.5 4.50391 17.5 3.93945V1.78125C17.5 0.917969 16.7695 0.1875 15.9062 0.1875ZM14.3125 13.4688H3.6875C3.38867 13.4688 3.15625 13.2363 3.15625 12.9375V4.96875H14.8438V12.9375C14.8438 13.2363 14.5781 13.4688 14.3125 13.4688ZM15.9062 3.375H2.09375V1.78125H15.9062V3.375ZM6.57617 8.15625H11.3574C11.8223 8.15625 12.1875 7.82422 12.1875 7.35938C12.1875 6.92773 11.8223 6.5625 11.3906 6.5625H6.57617C6.14453 6.5625 5.8125 6.92773 5.8125 7.35938C5.8125 7.82422 6.14453 8.15625 6.57617 8.15625Z" fill="#FFF9F9"/>
</svg>
