<svg width="93" height="128" viewBox="0 0 93 128" fill="none" xmlns="http://www.w3.org/2000/svg">
<g clip-path="url(#clip0_354_18492)">
<path d="M46.498 127.352C43.2512 127.352 40.0165 127.013 36.8821 126.347C26.6001 124.173 17.2451 118.457 10.5389 110.248C3.7444 101.923 0 91.3984 0 80.612V80.5353C0.0120399 72.4476 2.11099 64.4768 6.06408 57.4903C10.0051 50.5239 15.7201 44.6547 22.5908 40.5161L23.7306 39.8303L16.5709 29.1488L16.5548 29.1287C15.0779 27.0997 14.0545 24.8286 13.5168 22.3841C13.2318 21.0974 13.0873 19.7743 13.0873 18.4512C13.0914 8.47159 21.1701 0.351562 31.103 0.351562C41.0359 0.351562 49.1147 8.47159 49.1147 18.4552C49.1147 22.3277 47.9147 26.0226 45.6512 29.1327L45.6231 29.173L42.3964 33.9894L44.8646 33.9006C45.4224 33.8805 45.9723 33.8724 46.502 33.8724C56.5874 33.8724 66.1792 37.0631 74.2419 43.0977C79.9367 47.3614 84.6564 52.9563 87.8911 59.2893C91.2823 65.929 93.004 73.1011 93.004 80.616C93.004 83.7543 92.691 86.9007 92.0729 89.9623L92.0489 90.0632V90.0793C89.9258 100.442 84.2671 109.885 76.1081 116.662C67.8046 123.56 57.2897 127.36 46.502 127.36L46.498 127.352ZM28.6348 101.592C29 101.592 29.3492 101.749 29.59 102.027L38.0982 111.862C38.2988 112.092 38.4072 112.39 38.4072 112.693V124.08L39.4667 124.25C41.7824 124.625 44.1502 124.814 46.502 124.814C65.6695 124.814 82.4972 112.503 88.3687 94.1776L89.1673 91.6888L67.7123 99.7644C67.5678 99.8169 67.4193 99.8451 67.2708 99.8451C66.7892 99.8451 66.3558 99.5749 66.1431 99.1432L59.1198 85.025C58.9231 84.6337 58.9432 84.1779 59.168 83.8027L72.2312 62.0727V44.7556L71.6934 44.3764C64.2929 39.1647 55.5841 36.4097 46.506 36.4097C44.7 36.4097 42.874 36.5226 41.076 36.7445L40.5062 36.8171L32.1585 49.2775C31.9217 49.6284 31.5324 49.8382 31.111 49.8382C30.6896 49.8382 30.3004 49.6284 30.0636 49.2775L25.1513 41.9521L24.1319 42.5572C11.3255 50.1649 3.26682 63.6176 2.58055 78.5426L2.53239 79.5995L18.3889 83.2178C18.7621 83.3025 19.0712 83.5486 19.2397 83.8955L20.3394 86.1383C20.4879 86.4408 20.5119 86.7877 20.4036 87.1064C20.2952 87.4291 20.0705 87.6873 19.7655 87.8365C19.5889 87.9253 19.4043 87.9656 19.2116 87.9656C18.726 87.9656 18.2926 87.6953 18.0799 87.2556L17.2451 85.5534L2.52837 82.1932L2.6568 83.8995C4.02934 102.229 16.7394 117.973 34.2815 123.072L35.8909 123.54V113.161L27.6917 103.685C27.2342 103.157 27.2904 102.354 27.8161 101.894C28.0449 101.693 28.3379 101.584 28.6429 101.584L28.6348 101.592ZM74.7476 62.4236C74.7476 62.6535 74.6833 62.8834 74.567 63.0811L61.6803 84.5167L67.8848 96.9892L89.7332 88.7683L89.8536 88.0503C90.267 85.5937 90.4756 83.0928 90.4756 80.616C90.4756 68.3734 85.6436 57.0183 76.8706 48.6401L74.7435 46.6111V62.4276L74.7476 62.4236ZM31.103 2.88882C22.5627 2.88882 15.6117 9.87132 15.6117 18.4552C15.6117 19.5928 15.7361 20.7303 15.9809 21.8396C16.4465 23.9654 17.3414 25.9339 18.6337 27.6926C18.6538 27.7209 18.6698 27.7451 18.6859 27.7693L31.099 46.2965L43.5121 27.7733C43.5322 27.7451 43.5482 27.7168 43.5683 27.6886C45.5428 25.0061 46.5903 21.8114 46.5903 18.4552C46.5903 9.87132 39.6433 2.88882 31.103 2.88882Z" fill="#48637B"/>
<path d="M32.1506 71.6085C27.5835 71.6085 23.8672 67.8732 23.8672 63.2828C23.8672 58.6923 27.5835 54.957 32.1506 54.957C36.7177 54.957 40.4341 58.6923 40.4341 63.2828C40.4341 67.8732 36.7177 71.6085 32.1506 71.6085ZM32.1506 57.4903C28.9721 57.4903 26.3915 60.088 26.3915 63.2788C26.3915 66.4695 28.9761 69.0672 32.1506 69.0672C35.3251 69.0672 37.9097 66.4695 37.9097 63.2788C37.9097 60.088 35.3251 57.4903 32.1506 57.4903Z" fill="#48637B"/>
<path d="M42.8774 82.1973C42.1831 82.1973 41.6172 81.6285 41.6172 80.9307C41.6172 80.2328 42.1831 79.6641 42.8774 79.6641H42.9456C43.6399 79.6641 44.2058 80.2328 44.2058 80.9307C44.2058 81.6285 43.6399 82.1973 42.9456 82.1973H42.8774Z" fill="#48637B"/>
<path d="M31.0897 25.8534C26.8918 25.8534 23.4805 22.4206 23.4805 18.2013C23.4805 13.9819 26.8958 10.5532 31.0897 10.5532C35.2836 10.5532 38.7029 13.986 38.7029 18.2013C38.7029 22.4166 35.2876 25.8534 31.0897 25.8534ZM31.0897 13.0905C28.2844 13.0905 26.0008 15.3857 26.0008 18.2053C26.0008 21.025 28.2844 23.3202 31.0897 23.3202C33.895 23.3202 36.1785 21.025 36.1785 18.2053C36.1785 15.3857 33.895 13.0905 31.0897 13.0905Z" fill="#48637B"/>
<path d="M23.7211 97.1426C23.0268 97.1426 22.4609 96.5738 22.4609 95.876C22.4609 95.1781 23.0268 94.6094 23.7211 94.6094H23.7893C24.4836 94.6094 25.0495 95.1781 25.0495 95.876C25.0495 96.5738 24.4836 97.1426 23.7893 97.1426H23.7211Z" fill="#48637B"/>
</g>
<defs>
<clipPath id="clip0_354_18492">
<rect width="93" height="127" fill="white" transform="translate(0 0.351562)"/>
</clipPath>
</defs>
</svg>
