<svg width="14" height="15" viewBox="0 0 14 15" fill="none" xmlns="http://www.w3.org/2000/svg">
<path d="M0 7.83398C0 3.97852 3.11719 0.833984 7 0.833984C10.8555 0.833984 14 3.97852 14 7.83398C14 11.7168 10.8555 14.834 7 14.834C3.11719 14.834 0 11.7168 0 7.83398ZM10.1445 6.63086C10.4453 6.33008 10.4453 5.86523 10.1445 5.56445C9.84375 5.26367 9.37891 5.26367 9.07812 5.56445L6.125 8.51758L4.89453 7.31445C4.59375 7.01367 4.12891 7.01367 3.82812 7.31445C3.52734 7.61523 3.52734 8.08008 3.82812 8.38086L5.57812 10.1309C5.87891 10.4316 6.34375 10.4316 6.64453 10.1309L10.1445 6.63086Z" fill="#6CFE80"/>
</svg>
