<svg width="27" height="22" viewBox="0 0 27 22" fill="none" xmlns="http://www.w3.org/2000/svg">
<path d="M2.48438 1.23438L4.20312 2.5625C4.4375 2.36719 4.75 2.25 5.10156 2.25H21.8594C22.7578 2.25 23.5 2.99219 23.5 3.89062C23.5 4.28125 23.3438 4.63281 23.1094 4.90625L16.9375 12.5234L25.6094 19.3594C26.0391 19.6719 26.1172 20.2578 25.7656 20.6484C25.4531 21.0781 24.8672 21.1562 24.4766 20.8047L1.35156 2.67969C0.921875 2.36719 0.84375 1.78125 1.19531 1.39062C1.50781 0.960938 2.09375 0.882812 2.48438 1.23438ZM6.23438 4.125L15.4531 11.3516L21.3516 4.125H6.23438ZM12.25 15.2578L14.75 17.25V15.6094L16.625 17.0938V18.5C16.625 19.2031 16.0391 19.75 15.3359 19.75C15.0625 19.75 14.7891 19.6719 14.5547 19.4766L10.9609 16.625C10.5703 16.3125 10.375 15.8828 10.375 15.4141V12.1719L12.25 13.6172V15.2578Z" fill="#344A61"/>
</svg>
