<svg width="11" height="11" viewBox="0 0 11 11" fill="none" xmlns="http://www.w3.org/2000/svg">
<path d="M10.0195 2.29883L6.94336 5.375L10.0195 8.48047C10.4004 8.83203 10.4004 9.44727 10.0195 9.79883C9.66797 10.1797 9.05273 10.1797 8.70117 9.79883L5.625 6.72266L2.51953 9.79883C2.16797 10.1797 1.55273 10.1797 1.20117 9.79883C0.820312 9.44727 0.820312 8.83203 1.20117 8.48047L4.27734 5.375L1.20117 2.29883C0.820312 1.94727 0.820312 1.33203 1.20117 0.980469C1.55273 0.599609 2.16797 0.599609 2.51953 0.980469L5.625 4.05664L8.70117 0.980469C9.05273 0.599609 9.66797 0.599609 10.0195 0.980469C10.4004 1.33203 10.4004 1.94727 10.0195 2.29883Z" fill="white"/>
</svg>
