<svg width="9" height="9" viewBox="0 0 9 9" fill="none" xmlns="http://www.w3.org/2000/svg">
<path d="M8.3125 7.28906C8.52344 7.52344 8.52344 7.875 8.3125 8.08594C8.07812 8.32031 7.72656 8.32031 7.51562 8.08594L4.75 5.29688L1.96094 8.08594C1.72656 8.32031 1.375 8.32031 1.16406 8.08594C0.929688 7.875 0.929688 7.52344 1.16406 7.28906L3.95312 4.5L1.16406 1.71094C0.929688 1.47656 0.929688 1.125 1.16406 0.914062C1.375 0.679688 1.72656 0.679688 1.9375 0.914062L4.75 3.72656L7.53906 0.9375C7.75 0.703125 8.10156 0.703125 8.3125 0.9375C8.54688 1.14844 8.54688 1.5 8.3125 1.73438L5.52344 4.5L8.3125 7.28906Z" fill="#D7D7D7"/>
</svg>
