<svg width="19" height="26" viewBox="0 0 19 26" fill="none" xmlns="http://www.w3.org/2000/svg">
<path d="M18.75 22C18.75 23.7578 17.334 25.125 15.625 25.125H3.125C1.36719 25.125 0 23.7578 0 22H1.5625C1.5625 22.8789 2.24609 23.5625 3.125 23.5625H15.625C16.4551 23.5625 17.1875 22.8789 17.1875 22H18.75ZM11.7188 9.5C10.4004 9.5 9.375 8.47461 9.375 7.15625V1.6875H3.125C2.24609 1.6875 1.5625 2.41992 1.5625 3.25V11.0625H0V3.25C0 1.54102 1.36719 0.125 3.125 0.125H10.7422C11.3281 0.125 11.9629 0.417969 12.4023 0.857422L18.0176 6.47266C18.457 6.91211 18.75 7.54688 18.75 8.13281V11.0625H17.1875V9.5H11.7188ZM16.9434 7.5957L11.2793 1.93164C11.1816 1.83398 11.0352 1.78516 10.9375 1.73633V7.15625C10.9375 7.5957 11.2793 7.9375 11.7188 7.9375H17.1387C17.0898 7.83984 17.041 7.69336 16.9434 7.5957ZM4.6875 12.625C5.76172 12.625 6.64062 13.5039 6.64062 14.5781V14.9688C6.64062 15.4082 6.25 15.75 5.85938 15.75C5.41992 15.75 5.07812 15.4082 5.07812 14.9688V14.5781C5.07812 14.3828 4.88281 14.1875 4.6875 14.1875H3.90625C3.66211 14.1875 3.51562 14.3828 3.51562 14.5781V18.4844C3.51562 18.7285 3.66211 18.875 3.90625 18.875H4.6875C4.88281 18.875 5.07812 18.7285 5.07812 18.4844V18.0938C5.07812 17.7031 5.41992 17.3125 5.85938 17.3125C6.25 17.3125 6.64062 17.7031 6.64062 18.0938V18.4844C6.64062 19.6074 5.76172 20.4375 4.6875 20.4375H3.90625C2.7832 20.4375 1.95312 19.6074 1.95312 18.4844V14.5781C1.95312 13.5039 2.7832 12.625 3.90625 12.625H4.6875ZM7.42188 14.9199C7.42188 13.6504 8.39844 12.625 9.66797 12.625H10.5469C10.9375 12.625 11.3281 13.0156 11.3281 13.4062C11.3281 13.8457 10.9375 14.1875 10.5469 14.1875H9.66797C9.27734 14.1875 8.98438 14.5293 8.98438 14.9199C8.98438 15.1641 9.08203 15.4082 9.32617 15.5059L10.5469 16.2383C11.2793 16.6289 11.7188 17.3613 11.7188 18.1914C11.7188 19.4609 10.6934 20.4375 9.42383 20.4375H8.20312C7.76367 20.4375 7.42188 20.0957 7.42188 19.6562C7.42188 19.2656 7.76367 18.875 8.20312 18.875H9.42383C9.81445 18.875 10.1562 18.582 10.1562 18.1914C10.1562 17.9473 10.0098 17.7031 9.76562 17.6055L8.54492 16.873C7.8125 16.4824 7.42188 15.7012 7.42188 14.9199ZM13.6719 14.9688C13.6719 16.0918 13.916 17.2148 14.4531 18.1914C14.9414 17.2148 15.2344 16.0918 15.2344 14.9688V13.4062C15.2344 13.0156 15.5762 12.625 16.0156 12.625C16.4062 12.625 16.7969 13.0156 16.7969 13.4062V14.9688C16.7969 16.6777 16.2598 18.3379 15.332 19.7539L15.0879 20.0957C14.9414 20.3398 14.6973 20.4375 14.4531 20.4375C14.1602 20.4375 13.916 20.3398 13.7695 20.0957L13.5254 19.7539C12.5977 18.3379 12.1094 16.6777 12.1094 14.9688V13.4062C12.1094 13.0156 12.4512 12.625 12.8906 12.625C13.2812 12.625 13.6719 13.0156 13.6719 13.4062V14.9688Z" fill="white"/>
</svg>
