<svg width="14" height="17" viewBox="0 0 14 17" fill="none" xmlns="http://www.w3.org/2000/svg">
<path d="M12.6562 14.9375H0.84375C0.351562 14.9375 0 15.2891 0 15.7812C0 16.2734 0.351562 16.625 0.84375 16.625H12.6562C13.1133 16.625 13.5 16.2734 13.5 15.7812C13.5 15.3242 13.1133 14.9375 12.6562 14.9375ZM10.6172 7.0625L7.59375 10.2969V1.75391C7.59375 1.26172 7.20703 0.875 6.75 0.875C6.25781 0.875 5.90625 1.26172 5.90625 1.75391V10.2969L2.84766 7.0625C2.67188 6.88672 2.46094 6.81641 2.25 6.81641C2.03906 6.81641 1.82812 6.88672 1.65234 7.02734C1.30078 7.34375 1.30078 7.87109 1.61719 8.22266L6.11719 13.0039C6.43359 13.3555 7.03125 13.3555 7.34766 13.0039L11.8477 8.22266C12.1641 7.87109 12.1641 7.34375 11.8125 7.02734C11.4609 6.71094 10.9336 6.71094 10.6172 7.0625Z" fill="white"/>
</svg>
