<svg width="19" height="22" viewBox="0 0 19 22" fill="none" xmlns="http://www.w3.org/2000/svg">
<g clip-path="url(#clip0_3_10922)">
<path d="M0.0820306 7.31055C0.164062 7.22852 0.246093 7.22852 0.287109 7.22852C0.410156 7.22852 0.492187 7.22852 0.533202 7.31055L9.1875 16.9082L17.8008 7.31054C17.9238 7.1875 18.1289 7.1875 18.252 7.31054C18.375 7.43359 18.375 7.63867 18.252 7.76172L9.39258 17.6055C9.26953 17.7285 9.06445 17.7285 8.94141 17.6055L0.0820307 7.76172C-0.0410162 7.63867 -0.0410163 7.39258 0.0820306 7.31055Z" fill="#E6E6E6"/>
<path d="M0.0820306 7.31055L0.192971 7.47696L0.209449 7.46597L0.223452 7.45197L0.0820306 7.31055ZM0.533202 7.31055L0.354317 7.39999L0.366471 7.4243L0.38467 7.44448L0.533202 7.31055ZM9.1875 16.9082L9.03897 17.0421L9.18785 17.2072L9.33635 17.0418L9.1875 16.9082ZM17.8008 7.31054L17.6592 7.16892L17.6519 7.17696L17.8008 7.31054ZM18.252 7.76172L18.1103 7.6201L18.1033 7.62792L18.252 7.76172ZM9.39258 17.6055L9.5342 17.7471L9.54124 17.7393L9.39258 17.6055ZM8.94141 17.6055L8.79254 17.7394L8.79999 17.7469L8.94141 17.6055ZM0.0820307 7.76172L0.230895 7.62774L0.223452 7.6203L0.0820307 7.76172ZM0.223452 7.45197C0.23932 7.4361 0.250138 7.43243 0.254895 7.43107C0.26189 7.42908 0.268438 7.42852 0.287109 7.42852L0.287109 7.02852C0.230553 7.02852 0.0802247 7.02951 -0.0593908 7.16913L0.223452 7.45197ZM0.287109 7.42852C0.319161 7.42852 0.342047 7.42856 0.361716 7.42955C0.381271 7.43053 0.389823 7.43215 0.39241 7.4328C0.393874 7.43316 0.385676 7.43132 0.37475 7.42312C0.362968 7.41429 0.356588 7.40453 0.354317 7.39999L0.712088 7.2211C0.661347 7.11962 0.577483 7.06676 0.489424 7.04474C0.419222 7.02719 0.339776 7.02852 0.287109 7.02852L0.287109 7.42852ZM0.38467 7.44448L9.03897 17.0421L9.33603 16.7743L0.681735 7.17661L0.38467 7.44448ZM9.33635 17.0418L17.9496 7.44413L17.6519 7.17696L9.03865 16.7746L9.33635 17.0418ZM17.9422 7.45197C17.9871 7.40702 18.0656 7.40702 18.1105 7.45197L18.3934 7.16912C18.1922 6.96797 17.8605 6.96797 17.6594 7.16912L17.9422 7.45197ZM18.1105 7.45197C18.1555 7.49691 18.1555 7.57535 18.1105 7.62029L18.3934 7.90314C18.5945 7.70199 18.5945 7.37027 18.3934 7.16912L18.1105 7.45197ZM18.1033 7.62792L9.24392 17.4717L9.54124 17.7393L18.4006 7.89551L18.1033 7.62792ZM9.25116 17.464C9.20622 17.509 9.12777 17.509 9.08283 17.464L8.79999 17.7469C9.00114 17.948 9.33285 17.948 9.534 17.7469L9.25116 17.464ZM9.09007 17.4717L0.230689 7.62793L-0.0666281 7.89551L8.79275 17.7393L9.09007 17.4717ZM0.223452 7.6203C0.207018 7.60386 0.189745 7.56665 0.189745 7.52075C0.189745 7.49971 0.193595 7.48439 0.197144 7.47596C0.200614 7.46772 0.201296 7.47141 0.192971 7.47696L-0.0289095 7.14414C-0.167385 7.23645 -0.210255 7.39721 -0.210255 7.52075C-0.210254 7.64917 -0.166004 7.79653 -0.0593907 7.90314L0.223452 7.6203Z" fill="white"/>
</g>
<defs>
<clipPath id="clip0_3_10922">
<rect width="19" height="22" fill="white"/>
</clipPath>
</defs>
</svg>
