<svg width="9" height="11" viewBox="0 0 9 11" fill="none" xmlns="http://www.w3.org/2000/svg">
<path d="M3.96094 8.28906L0.773438 4.77344C0.117188 4.04688 0.632812 2.875 1.61719 2.875H2.625V1.375C2.625 0.765625 3.11719 0.25 3.75 0.25H5.25C5.85938 0.25 6.375 0.765625 6.375 1.375V2.875H7.38281C8.34375 2.875 8.85938 4.04688 8.20312 4.77344L5.03906 8.28906C4.875 8.42969 4.6875 8.5 4.5 8.5C4.3125 8.5 4.125 8.42969 3.96094 8.28906ZM3.75 4H1.66406L4.5 7.23438L7.33594 4H5.25V1.375H3.75V4ZM8.4375 9.625C8.74219 9.625 9 9.88281 9 10.1875C9 10.5156 8.74219 10.75 8.4375 10.75H0.5625C0.234375 10.75 0 10.5156 0 10.1875C0 9.88281 0.234375 9.625 0.5625 9.625H8.4375Z" fill="#D7D7D7"/>
</svg>
