<svg xmlns="http://www.w3.org/2000/svg" width="195.293" height="45.969" viewBox="0 0 195.293 45.969">
  <g id="Group_22649" data-name="Group 22649" transform="translate(-6026.78 -588.049)">
    <path id="Path_79116" data-name="Path 79116" d="M113.78,8.049h22.656c15.366,0,25.939,8.734,25.939,22.984S151.8,54.018,136.436,54.018H113.78Zm22,33.885c6.5,0,10.967-3.875,10.967-10.9s-4.466-10.9-10.967-10.9h-6.5v21.8Z" transform="translate(5913 580)" fill="#4996cf"/>
    <path id="Path_79117" data-name="Path 79117" d="M198.686,46.006H181.218l-3.086,8.012H162.371L182.466,8.049H197.7l20.1,45.968H201.773Zm-4.268-11.164-4.466-11.557-4.464,11.557Z" transform="translate(5913 580)" fill="#4996cf"/>
    <path id="Path_79118" data-name="Path 79118" d="M227.973,20.066H214.512V8.049h42.422V20.066H243.471V54.018h-15.5V20.066Z" transform="translate(5913 580)" fill="#4996cf"/>
    <path id="Path_79119" data-name="Path 79119" d="M289.962,46.006H272.494l-3.086,8.012H253.647L273.742,8.049h15.235l20.1,45.968H293.049l-3.087-8.012Zm-4.268-11.164-4.466-11.557-4.465,11.557Z" transform="translate(5913 580)" fill="#4996cf"/>
  </g>
</svg>
