<svg width="16" height="15" viewBox="0 0 16 15" fill="none" xmlns="http://www.w3.org/2000/svg">
<path d="M7.70312 12.9688C8.05469 13.3203 8.01562 13.9453 7.66406 14.2578C7.27344 14.6094 6.6875 14.5703 6.33594 14.1797L1.0625 8.24219C0.749999 7.89063 0.749999 7.38281 1.0625 6.99219L6.33594 1.05469C6.6875 0.703126 7.27344 0.664063 7.66406 1.01563C7.85937 1.17188 7.9375 1.44531 7.9375 1.71875C7.9375 1.91406 7.85937 2.14844 7.70312 2.34375L2.97656 7.65625L7.70312 12.9688ZM8.52344 7.03125L13.8359 1.05469C14.1875 0.703125 14.7734 0.664063 15.1641 1.01563C15.3594 1.17188 15.4375 1.44531 15.4375 1.71875C15.4375 1.91406 15.3594 2.14844 15.2031 2.34375L10.4766 7.65625L15.2031 12.9688C15.5547 13.3203 15.5156 13.9453 15.125 14.2578C14.7734 14.6094 14.1484 14.5703 13.8359 14.2188L8.52344 8.28125C8.17187 7.89063 8.17187 7.38281 8.52344 7.03125Z" fill="#696B6C"/>
</svg>
