<svg width="16" height="15" viewBox="0 0 16 15" fill="none" xmlns="http://www.w3.org/2000/svg">
<path d="M8.29688 2.03125C7.94531 1.67969 7.98438 1.05469 8.33594 0.742188C8.72656 0.390625 9.3125 0.429688 9.66406 0.820312L14.9375 6.75781C15.25 7.10938 15.25 7.61719 14.9375 8.00781L9.66406 13.9453C9.3125 14.2969 8.72656 14.3359 8.33594 13.9844C8.14062 13.8281 8.0625 13.5547 8.0625 13.2812C8.0625 13.0859 8.14062 12.8516 8.29688 12.6562L13.0234 7.34375L8.29688 2.03125ZM7.47656 7.96875L2.16406 13.9453C1.8125 14.2969 1.22656 14.3359 0.835938 13.9844C0.640625 13.8281 0.5625 13.5547 0.5625 13.2812C0.5625 13.0859 0.640625 12.8516 0.796875 12.6562L5.52344 7.34375L0.796875 2.03125C0.445312 1.67969 0.484375 1.05469 0.875 0.742188C1.22656 0.390625 1.85156 0.429688 2.16406 0.78125L7.47656 6.71875C7.82812 7.10938 7.82812 7.61719 7.47656 7.96875Z" fill="#696B6C"/>
</svg>
