<svg width="22" height="21" viewBox="0 0 22 21" fill="none" xmlns="http://www.w3.org/2000/svg">
<path d="M11.2109 0.5C11.6016 0.5 11.9141 0.734375 12.0703 1.04688L14.7656 6.55469L20.7422 7.45312C21.0938 7.49219 21.3672 7.76562 21.4844 8.07812C21.6016 8.42969 21.5234 8.78125 21.25 9.05469L16.9141 13.3516L17.9297 19.4062C18.0078 19.7578 17.8516 20.1484 17.5781 20.3438C17.2656 20.5391 16.875 20.5781 16.5625 20.4219L11.2109 17.5312L5.85938 20.4219C5.54688 20.5781 5.19531 20.5391 4.88281 20.3438C4.60938 20.1484 4.45312 19.7578 4.49219 19.4062L5.54688 13.3516L1.21094 9.05469C0.9375 8.78125 0.859375 8.42969 0.976562 8.07812C1.09375 7.76562 1.36719 7.49219 1.71875 7.45312L7.69531 6.55469L10.3906 1.04688C10.5469 0.734375 10.8594 0.5 11.2109 0.5ZM11.2109 3.58594L9.17969 7.84375C9.02344 8.11719 8.78906 8.3125 8.47656 8.35156L3.82812 9.01562L7.1875 12.3359C7.42188 12.5703 7.5 12.8828 7.46094 13.1953L6.67969 17.8438L10.7812 15.6562C11.0547 15.5 11.4062 15.5 11.6797 15.6562L15.7812 17.8438L15 13.1953C14.9219 12.8828 15.0391 12.5703 15.2734 12.3359L18.5938 9.01562L13.9844 8.35156C13.6719 8.3125 13.3984 8.11719 13.2812 7.84375L11.2109 3.58594Z" fill="#FFF9F9"/>
</svg>
