<svg width="26" height="28" viewBox="0 0 26 28" fill="none" xmlns="http://www.w3.org/2000/svg">
<g clip-path="url(#clip0_4679_34285)">
<path d="M25.4023 12.8594C25.7891 13.375 25.918 14.0625 25.6602 14.707L23.082 22.957C22.8242 23.8164 22.0508 24.375 21.1484 24.375H3.83203C2.28516 24.375 1.08203 23.1719 1.08203 21.625V7.875C1.08203 6.37109 2.28516 5.125 3.83203 5.125H8.85938C9.58984 5.125 10.2773 5.42578 10.793 5.94141L12.7695 7.875H20.332C21.8359 7.875 23.082 9.12109 23.082 10.625H21.707C21.707 9.89453 21.0625 9.25 20.332 9.25H12.168L9.84766 6.92969C9.58984 6.67188 9.24609 6.5 8.85938 6.5H3.83203C3.05859 6.5 2.45703 7.14453 2.45703 7.875V19.9062L4.90625 13.375C5.20703 12.5586 5.98047 12 6.83984 12H23.7266C24.4141 12 25.0156 12.3438 25.4023 12.8594ZM24.4141 14.2773C24.457 14.0625 24.4141 13.8477 24.2852 13.6758C24.1562 13.5039 23.9844 13.375 23.7695 13.375H6.83984C6.53906 13.375 6.28125 13.5898 6.19531 13.8477L3.10156 22.0977C3.01562 22.3125 3.05859 22.5273 3.1875 22.7422C3.23047 22.8281 3.31641 22.8711 3.40234 22.957C3.53125 23 3.66016 23 3.83203 23H21.1484C21.4922 23 21.75 22.8281 21.8359 22.5273L24.4141 14.2773Z" fill="#E6E6E6"/>
<path d="M25.6602 14.707L25.4745 14.6328L25.4716 14.64L25.4693 14.6474L25.6602 14.707ZM23.082 22.957L22.8911 22.8974L22.8905 22.8996L23.082 22.957ZM10.793 5.94141L10.6515 6.08284L10.6531 6.08437L10.793 5.94141ZM12.7695 7.875L12.6297 8.01797L12.688 8.075H12.7695V7.875ZM23.082 10.625V10.825H23.282V10.625H23.082ZM21.707 10.625H21.507V10.825H21.707V10.625ZM12.168 9.25L12.0265 9.39142L12.0851 9.45H12.168V9.25ZM2.45703 19.9062H2.25703L2.6443 19.9765L2.45703 19.9062ZM4.90625 13.375L5.09352 13.4452L5.09392 13.4441L4.90625 13.375ZM24.4141 14.2773L24.605 14.337L24.6081 14.3269L24.6102 14.3166L24.4141 14.2773ZM6.19531 13.8477L6.38271 13.9179L6.38505 13.9109L6.19531 13.8477ZM3.10156 22.0977L3.2873 22.172L3.28883 22.1679L3.10156 22.0977ZM3.1875 22.7422L3.36639 22.6527L3.36295 22.6459L3.359 22.6393L3.1875 22.7422ZM3.40234 22.957L3.26092 23.0985L3.29431 23.1318L3.3391 23.1468L3.40234 22.957ZM21.8359 22.5273L21.645 22.4677L21.6436 22.4724L21.8359 22.5273ZM25.2423 12.9794C25.5909 13.4441 25.7041 14.0586 25.4745 14.6328L25.8459 14.7813C26.1318 14.0664 25.9872 13.3059 25.5623 12.7394L25.2423 12.9794ZM25.4693 14.6474L22.8911 22.8974L23.2729 23.0167L25.8511 14.7667L25.4693 14.6474ZM22.8905 22.8996C22.6589 23.6715 21.9655 24.175 21.1484 24.175V24.575C22.1361 24.575 22.9896 23.9613 23.2736 23.0145L22.8905 22.8996ZM21.1484 24.175H3.83203V24.575H21.1484V24.175ZM3.83203 24.175C2.39561 24.175 1.28203 23.0614 1.28203 21.625H0.882031C0.882031 23.2823 2.1747 24.575 3.83203 24.575V24.175ZM1.28203 21.625V7.875H0.882031V21.625H1.28203ZM1.28203 7.875C1.28203 6.47951 2.39765 5.325 3.83203 5.325V4.925C2.17267 4.925 0.882031 6.26268 0.882031 7.875H1.28203ZM3.83203 5.325H8.85938V4.925H3.83203V5.325ZM8.85938 5.325C9.53389 5.325 10.1713 5.6026 10.6515 6.08283L10.9344 5.79998C10.3834 5.24896 9.6458 4.925 8.85938 4.925V5.325ZM10.6531 6.08437L12.6297 8.01797L12.9094 7.73203L10.9328 5.79844L10.6531 6.08437ZM12.7695 8.075H20.332V7.675H12.7695V8.075ZM20.332 8.075C21.7255 8.075 22.882 9.23155 22.882 10.625H23.282C23.282 9.01064 21.9464 7.675 20.332 7.675V8.075ZM23.082 10.425H21.707V10.825H23.082V10.425ZM21.907 10.625C21.907 9.78407 21.173 9.05 20.332 9.05V9.45C20.952 9.45 21.507 10.005 21.507 10.625H21.907ZM20.332 9.05H12.168V9.45H20.332V9.05ZM12.3094 9.10858L9.98908 6.78827L9.70623 7.07111L12.0265 9.39142L12.3094 9.10858ZM9.98908 6.78827C9.70043 6.49962 9.30788 6.3 8.85938 6.3V6.7C9.18431 6.7 9.47926 6.84413 9.70623 7.07111L9.98908 6.78827ZM8.85938 6.3H3.83203V6.7H8.85938V6.3ZM3.83203 6.3C2.9441 6.3 2.25703 7.03815 2.25703 7.875H2.65703C2.65703 7.25091 3.17308 6.7 3.83203 6.7V6.3ZM2.25703 7.875V19.9062H2.65703V7.875H2.25703ZM2.6443 19.9765L5.09352 13.4452L4.71898 13.3048L2.26977 19.836L2.6443 19.9765ZM5.09392 13.4441C5.36702 12.7029 6.06792 12.2 6.83984 12.2V11.8C5.89302 11.8 5.04704 12.4143 4.71858 13.3059L5.09392 13.4441ZM6.83984 12.2H23.7266V11.8H6.83984V12.2ZM23.7266 12.2C24.3446 12.2 24.8893 12.5087 25.2423 12.9794L25.5623 12.7394C25.1419 12.1788 24.4835 11.8 23.7266 11.8V12.2ZM24.6102 14.3166C24.6634 14.0505 24.6109 13.7767 24.4452 13.5558L24.1252 13.7958C24.2172 13.9186 24.2507 14.0745 24.2179 14.2381L24.6102 14.3166ZM24.4452 13.5558C24.2971 13.3583 24.0729 13.175 23.7695 13.175V13.575C23.8958 13.575 24.0154 13.6495 24.1252 13.7958L24.4452 13.5558ZM23.7695 13.175H6.83984V13.575H23.7695V13.175ZM6.83984 13.175C6.44441 13.175 6.11593 13.4534 6.00558 13.7844L6.38505 13.9109C6.44657 13.7263 6.63372 13.575 6.83984 13.575V13.175ZM6.00805 13.7774L2.9143 22.0274L3.28883 22.1679L6.38258 13.9179L6.00805 13.7774ZM2.91587 22.0234C2.79963 22.314 2.86622 22.5955 3.016 22.8451L3.359 22.6393C3.25097 22.4592 3.23162 22.311 3.28726 22.1719L2.91587 22.0234ZM3.00861 22.8316C3.04835 22.9111 3.1054 22.9644 3.14865 23.0015C3.19867 23.0443 3.22491 23.0624 3.26092 23.0985L3.54377 22.8156C3.49384 22.7657 3.43414 22.7193 3.40897 22.6978C3.37702 22.6704 3.36962 22.6592 3.36639 22.6527L3.00861 22.8316ZM3.3391 23.1468C3.50434 23.2019 3.66724 23.2 3.83203 23.2V22.8C3.65307 22.8 3.55816 22.7981 3.46559 22.7673L3.3391 23.1468ZM3.83203 23.2H21.1484V22.8H3.83203V23.2ZM21.1484 23.2C21.565 23.2 21.9135 22.9838 22.0282 22.5823L21.6436 22.4724C21.5865 22.6725 21.4194 22.8 21.1484 22.8V23.2ZM22.0268 22.587L24.605 14.337L24.2232 14.2177L21.645 22.4677L22.0268 22.587Z" fill="white"/>
</g>
<defs>
<clipPath id="clip0_4679_34285">
<rect width="26" height="28" fill="white"/>
</clipPath>
</defs>
</svg>
