<svg width="25" height="19" viewBox="0 0 25 19" fill="none" xmlns="http://www.w3.org/2000/svg">
<path d="M23.3594 0.749996C24.2578 0.749996 25 1.49218 25 2.39062C25 2.78125 24.8437 3.13281 24.6484 3.40625L19.375 10.1641L19.375 15.75C19.375 16.8047 18.1641 17.3906 17.3438 16.7266L13.7109 13.875C13.3203 13.6016 13.125 13.1328 13.125 12.6641L13.125 10.1641L7.8125 3.40625C7.61719 3.13281 7.5 2.78125 7.5 2.39062C7.5 1.49219 8.20312 0.749999 9.10156 0.749998L23.3594 0.749996ZM15 9.8125L15 12.5078L17.5 14.4609L17.5 9.8125C17.5 9.61718 17.5391 9.42187 17.6953 9.26562L22.8516 2.625L9.60937 2.625L14.7656 9.26562C14.9219 9.42187 15 9.61718 15 9.8125ZM6.83594 4.1875L7.57812 5.125L2.10937 5.125L7.26563 11.7656C7.42188 11.9219 7.5 12.1172 7.5 12.3125L7.5 13.7578L10 15.7109L10 12.3125C10 12.1172 10.0391 11.9219 10.1953 11.7656L11.4844 10.0859L11.875 10.5937L11.875 17C11.875 18.0547 10.6641 18.6406 9.84375 17.9766L6.21094 15.125C5.82031 14.8516 5.625 14.3828 5.625 13.9141L5.625 12.6641L0.312499 5.90625C0.117187 5.63281 -6.50207e-07 5.28125 -7.18506e-07 4.89062C-8.75594e-07 3.99219 0.703124 3.25 1.60156 3.25L6.36719 3.25C6.48437 3.60156 6.64062 3.91406 6.83594 4.1875Z" fill="#696B6C"/>
</svg>
