<svg width="26" height="21" viewBox="0 0 26 21" fill="none" xmlns="http://www.w3.org/2000/svg">
<path d="M22.2266 2.64257C21.8359 2.25195 21.25 2.25195 20.8984 2.64257L20.0781 3.46289L21.875 5.25976L22.6953 4.40039C23.0469 4.04882 23.0469 3.46289 22.6953 3.07226L22.2266 2.64257ZM14.0234 9.55664C13.9062 9.71289 13.8281 9.86914 13.7891 10.0254L13.3984 11.9785L15.3125 11.5879C15.5078 11.5488 15.6641 11.4316 15.7813 11.3145L20.5469 6.54882L18.75 4.79101L14.0234 9.55664ZM19.5703 1.31445C20.6641 0.2207 22.4219 0.181637 23.5547 1.31445L24.0234 1.7832C25.1172 2.87695 25.1172 4.63476 24.0234 5.72851L17.1094 12.6426C16.7188 13.0332 16.25 13.3066 15.7031 13.4238L12.3438 14.0879C12.0703 14.166 11.7188 14.0879 11.5234 13.8535C11.2891 13.6191 11.1719 13.3066 11.25 12.9941L11.9531 9.63476C12.0703 9.12695 12.3437 8.61914 12.6953 8.26758L19.5703 1.31445ZM2.8125 5.29883L10.3125 5.29883C10.8203 5.29883 11.25 5.72851 11.25 6.23633C11.25 6.7832 10.8203 7.17383 10.3125 7.17383L2.8125 7.17383C2.26562 7.17383 1.875 7.60352 1.875 8.11133L1.875 17.4863C1.875 18.0332 2.26563 18.4238 2.8125 18.4238L19.6875 18.4238C20.1953 18.4238 20.625 18.0332 20.625 17.4863L20.625 12.4863C20.625 11.9785 21.0156 11.5488 21.5625 11.5488C22.0703 11.5488 22.5 11.9785 22.5 12.4863L22.5 17.4863C22.5 19.0488 21.2109 20.2988 19.6875 20.2988L2.8125 20.2988C1.25 20.2988 1.61732e-06 19.0488 1.34413e-06 17.4863L-2.95052e-07 8.11133C-5.61418e-07 6.58789 1.25 5.29883 2.8125 5.29883ZM5 14.0488C4.29688 14.0488 3.75 13.502 3.75 12.7988C3.75 12.1348 4.29688 11.5488 5 11.5488C5.66406 11.5488 6.25 12.1348 6.25 12.7988C6.25 13.502 5.66406 14.0488 5 14.0488ZM10 12.7988C10 13.502 9.41406 14.0488 8.75 14.0488C8.04688 14.0488 7.5 13.502 7.5 12.7988C7.5 12.1348 8.04688 11.5488 8.75 11.5488C9.41406 11.5488 10 12.1348 10 12.7988Z" fill="#696B6C"/>
</svg>
