<svg width="11" height="11" viewBox="0 0 11 11" fill="none" xmlns="http://www.w3.org/2000/svg">
<path d="M3.1875 7C3.49219 7 3.75 7.25781 3.75 7.5625V10.1875C3.75 10.5156 3.49219 10.75 3.1875 10.75C2.85938 10.75 2.625 10.5156 2.625 10.1875V8.125H0.5625C0.234375 8.125 0 7.89062 0 7.5625C0 7.25781 0.234375 7 0.5625 7H3.1875ZM7.3125 4C6.98438 4 6.75 3.76562 6.75 3.4375V0.8125C6.75 0.507812 6.98438 0.25 7.3125 0.25C7.61719 0.25 7.875 0.507812 7.875 0.8125V2.875H9.9375C10.2422 2.875 10.5 3.13281 10.5 3.4375C10.5 3.76562 10.2422 4 9.9375 4H7.3125ZM3.1875 0.25C3.49219 0.25 3.75 0.507812 3.75 0.8125V3.4375C3.75 3.76562 3.49219 4 3.1875 4H0.5625C0.234375 4 0 3.76562 0 3.4375C0 3.13281 0.234375 2.875 0.5625 2.875H2.625V0.8125C2.625 0.507812 2.85938 0.25 3.1875 0.25ZM9.9375 7C10.2422 7 10.5 7.25781 10.5 7.5625C10.5 7.89062 10.2422 8.125 9.9375 8.125H7.875V10.1875C7.875 10.5156 7.61719 10.75 7.3125 10.75C6.98438 10.75 6.75 10.5156 6.75 10.1875V7.5625C6.75 7.25781 6.98438 7 7.3125 7H9.9375Z" fill="#D7D7D7"/>
</svg>
