<svg width="11" height="11" viewBox="0 0 11 11" fill="none" xmlns="http://www.w3.org/2000/svg">
<path d="M3.1875 0.25C3.49219 0.25 3.75 0.507812 3.75 0.8125C3.75 1.14062 3.49219 1.375 3.1875 1.375H1.125V3.4375C1.125 3.76562 0.867188 4 0.5625 4C0.234375 4 0 3.76562 0 3.4375V0.8125C0 0.507812 0.234375 0.25 0.5625 0.25H3.1875ZM9.9375 0.25C10.2422 0.25 10.5 0.507812 10.5 0.8125V3.4375C10.5 3.76562 10.2422 4 9.9375 4C9.60938 4 9.375 3.76562 9.375 3.4375V1.375H7.3125C6.98438 1.375 6.75 1.14062 6.75 0.8125C6.75 0.507812 6.98438 0.25 7.3125 0.25H9.9375ZM3.1875 9.625C3.49219 9.625 3.75 9.88281 3.75 10.1875C3.75 10.5156 3.49219 10.75 3.1875 10.75H0.5625C0.234375 10.75 0 10.5156 0 10.1875V7.5625C0 7.25781 0.234375 7 0.5625 7C0.867188 7 1.125 7.25781 1.125 7.5625V9.625H3.1875ZM9.9375 7C10.2422 7 10.5 7.25781 10.5 7.5625V10.1875C10.5 10.5156 10.2422 10.75 9.9375 10.75H7.3125C6.98438 10.75 6.75 10.5156 6.75 10.1875C6.75 9.88281 6.98438 9.625 7.3125 9.625H9.375V7.5625C9.375 7.25781 9.60938 7 9.9375 7Z" fill="#D7D7D7"/>
</svg>
