<svg width="73" height="64" viewBox="0 0 73 64" fill="none" xmlns="http://www.w3.org/2000/svg">
<g clip-path="url(#clip0_1977_34682)">
<path d="M51.5352 45.4434C50.9034 45.4434 50.3954 45.962 50.3954 46.5972V49.4235C50.3954 49.7649 50.1222 50.0415 49.7849 50.0415H40.2053C39.5734 50.0415 39.0654 50.5601 39.0654 51.1953C39.0654 51.8306 39.5777 52.3492 40.2053 52.3492H49.7934C51.39 52.3492 52.6836 51.0398 52.6836 49.4235V46.5929C52.6836 45.9533 52.167 45.4391 51.5395 45.4434H51.5352Z" fill="#1F2D38"/>
<mask id="mask0_1977_34682" style="mask-type:luminance" maskUnits="userSpaceOnUse" x="0" y="6" width="73" height="51">
<path d="M73 6.19922H0V56.1992H73V6.19922Z" fill="white"/>
</mask>
<g mask="url(#mask0_1977_34682)">
<path d="M51.5353 39.998C50.9035 39.998 50.3955 40.5166 50.3955 41.1519V42.833C50.3955 43.4725 50.9078 43.9868 51.5353 43.9868C52.1629 43.9868 52.6752 43.4682 52.6752 42.833V41.1519C52.6752 40.5123 52.1629 39.998 51.5353 39.998Z" fill="#1F2D38"/>
<path d="M54.1908 51.3552C54.1908 52.7554 53.068 53.8876 51.6891 53.8876H20.6535C19.2703 53.8876 18.1518 52.7511 18.1518 51.3552V32.2973C18.1518 30.8971 19.2703 29.7649 20.6535 29.7649H51.6934C53.0765 29.7649 54.195 30.9014 54.195 32.2973V51.3552H54.1908ZM30.5447 18.3647H32.2267C32.8585 18.3647 33.3666 17.8461 33.3666 17.2109C33.3666 16.5756 32.8543 16.057 32.2267 16.057H31.2235V12.0942H41.1276V16.057H35.6377C35.0059 16.057 34.4978 16.5756 34.4978 17.2109C34.4978 17.8461 35.0101 18.3647 35.6377 18.3647H41.8064L46.9761 23.4036V27.4572H25.3792V23.4036L30.5447 18.3647ZM24.7901 9.78218C24.4443 9.78218 24.1583 9.50128 24.154 9.15123C24.154 8.79687 24.4358 8.51165 24.7816 8.50733H47.561C47.9068 8.50733 48.1885 8.79255 48.1885 9.14259C48.1885 9.49263 47.9068 9.77785 47.561 9.77785H24.7901V9.78218ZM71.8687 31.1175C71.8687 31.1175 71.8644 31.1175 71.8602 31.1175H59.3691C58.7373 31.1175 58.2292 31.6361 58.2292 32.2714C58.2292 32.9066 58.7415 33.4252 59.3691 33.4252H70.7161V50.2359H56.4747V32.3016C56.4747 29.6266 54.3316 27.4615 51.6891 27.4572H49.2473V22.911C49.2473 22.5955 49.1192 22.2973 48.8972 22.0812L43.403 16.7269V12.0899H47.561C49.1704 12.0899 50.4725 10.7718 50.4725 9.14259C50.4725 7.51338 49.1704 6.19531 47.561 6.19531H24.7901C23.1807 6.19531 21.8787 7.51338 21.8787 9.14259C21.8787 10.7718 23.1807 12.0899 24.7901 12.0899H28.9481V16.7269L23.4539 22.0855C23.2319 22.3016 23.1039 22.6041 23.1039 22.9153V27.4615H20.6535C18.4677 27.4702 16.5637 28.9741 16.0301 31.1175H1.13982C0.508012 31.1175 0 31.6361 0 32.2714V51.3811C0 52.0207 0.512281 52.535 1.13982 52.535H12.8198C13.4516 52.535 13.9597 52.0164 13.9597 51.3811C13.9597 50.7459 13.4474 50.2273 12.8198 50.2273H2.27965V33.4166H15.8679V51.3509C15.8679 54.0259 18.0109 56.191 20.6492 56.1953H51.6891C53.8749 56.1867 55.7788 54.6828 56.3125 52.5393H71.8559C72.4877 52.5393 72.9957 52.0207 72.9957 51.3855V32.2757C72.9957 31.6361 72.492 31.1175 71.8644 31.1132L71.8687 31.1175Z" fill="#1F2D38"/>
</g>
</g>
<rect x="64.8662" y="0.455904" width="4.05092" height="84.3039" rx="2.02546" transform="rotate(45 64.8662 0.455904)" fill="#1F2D38"/>
<rect x="64.8662" y="0.455904" width="4.05092" height="84.3039" rx="2.02546" transform="rotate(45 64.8662 0.455904)" stroke="#47627A" stroke-width="2"/>
<defs>
<clipPath id="clip0_1977_34682">
<rect width="73" height="50" fill="white" transform="translate(0 6.19922)"/>
</clipPath>
</defs>
</svg>
