<svg width="17" height="18" viewBox="0 0 17 18" fill="none" xmlns="http://www.w3.org/2000/svg">
<path d="M5.3125 9.125C5.3125 7.36523 6.70703 5.9375 8.5 5.9375C10.2598 5.9375 11.6875 7.36523 11.6875 9.125C11.6875 10.8848 10.2598 12.3125 8.5 12.3125C6.70703 12.3125 5.3125 10.8848 5.3125 9.125ZM8.5 7.53125C7.60352 7.53125 6.90625 8.26172 6.90625 9.125C6.90625 10.0215 7.60352 10.7188 8.5 10.7188C9.36328 10.7188 10.0938 10.0215 10.0938 9.125C10.0938 8.26172 9.36328 7.53125 8.5 7.53125ZM9.72852 0.625C10.459 0.625 11.0898 1.15625 11.2559 1.85352L11.5215 2.94922C11.8203 3.08203 12.0859 3.24805 12.3184 3.41406L13.4141 3.08203C14.1113 2.88281 14.875 3.18164 15.2402 3.8125L16.4688 5.9707C16.834 6.60156 16.7012 7.39844 16.1699 7.89648L15.373 8.66016C15.373 8.82617 15.4062 8.99219 15.4062 9.125C15.4062 9.29102 15.373 9.45703 15.373 9.58984L16.1699 10.3867C16.7012 10.8848 16.834 11.6816 16.4688 12.3125L15.2402 14.4707C14.875 15.1016 14.1113 15.4004 13.4141 15.2012L12.3184 14.8691C12.0859 15.0352 11.8203 15.2012 11.5215 15.334L11.2559 16.4297C11.0898 17.127 10.459 17.625 9.72852 17.625H7.23828C6.50781 17.625 5.87695 17.127 5.71094 16.4297L5.44531 15.334C5.14648 15.2012 4.88086 15.0352 4.64844 14.8691L3.55273 15.2012C2.85547 15.4004 2.0918 15.1016 1.72656 14.4707L0.498047 12.3125C0.132812 11.6816 0.265625 10.8848 0.796875 10.3867L1.59375 9.58984C1.59375 9.45703 1.59375 9.29102 1.59375 9.125C1.59375 8.99219 1.59375 8.82617 1.59375 8.66016L0.796875 7.89648C0.265625 7.39844 0.132812 6.60156 0.498047 5.9707L1.72656 3.8125C2.0918 3.18164 2.85547 2.88281 3.55273 3.08203L4.64844 3.41406C4.88086 3.24805 5.14648 3.08203 5.44531 2.94922L5.71094 1.85352C5.87695 1.15625 6.50781 0.625 7.23828 0.625H9.72852ZM6.80664 4.07812L6.44141 4.24414C6.00977 4.41016 5.61133 4.64258 5.2793 4.9082L4.94727 5.17383L3.12109 4.60938L1.89258 6.76758L3.25391 8.0625L3.2207 8.46094C3.1875 8.69336 3.1875 8.92578 3.1875 9.125C3.1875 9.35742 3.1875 9.58984 3.2207 9.82227L3.25391 10.2207L1.89258 11.5156L3.12109 13.6738L4.94727 13.1094L5.2793 13.375C5.61133 13.6406 6.00977 13.873 6.44141 14.0391L6.80664 14.2051L7.23828 16.0312H9.72852L10.1602 14.2051L10.5254 14.0391C10.957 13.873 11.3555 13.6406 11.6875 13.375L12.0195 13.1094L13.8457 13.6738L15.0742 11.5156L13.7129 10.2207L13.7461 9.82227C13.7793 9.58984 13.8125 9.35742 13.8125 9.125C13.8125 8.92578 13.7793 8.69336 13.7461 8.46094L13.7129 8.0625L15.0742 6.76758L13.8457 4.60938L12.0195 5.17383L11.6875 4.9082C11.3555 4.64258 10.957 4.41016 10.5254 4.24414L10.1602 4.07812L9.72852 2.21875H7.23828L6.80664 4.07812Z" fill="#FFF9F9"/>
</svg>
