<svg width="297" height="234" viewBox="0 0 297 234" fill="none" xmlns="http://www.w3.org/2000/svg">
<path d="M4.69922 6.40625V7H0.976562V6.48047L2.83984 4.40625C3.06901 4.15104 3.24609 3.9349 3.37109 3.75781C3.4987 3.57812 3.58724 3.41797 3.63672 3.27734C3.6888 3.13411 3.71484 2.98828 3.71484 2.83984C3.71484 2.65234 3.67578 2.48307 3.59766 2.33203C3.52214 2.17839 3.41016 2.05599 3.26172 1.96484C3.11328 1.8737 2.93359 1.82812 2.72266 1.82812C2.47005 1.82812 2.25911 1.8776 2.08984 1.97656C1.92318 2.07292 1.79818 2.20833 1.71484 2.38281C1.63151 2.55729 1.58984 2.75781 1.58984 2.98438H0.867188C0.867188 2.66406 0.9375 2.37109 1.07812 2.10547C1.21875 1.83984 1.42708 1.62891 1.70312 1.47266C1.97917 1.3138 2.31901 1.23438 2.72266 1.23438C3.08203 1.23438 3.38932 1.29818 3.64453 1.42578C3.89974 1.55078 4.09505 1.72786 4.23047 1.95703C4.36849 2.18359 4.4375 2.44922 4.4375 2.75391C4.4375 2.92057 4.40885 3.08984 4.35156 3.26172C4.29688 3.43099 4.22005 3.60026 4.12109 3.76953C4.02474 3.9388 3.91146 4.10547 3.78125 4.26953C3.65365 4.43359 3.51693 4.59505 3.37109 4.75391L1.84766 6.40625H4.69922ZM9.05859 5.46094C9.05859 5.80729 8.97786 6.10156 8.81641 6.34375C8.65755 6.58333 8.44141 6.76562 8.16797 6.89062C7.89714 7.01562 7.59115 7.07812 7.25 7.07812C6.90885 7.07812 6.60156 7.01562 6.32812 6.89062C6.05469 6.76562 5.83854 6.58333 5.67969 6.34375C5.52083 6.10156 5.44141 5.80729 5.44141 5.46094C5.44141 5.23438 5.48438 5.02734 5.57031 4.83984C5.65885 4.64974 5.78255 4.48438 5.94141 4.34375C6.10286 4.20312 6.29297 4.09505 6.51172 4.01953C6.73307 3.94141 6.97656 3.90234 7.24219 3.90234C7.59115 3.90234 7.90234 3.97005 8.17578 4.10547C8.44922 4.23828 8.66406 4.42188 8.82031 4.65625C8.97917 4.89062 9.05859 5.15885 9.05859 5.46094ZM8.33203 5.44531C8.33203 5.23438 8.28646 5.04818 8.19531 4.88672C8.10417 4.72266 7.97656 4.59505 7.8125 4.50391C7.64844 4.41276 7.45833 4.36719 7.24219 4.36719C7.02083 4.36719 6.82943 4.41276 6.66797 4.50391C6.50911 4.59505 6.38542 4.72266 6.29688 4.88672C6.20833 5.04818 6.16406 5.23438 6.16406 5.44531C6.16406 5.66406 6.20703 5.85156 6.29297 6.00781C6.38151 6.16146 6.50651 6.27995 6.66797 6.36328C6.83203 6.44401 7.02604 6.48438 7.25 6.48438C7.47396 6.48438 7.66667 6.44401 7.82812 6.36328C7.98958 6.27995 8.11328 6.16146 8.19922 6.00781C8.28776 5.85156 8.33203 5.66406 8.33203 5.44531ZM8.92578 2.79297C8.92578 3.06901 8.85286 3.31771 8.70703 3.53906C8.5612 3.76042 8.36198 3.9349 8.10938 4.0625C7.85677 4.1901 7.57031 4.25391 7.25 4.25391C6.92448 4.25391 6.63411 4.1901 6.37891 4.0625C6.1263 3.9349 5.92839 3.76042 5.78516 3.53906C5.64193 3.31771 5.57031 3.06901 5.57031 2.79297C5.57031 2.46224 5.64193 2.18099 5.78516 1.94922C5.93099 1.71745 6.13021 1.54036 6.38281 1.41797C6.63542 1.29557 6.92318 1.23438 7.24609 1.23438C7.57161 1.23438 7.86068 1.29557 8.11328 1.41797C8.36589 1.54036 8.5638 1.71745 8.70703 1.94922C8.85286 2.18099 8.92578 2.46224 8.92578 2.79297ZM8.20312 2.80469C8.20312 2.61458 8.16276 2.44661 8.08203 2.30078C8.0013 2.15495 7.88932 2.04036 7.74609 1.95703C7.60286 1.87109 7.4362 1.82812 7.24609 1.82812C7.05599 1.82812 6.88932 1.86849 6.74609 1.94922C6.60547 2.02734 6.49479 2.13932 6.41406 2.28516C6.33594 2.43099 6.29688 2.60417 6.29688 2.80469C6.29688 3 6.33594 3.17057 6.41406 3.31641C6.49479 3.46224 6.60677 3.57552 6.75 3.65625C6.89323 3.73698 7.0599 3.77734 7.25 3.77734C7.4401 3.77734 7.60547 3.73698 7.74609 3.65625C7.88932 3.57552 8.0013 3.46224 8.08203 3.31641C8.16276 3.17057 8.20312 3 8.20312 2.80469ZM13.543 3.70312V4.57031C13.543 5.03646 13.5013 5.42969 13.418 5.75C13.3346 6.07031 13.2148 6.32812 13.0586 6.52344C12.9023 6.71875 12.7135 6.86068 12.4922 6.94922C12.2734 7.03516 12.026 7.07812 11.75 7.07812C11.5312 7.07812 11.3294 7.05078 11.1445 6.99609C10.9596 6.94141 10.793 6.85417 10.6445 6.73438C10.4987 6.61198 10.3737 6.45312 10.2695 6.25781C10.1654 6.0625 10.0859 5.82552 10.0312 5.54688C9.97656 5.26823 9.94922 4.94271 9.94922 4.57031V3.70312C9.94922 3.23698 9.99089 2.84635 10.0742 2.53125C10.1602 2.21615 10.2812 1.96354 10.4375 1.77344C10.5938 1.58073 10.7812 1.44271 11 1.35938C11.2214 1.27604 11.4688 1.23438 11.7422 1.23438C11.9635 1.23438 12.1667 1.26172 12.3516 1.31641C12.5391 1.36849 12.7057 1.45312 12.8516 1.57031C12.9974 1.6849 13.1211 1.83854 13.2227 2.03125C13.3268 2.22135 13.4062 2.45443 13.4609 2.73047C13.5156 3.00651 13.543 3.33073 13.543 3.70312ZM12.8164 4.6875V3.58203C12.8164 3.32682 12.8008 3.10286 12.7695 2.91016C12.7409 2.71484 12.6979 2.54818 12.6406 2.41016C12.5833 2.27214 12.5104 2.16016 12.4219 2.07422C12.3359 1.98828 12.2357 1.92578 12.1211 1.88672C12.0091 1.84505 11.8828 1.82422 11.7422 1.82422C11.5703 1.82422 11.418 1.85677 11.2852 1.92188C11.1523 1.98438 11.0404 2.08464 10.9492 2.22266C10.8607 2.36068 10.793 2.54167 10.7461 2.76562C10.6992 2.98958 10.6758 3.26172 10.6758 3.58203V4.6875C10.6758 4.94271 10.6901 5.16797 10.7188 5.36328C10.75 5.55859 10.7956 5.72786 10.8555 5.87109C10.9154 6.01172 10.9883 6.1276 11.0742 6.21875C11.1602 6.3099 11.2591 6.3776 11.3711 6.42188C11.4857 6.46354 11.612 6.48438 11.75 6.48438C11.9271 6.48438 12.082 6.45052 12.2148 6.38281C12.3477 6.3151 12.4583 6.20964 12.5469 6.06641C12.638 5.92057 12.7057 5.73438 12.75 5.50781C12.7943 5.27865 12.8164 5.00521 12.8164 4.6875ZM18.043 3.70312V4.57031C18.043 5.03646 18.0013 5.42969 17.918 5.75C17.8346 6.07031 17.7148 6.32812 17.5586 6.52344C17.4023 6.71875 17.2135 6.86068 16.9922 6.94922C16.7734 7.03516 16.526 7.07812 16.25 7.07812C16.0312 7.07812 15.8294 7.05078 15.6445 6.99609C15.4596 6.94141 15.293 6.85417 15.1445 6.73438C14.9987 6.61198 14.8737 6.45312 14.7695 6.25781C14.6654 6.0625 14.5859 5.82552 14.5312 5.54688C14.4766 5.26823 14.4492 4.94271 14.4492 4.57031V3.70312C14.4492 3.23698 14.4909 2.84635 14.5742 2.53125C14.6602 2.21615 14.7812 1.96354 14.9375 1.77344C15.0938 1.58073 15.2812 1.44271 15.5 1.35938C15.7214 1.27604 15.9688 1.23438 16.2422 1.23438C16.4635 1.23438 16.6667 1.26172 16.8516 1.31641C17.0391 1.36849 17.2057 1.45312 17.3516 1.57031C17.4974 1.6849 17.6211 1.83854 17.7227 2.03125C17.8268 2.22135 17.9062 2.45443 17.9609 2.73047C18.0156 3.00651 18.043 3.33073 18.043 3.70312ZM17.3164 4.6875V3.58203C17.3164 3.32682 17.3008 3.10286 17.2695 2.91016C17.2409 2.71484 17.1979 2.54818 17.1406 2.41016C17.0833 2.27214 17.0104 2.16016 16.9219 2.07422C16.8359 1.98828 16.7357 1.92578 16.6211 1.88672C16.5091 1.84505 16.3828 1.82422 16.2422 1.82422C16.0703 1.82422 15.918 1.85677 15.7852 1.92188C15.6523 1.98438 15.5404 2.08464 15.4492 2.22266C15.3607 2.36068 15.293 2.54167 15.2461 2.76562C15.1992 2.98958 15.1758 3.26172 15.1758 3.58203V4.6875C15.1758 4.94271 15.1901 5.16797 15.2188 5.36328C15.25 5.55859 15.2956 5.72786 15.3555 5.87109C15.4154 6.01172 15.4883 6.1276 15.5742 6.21875C15.6602 6.3099 15.7591 6.3776 15.8711 6.42188C15.9857 6.46354 16.112 6.48438 16.25 6.48438C16.4271 6.48438 16.582 6.45052 16.7148 6.38281C16.8477 6.3151 16.9583 6.20964 17.0469 6.06641C17.138 5.92057 17.2057 5.73438 17.25 5.50781C17.2943 5.27865 17.3164 5.00521 17.3164 4.6875ZM22.543 3.70312V4.57031C22.543 5.03646 22.5013 5.42969 22.418 5.75C22.3346 6.07031 22.2148 6.32812 22.0586 6.52344C21.9023 6.71875 21.7135 6.86068 21.4922 6.94922C21.2734 7.03516 21.026 7.07812 20.75 7.07812C20.5312 7.07812 20.3294 7.05078 20.1445 6.99609C19.9596 6.94141 19.793 6.85417 19.6445 6.73438C19.4987 6.61198 19.3737 6.45312 19.2695 6.25781C19.1654 6.0625 19.0859 5.82552 19.0312 5.54688C18.9766 5.26823 18.9492 4.94271 18.9492 4.57031V3.70312C18.9492 3.23698 18.9909 2.84635 19.0742 2.53125C19.1602 2.21615 19.2812 1.96354 19.4375 1.77344C19.5938 1.58073 19.7812 1.44271 20 1.35938C20.2214 1.27604 20.4688 1.23438 20.7422 1.23438C20.9635 1.23438 21.1667 1.26172 21.3516 1.31641C21.5391 1.36849 21.7057 1.45312 21.8516 1.57031C21.9974 1.6849 22.1211 1.83854 22.2227 2.03125C22.3268 2.22135 22.4062 2.45443 22.4609 2.73047C22.5156 3.00651 22.543 3.33073 22.543 3.70312ZM21.8164 4.6875V3.58203C21.8164 3.32682 21.8008 3.10286 21.7695 2.91016C21.7409 2.71484 21.6979 2.54818 21.6406 2.41016C21.5833 2.27214 21.5104 2.16016 21.4219 2.07422C21.3359 1.98828 21.2357 1.92578 21.1211 1.88672C21.0091 1.84505 20.8828 1.82422 20.7422 1.82422C20.5703 1.82422 20.418 1.85677 20.2852 1.92188C20.1523 1.98438 20.0404 2.08464 19.9492 2.22266C19.8607 2.36068 19.793 2.54167 19.7461 2.76562C19.6992 2.98958 19.6758 3.26172 19.6758 3.58203V4.6875C19.6758 4.94271 19.6901 5.16797 19.7188 5.36328C19.75 5.55859 19.7956 5.72786 19.8555 5.87109C19.9154 6.01172 19.9883 6.1276 20.0742 6.21875C20.1602 6.3099 20.2591 6.3776 20.3711 6.42188C20.4857 6.46354 20.612 6.48438 20.75 6.48438C20.9271 6.48438 21.082 6.45052 21.2148 6.38281C21.3477 6.3151 21.4583 6.20964 21.5469 6.06641C21.638 5.92057 21.7057 5.73438 21.75 5.50781C21.7943 5.27865 21.8164 5.00521 21.8164 4.6875Z" fill="#FCF6F6"/>
<path d="M4.69922 57.6562V58.25H0.976562V57.7305L2.83984 55.6562C3.06901 55.401 3.24609 55.1849 3.37109 55.0078C3.4987 54.8281 3.58724 54.668 3.63672 54.5273C3.6888 54.3841 3.71484 54.2383 3.71484 54.0898C3.71484 53.9023 3.67578 53.7331 3.59766 53.582C3.52214 53.4284 3.41016 53.306 3.26172 53.2148C3.11328 53.1237 2.93359 53.0781 2.72266 53.0781C2.47005 53.0781 2.25911 53.1276 2.08984 53.2266C1.92318 53.3229 1.79818 53.4583 1.71484 53.6328C1.63151 53.8073 1.58984 54.0078 1.58984 54.2344H0.867188C0.867188 53.9141 0.9375 53.6211 1.07812 53.3555C1.21875 53.0898 1.42708 52.8789 1.70312 52.7227C1.97917 52.5638 2.31901 52.4844 2.72266 52.4844C3.08203 52.4844 3.38932 52.5482 3.64453 52.6758C3.89974 52.8008 4.09505 52.9779 4.23047 53.207C4.36849 53.4336 4.4375 53.6992 4.4375 54.0039C4.4375 54.1706 4.40885 54.3398 4.35156 54.5117C4.29688 54.681 4.22005 54.8503 4.12109 55.0195C4.02474 55.1888 3.91146 55.3555 3.78125 55.5195C3.65365 55.6836 3.51693 55.8451 3.37109 56.0039L1.84766 57.6562H4.69922ZM7.84766 52.5312V58.25H7.125V53.4336L5.66797 53.9648V53.3125L7.73438 52.5312H7.84766ZM13.543 54.9531V55.8203C13.543 56.2865 13.5013 56.6797 13.418 57C13.3346 57.3203 13.2148 57.5781 13.0586 57.7734C12.9023 57.9688 12.7135 58.1107 12.4922 58.1992C12.2734 58.2852 12.026 58.3281 11.75 58.3281C11.5312 58.3281 11.3294 58.3008 11.1445 58.2461C10.9596 58.1914 10.793 58.1042 10.6445 57.9844C10.4987 57.862 10.3737 57.7031 10.2695 57.5078C10.1654 57.3125 10.0859 57.0755 10.0312 56.7969C9.97656 56.5182 9.94922 56.1927 9.94922 55.8203V54.9531C9.94922 54.487 9.99089 54.0964 10.0742 53.7812C10.1602 53.4661 10.2812 53.2135 10.4375 53.0234C10.5938 52.8307 10.7812 52.6927 11 52.6094C11.2214 52.526 11.4688 52.4844 11.7422 52.4844C11.9635 52.4844 12.1667 52.5117 12.3516 52.5664C12.5391 52.6185 12.7057 52.7031 12.8516 52.8203C12.9974 52.9349 13.1211 53.0885 13.2227 53.2812C13.3268 53.4714 13.4062 53.7044 13.4609 53.9805C13.5156 54.2565 13.543 54.5807 13.543 54.9531ZM12.8164 55.9375V54.832C12.8164 54.5768 12.8008 54.3529 12.7695 54.1602C12.7409 53.9648 12.6979 53.7982 12.6406 53.6602C12.5833 53.5221 12.5104 53.4102 12.4219 53.3242C12.3359 53.2383 12.2357 53.1758 12.1211 53.1367C12.0091 53.0951 11.8828 53.0742 11.7422 53.0742C11.5703 53.0742 11.418 53.1068 11.2852 53.1719C11.1523 53.2344 11.0404 53.3346 10.9492 53.4727C10.8607 53.6107 10.793 53.7917 10.7461 54.0156C10.6992 54.2396 10.6758 54.5117 10.6758 54.832V55.9375C10.6758 56.1927 10.6901 56.418 10.7188 56.6133C10.75 56.8086 10.7956 56.9779 10.8555 57.1211C10.9154 57.2617 10.9883 57.3776 11.0742 57.4688C11.1602 57.5599 11.2591 57.6276 11.3711 57.6719C11.4857 57.7135 11.612 57.7344 11.75 57.7344C11.9271 57.7344 12.082 57.7005 12.2148 57.6328C12.3477 57.5651 12.4583 57.4596 12.5469 57.3164C12.638 57.1706 12.7057 56.9844 12.75 56.7578C12.7943 56.5286 12.8164 56.2552 12.8164 55.9375ZM18.043 54.9531V55.8203C18.043 56.2865 18.0013 56.6797 17.918 57C17.8346 57.3203 17.7148 57.5781 17.5586 57.7734C17.4023 57.9688 17.2135 58.1107 16.9922 58.1992C16.7734 58.2852 16.526 58.3281 16.25 58.3281C16.0312 58.3281 15.8294 58.3008 15.6445 58.2461C15.4596 58.1914 15.293 58.1042 15.1445 57.9844C14.9987 57.862 14.8737 57.7031 14.7695 57.5078C14.6654 57.3125 14.5859 57.0755 14.5312 56.7969C14.4766 56.5182 14.4492 56.1927 14.4492 55.8203V54.9531C14.4492 54.487 14.4909 54.0964 14.5742 53.7812C14.6602 53.4661 14.7812 53.2135 14.9375 53.0234C15.0938 52.8307 15.2812 52.6927 15.5 52.6094C15.7214 52.526 15.9688 52.4844 16.2422 52.4844C16.4635 52.4844 16.6667 52.5117 16.8516 52.5664C17.0391 52.6185 17.2057 52.7031 17.3516 52.8203C17.4974 52.9349 17.6211 53.0885 17.7227 53.2812C17.8268 53.4714 17.9062 53.7044 17.9609 53.9805C18.0156 54.2565 18.043 54.5807 18.043 54.9531ZM17.3164 55.9375V54.832C17.3164 54.5768 17.3008 54.3529 17.2695 54.1602C17.2409 53.9648 17.1979 53.7982 17.1406 53.6602C17.0833 53.5221 17.0104 53.4102 16.9219 53.3242C16.8359 53.2383 16.7357 53.1758 16.6211 53.1367C16.5091 53.0951 16.3828 53.0742 16.2422 53.0742C16.0703 53.0742 15.918 53.1068 15.7852 53.1719C15.6523 53.2344 15.5404 53.3346 15.4492 53.4727C15.3607 53.6107 15.293 53.7917 15.2461 54.0156C15.1992 54.2396 15.1758 54.5117 15.1758 54.832V55.9375C15.1758 56.1927 15.1901 56.418 15.2188 56.6133C15.25 56.8086 15.2956 56.9779 15.3555 57.1211C15.4154 57.2617 15.4883 57.3776 15.5742 57.4688C15.6602 57.5599 15.7591 57.6276 15.8711 57.6719C15.9857 57.7135 16.112 57.7344 16.25 57.7344C16.4271 57.7344 16.582 57.7005 16.7148 57.6328C16.8477 57.5651 16.9583 57.4596 17.0469 57.3164C17.138 57.1706 17.2057 56.9844 17.25 56.7578C17.2943 56.5286 17.3164 56.2552 17.3164 55.9375ZM22.543 54.9531V55.8203C22.543 56.2865 22.5013 56.6797 22.418 57C22.3346 57.3203 22.2148 57.5781 22.0586 57.7734C21.9023 57.9688 21.7135 58.1107 21.4922 58.1992C21.2734 58.2852 21.026 58.3281 20.75 58.3281C20.5312 58.3281 20.3294 58.3008 20.1445 58.2461C19.9596 58.1914 19.793 58.1042 19.6445 57.9844C19.4987 57.862 19.3737 57.7031 19.2695 57.5078C19.1654 57.3125 19.0859 57.0755 19.0312 56.7969C18.9766 56.5182 18.9492 56.1927 18.9492 55.8203V54.9531C18.9492 54.487 18.9909 54.0964 19.0742 53.7812C19.1602 53.4661 19.2812 53.2135 19.4375 53.0234C19.5938 52.8307 19.7812 52.6927 20 52.6094C20.2214 52.526 20.4688 52.4844 20.7422 52.4844C20.9635 52.4844 21.1667 52.5117 21.3516 52.5664C21.5391 52.6185 21.7057 52.7031 21.8516 52.8203C21.9974 52.9349 22.1211 53.0885 22.2227 53.2812C22.3268 53.4714 22.4062 53.7044 22.4609 53.9805C22.5156 54.2565 22.543 54.5807 22.543 54.9531ZM21.8164 55.9375V54.832C21.8164 54.5768 21.8008 54.3529 21.7695 54.1602C21.7409 53.9648 21.6979 53.7982 21.6406 53.6602C21.5833 53.5221 21.5104 53.4102 21.4219 53.3242C21.3359 53.2383 21.2357 53.1758 21.1211 53.1367C21.0091 53.0951 20.8828 53.0742 20.7422 53.0742C20.5703 53.0742 20.418 53.1068 20.2852 53.1719C20.1523 53.2344 20.0404 53.3346 19.9492 53.4727C19.8607 53.6107 19.793 53.7917 19.7461 54.0156C19.6992 54.2396 19.6758 54.5117 19.6758 54.832V55.9375C19.6758 56.1927 19.6901 56.418 19.7188 56.6133C19.75 56.8086 19.7956 56.9779 19.8555 57.1211C19.9154 57.2617 19.9883 57.3776 20.0742 57.4688C20.1602 57.5599 20.2591 57.6276 20.3711 57.6719C20.4857 57.7135 20.612 57.7344 20.75 57.7344C20.9271 57.7344 21.082 57.7005 21.2148 57.6328C21.3477 57.5651 21.4583 57.4596 21.5469 57.3164C21.638 57.1706 21.7057 56.9844 21.75 56.7578C21.7943 56.5286 21.8164 56.2552 21.8164 55.9375Z" fill="#FCF6F6"/>
<path d="M3.34766 103.781V109.5H2.625V104.684L1.16797 105.215V104.562L3.23438 103.781H3.34766ZM9.31641 107.586V108.18H5.20703V107.754L7.75391 103.812H8.34375L7.71094 104.953L6.02734 107.586H9.31641ZM8.52344 103.812V109.5H7.80078V103.812H8.52344ZM13.543 106.203V107.07C13.543 107.536 13.5013 107.93 13.418 108.25C13.3346 108.57 13.2148 108.828 13.0586 109.023C12.9023 109.219 12.7135 109.361 12.4922 109.449C12.2734 109.535 12.026 109.578 11.75 109.578C11.5312 109.578 11.3294 109.551 11.1445 109.496C10.9596 109.441 10.793 109.354 10.6445 109.234C10.4987 109.112 10.3737 108.953 10.2695 108.758C10.1654 108.562 10.0859 108.326 10.0312 108.047C9.97656 107.768 9.94922 107.443 9.94922 107.07V106.203C9.94922 105.737 9.99089 105.346 10.0742 105.031C10.1602 104.716 10.2812 104.464 10.4375 104.273C10.5938 104.081 10.7812 103.943 11 103.859C11.2214 103.776 11.4688 103.734 11.7422 103.734C11.9635 103.734 12.1667 103.762 12.3516 103.816C12.5391 103.868 12.7057 103.953 12.8516 104.07C12.9974 104.185 13.1211 104.339 13.2227 104.531C13.3268 104.721 13.4062 104.954 13.4609 105.23C13.5156 105.507 13.543 105.831 13.543 106.203ZM12.8164 107.188V106.082C12.8164 105.827 12.8008 105.603 12.7695 105.41C12.7409 105.215 12.6979 105.048 12.6406 104.91C12.5833 104.772 12.5104 104.66 12.4219 104.574C12.3359 104.488 12.2357 104.426 12.1211 104.387C12.0091 104.345 11.8828 104.324 11.7422 104.324C11.5703 104.324 11.418 104.357 11.2852 104.422C11.1523 104.484 11.0404 104.585 10.9492 104.723C10.8607 104.861 10.793 105.042 10.7461 105.266C10.6992 105.49 10.6758 105.762 10.6758 106.082V107.188C10.6758 107.443 10.6901 107.668 10.7188 107.863C10.75 108.059 10.7956 108.228 10.8555 108.371C10.9154 108.512 10.9883 108.628 11.0742 108.719C11.1602 108.81 11.2591 108.878 11.3711 108.922C11.4857 108.964 11.612 108.984 11.75 108.984C11.9271 108.984 12.082 108.951 12.2148 108.883C12.3477 108.815 12.4583 108.71 12.5469 108.566C12.638 108.421 12.7057 108.234 12.75 108.008C12.7943 107.779 12.8164 107.505 12.8164 107.188ZM18.043 106.203V107.07C18.043 107.536 18.0013 107.93 17.918 108.25C17.8346 108.57 17.7148 108.828 17.5586 109.023C17.4023 109.219 17.2135 109.361 16.9922 109.449C16.7734 109.535 16.526 109.578 16.25 109.578C16.0312 109.578 15.8294 109.551 15.6445 109.496C15.4596 109.441 15.293 109.354 15.1445 109.234C14.9987 109.112 14.8737 108.953 14.7695 108.758C14.6654 108.562 14.5859 108.326 14.5312 108.047C14.4766 107.768 14.4492 107.443 14.4492 107.07V106.203C14.4492 105.737 14.4909 105.346 14.5742 105.031C14.6602 104.716 14.7812 104.464 14.9375 104.273C15.0938 104.081 15.2812 103.943 15.5 103.859C15.7214 103.776 15.9688 103.734 16.2422 103.734C16.4635 103.734 16.6667 103.762 16.8516 103.816C17.0391 103.868 17.2057 103.953 17.3516 104.07C17.4974 104.185 17.6211 104.339 17.7227 104.531C17.8268 104.721 17.9062 104.954 17.9609 105.23C18.0156 105.507 18.043 105.831 18.043 106.203ZM17.3164 107.188V106.082C17.3164 105.827 17.3008 105.603 17.2695 105.41C17.2409 105.215 17.1979 105.048 17.1406 104.91C17.0833 104.772 17.0104 104.66 16.9219 104.574C16.8359 104.488 16.7357 104.426 16.6211 104.387C16.5091 104.345 16.3828 104.324 16.2422 104.324C16.0703 104.324 15.918 104.357 15.7852 104.422C15.6523 104.484 15.5404 104.585 15.4492 104.723C15.3607 104.861 15.293 105.042 15.2461 105.266C15.1992 105.49 15.1758 105.762 15.1758 106.082V107.188C15.1758 107.443 15.1901 107.668 15.2188 107.863C15.25 108.059 15.2956 108.228 15.3555 108.371C15.4154 108.512 15.4883 108.628 15.5742 108.719C15.6602 108.81 15.7591 108.878 15.8711 108.922C15.9857 108.964 16.112 108.984 16.25 108.984C16.4271 108.984 16.582 108.951 16.7148 108.883C16.8477 108.815 16.9583 108.71 17.0469 108.566C17.138 108.421 17.2057 108.234 17.25 108.008C17.2943 107.779 17.3164 107.505 17.3164 107.188ZM22.543 106.203V107.07C22.543 107.536 22.5013 107.93 22.418 108.25C22.3346 108.57 22.2148 108.828 22.0586 109.023C21.9023 109.219 21.7135 109.361 21.4922 109.449C21.2734 109.535 21.026 109.578 20.75 109.578C20.5312 109.578 20.3294 109.551 20.1445 109.496C19.9596 109.441 19.793 109.354 19.6445 109.234C19.4987 109.112 19.3737 108.953 19.2695 108.758C19.1654 108.562 19.0859 108.326 19.0312 108.047C18.9766 107.768 18.9492 107.443 18.9492 107.07V106.203C18.9492 105.737 18.9909 105.346 19.0742 105.031C19.1602 104.716 19.2812 104.464 19.4375 104.273C19.5938 104.081 19.7812 103.943 20 103.859C20.2214 103.776 20.4688 103.734 20.7422 103.734C20.9635 103.734 21.1667 103.762 21.3516 103.816C21.5391 103.868 21.7057 103.953 21.8516 104.07C21.9974 104.185 22.1211 104.339 22.2227 104.531C22.3268 104.721 22.4062 104.954 22.4609 105.23C22.5156 105.507 22.543 105.831 22.543 106.203ZM21.8164 107.188V106.082C21.8164 105.827 21.8008 105.603 21.7695 105.41C21.7409 105.215 21.6979 105.048 21.6406 104.91C21.5833 104.772 21.5104 104.66 21.4219 104.574C21.3359 104.488 21.2357 104.426 21.1211 104.387C21.0091 104.345 20.8828 104.324 20.7422 104.324C20.5703 104.324 20.418 104.357 20.2852 104.422C20.1523 104.484 20.0404 104.585 19.9492 104.723C19.8607 104.861 19.793 105.042 19.7461 105.266C19.6992 105.49 19.6758 105.762 19.6758 106.082V107.188C19.6758 107.443 19.6901 107.668 19.7188 107.863C19.75 108.059 19.7956 108.228 19.8555 108.371C19.9154 108.512 19.9883 108.628 20.0742 108.719C20.1602 108.81 20.2591 108.878 20.3711 108.922C20.4857 108.964 20.612 108.984 20.75 108.984C20.9271 108.984 21.082 108.951 21.2148 108.883C21.3477 108.815 21.4583 108.71 21.5469 108.566C21.638 108.421 21.7057 108.234 21.75 108.008C21.7943 107.779 21.8164 107.505 21.8164 107.188Z" fill="#FCF6F6"/>
<path d="M9.14844 155.062V155.469L6.79297 160.75H6.03125L8.38281 155.656H5.30469V155.062H9.14844ZM13.543 157.453V158.32C13.543 158.786 13.5013 159.18 13.418 159.5C13.3346 159.82 13.2148 160.078 13.0586 160.273C12.9023 160.469 12.7135 160.611 12.4922 160.699C12.2734 160.785 12.026 160.828 11.75 160.828C11.5312 160.828 11.3294 160.801 11.1445 160.746C10.9596 160.691 10.793 160.604 10.6445 160.484C10.4987 160.362 10.3737 160.203 10.2695 160.008C10.1654 159.812 10.0859 159.576 10.0312 159.297C9.97656 159.018 9.94922 158.693 9.94922 158.32V157.453C9.94922 156.987 9.99089 156.596 10.0742 156.281C10.1602 155.966 10.2812 155.714 10.4375 155.523C10.5938 155.331 10.7812 155.193 11 155.109C11.2214 155.026 11.4688 154.984 11.7422 154.984C11.9635 154.984 12.1667 155.012 12.3516 155.066C12.5391 155.118 12.7057 155.203 12.8516 155.32C12.9974 155.435 13.1211 155.589 13.2227 155.781C13.3268 155.971 13.4062 156.204 13.4609 156.48C13.5156 156.757 13.543 157.081 13.543 157.453ZM12.8164 158.438V157.332C12.8164 157.077 12.8008 156.853 12.7695 156.66C12.7409 156.465 12.6979 156.298 12.6406 156.16C12.5833 156.022 12.5104 155.91 12.4219 155.824C12.3359 155.738 12.2357 155.676 12.1211 155.637C12.0091 155.595 11.8828 155.574 11.7422 155.574C11.5703 155.574 11.418 155.607 11.2852 155.672C11.1523 155.734 11.0404 155.835 10.9492 155.973C10.8607 156.111 10.793 156.292 10.7461 156.516C10.6992 156.74 10.6758 157.012 10.6758 157.332V158.438C10.6758 158.693 10.6901 158.918 10.7188 159.113C10.75 159.309 10.7956 159.478 10.8555 159.621C10.9154 159.762 10.9883 159.878 11.0742 159.969C11.1602 160.06 11.2591 160.128 11.3711 160.172C11.4857 160.214 11.612 160.234 11.75 160.234C11.9271 160.234 12.082 160.201 12.2148 160.133C12.3477 160.065 12.4583 159.96 12.5469 159.816C12.638 159.671 12.7057 159.484 12.75 159.258C12.7943 159.029 12.8164 158.755 12.8164 158.438ZM18.043 157.453V158.32C18.043 158.786 18.0013 159.18 17.918 159.5C17.8346 159.82 17.7148 160.078 17.5586 160.273C17.4023 160.469 17.2135 160.611 16.9922 160.699C16.7734 160.785 16.526 160.828 16.25 160.828C16.0312 160.828 15.8294 160.801 15.6445 160.746C15.4596 160.691 15.293 160.604 15.1445 160.484C14.9987 160.362 14.8737 160.203 14.7695 160.008C14.6654 159.812 14.5859 159.576 14.5312 159.297C14.4766 159.018 14.4492 158.693 14.4492 158.32V157.453C14.4492 156.987 14.4909 156.596 14.5742 156.281C14.6602 155.966 14.7812 155.714 14.9375 155.523C15.0938 155.331 15.2812 155.193 15.5 155.109C15.7214 155.026 15.9688 154.984 16.2422 154.984C16.4635 154.984 16.6667 155.012 16.8516 155.066C17.0391 155.118 17.2057 155.203 17.3516 155.32C17.4974 155.435 17.6211 155.589 17.7227 155.781C17.8268 155.971 17.9062 156.204 17.9609 156.48C18.0156 156.757 18.043 157.081 18.043 157.453ZM17.3164 158.438V157.332C17.3164 157.077 17.3008 156.853 17.2695 156.66C17.2409 156.465 17.1979 156.298 17.1406 156.16C17.0833 156.022 17.0104 155.91 16.9219 155.824C16.8359 155.738 16.7357 155.676 16.6211 155.637C16.5091 155.595 16.3828 155.574 16.2422 155.574C16.0703 155.574 15.918 155.607 15.7852 155.672C15.6523 155.734 15.5404 155.835 15.4492 155.973C15.3607 156.111 15.293 156.292 15.2461 156.516C15.1992 156.74 15.1758 157.012 15.1758 157.332V158.438C15.1758 158.693 15.1901 158.918 15.2188 159.113C15.25 159.309 15.2956 159.478 15.3555 159.621C15.4154 159.762 15.4883 159.878 15.5742 159.969C15.6602 160.06 15.7591 160.128 15.8711 160.172C15.9857 160.214 16.112 160.234 16.25 160.234C16.4271 160.234 16.582 160.201 16.7148 160.133C16.8477 160.065 16.9583 159.96 17.0469 159.816C17.138 159.671 17.2057 159.484 17.25 159.258C17.2943 159.029 17.3164 158.755 17.3164 158.438ZM22.543 157.453V158.32C22.543 158.786 22.5013 159.18 22.418 159.5C22.3346 159.82 22.2148 160.078 22.0586 160.273C21.9023 160.469 21.7135 160.611 21.4922 160.699C21.2734 160.785 21.026 160.828 20.75 160.828C20.5312 160.828 20.3294 160.801 20.1445 160.746C19.9596 160.691 19.793 160.604 19.6445 160.484C19.4987 160.362 19.3737 160.203 19.2695 160.008C19.1654 159.812 19.0859 159.576 19.0312 159.297C18.9766 159.018 18.9492 158.693 18.9492 158.32V157.453C18.9492 156.987 18.9909 156.596 19.0742 156.281C19.1602 155.966 19.2812 155.714 19.4375 155.523C19.5938 155.331 19.7812 155.193 20 155.109C20.2214 155.026 20.4688 154.984 20.7422 154.984C20.9635 154.984 21.1667 155.012 21.3516 155.066C21.5391 155.118 21.7057 155.203 21.8516 155.32C21.9974 155.435 22.1211 155.589 22.2227 155.781C22.3268 155.971 22.4062 156.204 22.4609 156.48C22.5156 156.757 22.543 157.081 22.543 157.453ZM21.8164 158.438V157.332C21.8164 157.077 21.8008 156.853 21.7695 156.66C21.7409 156.465 21.6979 156.298 21.6406 156.16C21.5833 156.022 21.5104 155.91 21.4219 155.824C21.3359 155.738 21.2357 155.676 21.1211 155.637C21.0091 155.595 20.8828 155.574 20.7422 155.574C20.5703 155.574 20.418 155.607 20.2852 155.672C20.1523 155.734 20.0404 155.835 19.9492 155.973C19.8607 156.111 19.793 156.292 19.7461 156.516C19.6992 156.74 19.6758 157.012 19.6758 157.332V158.438C19.6758 158.693 19.6901 158.918 19.7188 159.113C19.75 159.309 19.7956 159.478 19.8555 159.621C19.9154 159.762 19.9883 159.878 20.0742 159.969C20.1602 160.06 20.2591 160.128 20.3711 160.172C20.4857 160.214 20.612 160.234 20.75 160.234C20.9271 160.234 21.082 160.201 21.2148 160.133C21.3477 160.065 21.4583 159.96 21.5469 159.816C21.638 159.671 21.7057 159.484 21.75 159.258C21.7943 159.029 21.8164 158.755 21.8164 158.438Z" fill="#FCF6F6"/>
<path d="M22.543 208.703V209.57C22.543 210.036 22.5013 210.43 22.418 210.75C22.3346 211.07 22.2148 211.328 22.0586 211.523C21.9023 211.719 21.7135 211.861 21.4922 211.949C21.2734 212.035 21.026 212.078 20.75 212.078C20.5312 212.078 20.3294 212.051 20.1445 211.996C19.9596 211.941 19.793 211.854 19.6445 211.734C19.4987 211.612 19.3737 211.453 19.2695 211.258C19.1654 211.062 19.0859 210.826 19.0312 210.547C18.9766 210.268 18.9492 209.943 18.9492 209.57V208.703C18.9492 208.237 18.9909 207.846 19.0742 207.531C19.1602 207.216 19.2812 206.964 19.4375 206.773C19.5938 206.581 19.7812 206.443 20 206.359C20.2214 206.276 20.4688 206.234 20.7422 206.234C20.9635 206.234 21.1667 206.262 21.3516 206.316C21.5391 206.368 21.7057 206.453 21.8516 206.57C21.9974 206.685 22.1211 206.839 22.2227 207.031C22.3268 207.221 22.4062 207.454 22.4609 207.73C22.5156 208.007 22.543 208.331 22.543 208.703ZM21.8164 209.688V208.582C21.8164 208.327 21.8008 208.103 21.7695 207.91C21.7409 207.715 21.6979 207.548 21.6406 207.41C21.5833 207.272 21.5104 207.16 21.4219 207.074C21.3359 206.988 21.2357 206.926 21.1211 206.887C21.0091 206.845 20.8828 206.824 20.7422 206.824C20.5703 206.824 20.418 206.857 20.2852 206.922C20.1523 206.984 20.0404 207.085 19.9492 207.223C19.8607 207.361 19.793 207.542 19.7461 207.766C19.6992 207.99 19.6758 208.262 19.6758 208.582V209.688C19.6758 209.943 19.6901 210.168 19.7188 210.363C19.75 210.559 19.7956 210.728 19.8555 210.871C19.9154 211.012 19.9883 211.128 20.0742 211.219C20.1602 211.31 20.2591 211.378 20.3711 211.422C20.4857 211.464 20.612 211.484 20.75 211.484C20.9271 211.484 21.082 211.451 21.2148 211.383C21.3477 211.315 21.4583 211.21 21.5469 211.066C21.638 210.921 21.7057 210.734 21.75 210.508C21.7943 210.279 21.8164 210.005 21.8164 209.688Z" fill="#FCF6F6"/>
<line x1="38.5" y1="5.85" x2="294.5" y2="5.85" stroke="#696B6C" stroke-width="0.3"/>
<line x1="38.5" y1="57.1" x2="294.5" y2="57.1" stroke="#696B6C" stroke-width="0.3"/>
<line x1="38.5" y1="108.35" x2="294.5" y2="108.35" stroke="#696B6C" stroke-width="0.3"/>
<line x1="38.5" y1="159.6" x2="294.5" y2="159.6" stroke="#696B6C" stroke-width="0.3" stroke-dasharray="0.6 0.6"/>
<line x1="38.5" y1="210.85" x2="294.5" y2="210.85" stroke="#696B6C" stroke-width="0.3"/>
<path d="M41.293 226.703V227.57C41.293 228.036 41.2513 228.43 41.168 228.75C41.0846 229.07 40.9648 229.328 40.8086 229.523C40.6523 229.719 40.4635 229.861 40.2422 229.949C40.0234 230.035 39.776 230.078 39.5 230.078C39.2812 230.078 39.0794 230.051 38.8945 229.996C38.7096 229.941 38.543 229.854 38.3945 229.734C38.2487 229.612 38.1237 229.453 38.0195 229.258C37.9154 229.062 37.8359 228.826 37.7812 228.547C37.7266 228.268 37.6992 227.943 37.6992 227.57V226.703C37.6992 226.237 37.7409 225.846 37.8242 225.531C37.9102 225.216 38.0312 224.964 38.1875 224.773C38.3438 224.581 38.5312 224.443 38.75 224.359C38.9714 224.276 39.2188 224.234 39.4922 224.234C39.7135 224.234 39.9167 224.262 40.1016 224.316C40.2891 224.368 40.4557 224.453 40.6016 224.57C40.7474 224.685 40.8711 224.839 40.9727 225.031C41.0768 225.221 41.1562 225.454 41.2109 225.73C41.2656 226.007 41.293 226.331 41.293 226.703ZM40.5664 227.688V226.582C40.5664 226.327 40.5508 226.103 40.5195 225.91C40.4909 225.715 40.4479 225.548 40.3906 225.41C40.3333 225.272 40.2604 225.16 40.1719 225.074C40.0859 224.988 39.9857 224.926 39.8711 224.887C39.7591 224.845 39.6328 224.824 39.4922 224.824C39.3203 224.824 39.168 224.857 39.0352 224.922C38.9023 224.984 38.7904 225.085 38.6992 225.223C38.6107 225.361 38.543 225.542 38.4961 225.766C38.4492 225.99 38.4258 226.262 38.4258 226.582V227.688C38.4258 227.943 38.4401 228.168 38.4688 228.363C38.5 228.559 38.5456 228.728 38.6055 228.871C38.6654 229.012 38.7383 229.128 38.8242 229.219C38.9102 229.31 39.0091 229.378 39.1211 229.422C39.2357 229.464 39.362 229.484 39.5 229.484C39.6771 229.484 39.832 229.451 39.9648 229.383C40.0977 229.315 40.2083 229.21 40.2969 229.066C40.388 228.921 40.4557 228.734 40.5 228.508C40.5443 228.279 40.5664 228.005 40.5664 227.688Z" fill="#FCF6F6"/>
<path d="M63.4141 227.293L62.8359 227.145L63.1211 224.312H66.0391V224.98H63.7344L63.5625 226.527C63.6667 226.467 63.7982 226.411 63.957 226.359C64.1185 226.307 64.3034 226.281 64.5117 226.281C64.7747 226.281 65.0104 226.327 65.2188 226.418C65.4271 226.507 65.6042 226.634 65.75 226.801C65.8984 226.967 66.0117 227.168 66.0898 227.402C66.168 227.637 66.207 227.898 66.207 228.188C66.207 228.461 66.1693 228.712 66.0938 228.941C66.0208 229.171 65.9102 229.371 65.7617 229.543C65.6133 229.712 65.4258 229.844 65.1992 229.938C64.9753 230.031 64.7109 230.078 64.4062 230.078C64.1771 230.078 63.9596 230.047 63.7539 229.984C63.5508 229.919 63.3685 229.822 63.207 229.691C63.0482 229.559 62.918 229.395 62.8164 229.199C62.7174 229.001 62.6549 228.77 62.6289 228.504H63.3164C63.3477 228.717 63.4102 228.897 63.5039 229.043C63.5977 229.189 63.7201 229.299 63.8711 229.375C64.0247 229.448 64.2031 229.484 64.4062 229.484C64.5781 229.484 64.7305 229.454 64.8633 229.395C64.9961 229.335 65.1081 229.249 65.1992 229.137C65.2904 229.025 65.3594 228.889 65.4062 228.73C65.4557 228.572 65.4805 228.393 65.4805 228.195C65.4805 228.016 65.4557 227.849 65.4062 227.695C65.3568 227.542 65.2826 227.408 65.1836 227.293C65.0872 227.178 64.9688 227.09 64.8281 227.027C64.6875 226.962 64.526 226.93 64.3438 226.93C64.1016 226.93 63.918 226.962 63.793 227.027C63.6706 227.092 63.5443 227.181 63.4141 227.293Z" fill="#FCF6F6"/>
<path d="M89.4023 224.281V230H88.6797V225.184L87.2227 225.715V225.062L89.2891 224.281H89.4023ZM95.0977 226.703V227.57C95.0977 228.036 95.056 228.43 94.9727 228.75C94.8893 229.07 94.7695 229.328 94.6133 229.523C94.457 229.719 94.2682 229.861 94.0469 229.949C93.8281 230.035 93.5807 230.078 93.3047 230.078C93.0859 230.078 92.8841 230.051 92.6992 229.996C92.5143 229.941 92.3477 229.854 92.1992 229.734C92.0534 229.612 91.9284 229.453 91.8242 229.258C91.7201 229.062 91.6406 228.826 91.5859 228.547C91.5312 228.268 91.5039 227.943 91.5039 227.57V226.703C91.5039 226.237 91.5456 225.846 91.6289 225.531C91.7148 225.216 91.8359 224.964 91.9922 224.773C92.1484 224.581 92.3359 224.443 92.5547 224.359C92.776 224.276 93.0234 224.234 93.2969 224.234C93.5182 224.234 93.7214 224.262 93.9062 224.316C94.0938 224.368 94.2604 224.453 94.4062 224.57C94.5521 224.685 94.6758 224.839 94.7773 225.031C94.8815 225.221 94.9609 225.454 95.0156 225.73C95.0703 226.007 95.0977 226.331 95.0977 226.703ZM94.3711 227.688V226.582C94.3711 226.327 94.3555 226.103 94.3242 225.91C94.2956 225.715 94.2526 225.548 94.1953 225.41C94.138 225.272 94.0651 225.16 93.9766 225.074C93.8906 224.988 93.7904 224.926 93.6758 224.887C93.5638 224.845 93.4375 224.824 93.2969 224.824C93.125 224.824 92.9727 224.857 92.8398 224.922C92.707 224.984 92.5951 225.085 92.5039 225.223C92.4154 225.361 92.3477 225.542 92.3008 225.766C92.2539 225.99 92.2305 226.262 92.2305 226.582V227.688C92.2305 227.943 92.2448 228.168 92.2734 228.363C92.3047 228.559 92.3503 228.728 92.4102 228.871C92.4701 229.012 92.543 229.128 92.6289 229.219C92.7148 229.31 92.8138 229.378 92.9258 229.422C93.0404 229.464 93.1667 229.484 93.3047 229.484C93.4818 229.484 93.6367 229.451 93.7695 229.383C93.9023 229.315 94.013 229.21 94.1016 229.066C94.1927 228.921 94.2604 228.734 94.3047 228.508C94.349 228.279 94.3711 228.005 94.3711 227.688Z" fill="#FCF6F6"/>
<path d="M118.18 224.281V230H117.457V225.184L116 225.715V225.062L118.066 224.281H118.18ZM121.219 227.293L120.641 227.145L120.926 224.312H123.844V224.98H121.539L121.367 226.527C121.471 226.467 121.603 226.411 121.762 226.359C121.923 226.307 122.108 226.281 122.316 226.281C122.579 226.281 122.815 226.327 123.023 226.418C123.232 226.507 123.409 226.634 123.555 226.801C123.703 226.967 123.816 227.168 123.895 227.402C123.973 227.637 124.012 227.898 124.012 228.188C124.012 228.461 123.974 228.712 123.898 228.941C123.826 229.171 123.715 229.371 123.566 229.543C123.418 229.712 123.23 229.844 123.004 229.938C122.78 230.031 122.516 230.078 122.211 230.078C121.982 230.078 121.764 230.047 121.559 229.984C121.355 229.919 121.173 229.822 121.012 229.691C120.853 229.559 120.723 229.395 120.621 229.199C120.522 229.001 120.46 228.77 120.434 228.504H121.121C121.152 228.717 121.215 228.897 121.309 229.043C121.402 229.189 121.525 229.299 121.676 229.375C121.829 229.448 122.008 229.484 122.211 229.484C122.383 229.484 122.535 229.454 122.668 229.395C122.801 229.335 122.913 229.249 123.004 229.137C123.095 229.025 123.164 228.889 123.211 228.73C123.26 228.572 123.285 228.393 123.285 228.195C123.285 228.016 123.26 227.849 123.211 227.695C123.161 227.542 123.087 227.408 122.988 227.293C122.892 227.178 122.773 227.09 122.633 227.027C122.492 226.962 122.331 226.93 122.148 226.93C121.906 226.93 121.723 226.962 121.598 227.027C121.475 227.092 121.349 227.181 121.219 227.293Z" fill="#FCF6F6"/>
<path d="M148.309 229.406V230H144.586V229.48L146.449 227.406C146.678 227.151 146.855 226.935 146.98 226.758C147.108 226.578 147.197 226.418 147.246 226.277C147.298 226.134 147.324 225.988 147.324 225.84C147.324 225.652 147.285 225.483 147.207 225.332C147.132 225.178 147.02 225.056 146.871 224.965C146.723 224.874 146.543 224.828 146.332 224.828C146.079 224.828 145.868 224.878 145.699 224.977C145.533 225.073 145.408 225.208 145.324 225.383C145.241 225.557 145.199 225.758 145.199 225.984H144.477C144.477 225.664 144.547 225.371 144.688 225.105C144.828 224.84 145.036 224.629 145.312 224.473C145.589 224.314 145.928 224.234 146.332 224.234C146.691 224.234 146.999 224.298 147.254 224.426C147.509 224.551 147.704 224.728 147.84 224.957C147.978 225.184 148.047 225.449 148.047 225.754C148.047 225.921 148.018 226.09 147.961 226.262C147.906 226.431 147.829 226.6 147.73 226.77C147.634 226.939 147.521 227.105 147.391 227.27C147.263 227.434 147.126 227.595 146.98 227.754L145.457 229.406H148.309ZM152.652 226.703V227.57C152.652 228.036 152.611 228.43 152.527 228.75C152.444 229.07 152.324 229.328 152.168 229.523C152.012 229.719 151.823 229.861 151.602 229.949C151.383 230.035 151.135 230.078 150.859 230.078C150.641 230.078 150.439 230.051 150.254 229.996C150.069 229.941 149.902 229.854 149.754 229.734C149.608 229.612 149.483 229.453 149.379 229.258C149.275 229.062 149.195 228.826 149.141 228.547C149.086 228.268 149.059 227.943 149.059 227.57V226.703C149.059 226.237 149.1 225.846 149.184 225.531C149.27 225.216 149.391 224.964 149.547 224.773C149.703 224.581 149.891 224.443 150.109 224.359C150.331 224.276 150.578 224.234 150.852 224.234C151.073 224.234 151.276 224.262 151.461 224.316C151.648 224.368 151.815 224.453 151.961 224.57C152.107 224.685 152.23 224.839 152.332 225.031C152.436 225.221 152.516 225.454 152.57 225.73C152.625 226.007 152.652 226.331 152.652 226.703ZM151.926 227.688V226.582C151.926 226.327 151.91 226.103 151.879 225.91C151.85 225.715 151.807 225.548 151.75 225.41C151.693 225.272 151.62 225.16 151.531 225.074C151.445 224.988 151.345 224.926 151.23 224.887C151.118 224.845 150.992 224.824 150.852 224.824C150.68 224.824 150.527 224.857 150.395 224.922C150.262 224.984 150.15 225.085 150.059 225.223C149.97 225.361 149.902 225.542 149.855 225.766C149.809 225.99 149.785 226.262 149.785 226.582V227.688C149.785 227.943 149.799 228.168 149.828 228.363C149.859 228.559 149.905 228.728 149.965 228.871C150.025 229.012 150.098 229.128 150.184 229.219C150.27 229.31 150.368 229.378 150.48 229.422C150.595 229.464 150.721 229.484 150.859 229.484C151.036 229.484 151.191 229.451 151.324 229.383C151.457 229.315 151.568 229.21 151.656 229.066C151.747 228.921 151.815 228.734 151.859 228.508C151.904 228.279 151.926 228.005 151.926 227.688Z" fill="#FCF6F6"/>
<path d="M177.09 229.406V230H173.367V229.48L175.23 227.406C175.46 227.151 175.637 226.935 175.762 226.758C175.889 226.578 175.978 226.418 176.027 226.277C176.079 226.134 176.105 225.988 176.105 225.84C176.105 225.652 176.066 225.483 175.988 225.332C175.913 225.178 175.801 225.056 175.652 224.965C175.504 224.874 175.324 224.828 175.113 224.828C174.861 224.828 174.65 224.878 174.48 224.977C174.314 225.073 174.189 225.208 174.105 225.383C174.022 225.557 173.98 225.758 173.98 225.984H173.258C173.258 225.664 173.328 225.371 173.469 225.105C173.609 224.84 173.818 224.629 174.094 224.473C174.37 224.314 174.71 224.234 175.113 224.234C175.473 224.234 175.78 224.298 176.035 224.426C176.29 224.551 176.486 224.728 176.621 224.957C176.759 225.184 176.828 225.449 176.828 225.754C176.828 225.921 176.799 226.09 176.742 226.262C176.688 226.431 176.611 226.6 176.512 226.77C176.415 226.939 176.302 227.105 176.172 227.27C176.044 227.434 175.908 227.595 175.762 227.754L174.238 229.406H177.09ZM178.777 227.293L178.199 227.145L178.484 224.312H181.402V224.98H179.098L178.926 226.527C179.03 226.467 179.161 226.411 179.32 226.359C179.482 226.307 179.667 226.281 179.875 226.281C180.138 226.281 180.374 226.327 180.582 226.418C180.79 226.507 180.967 226.634 181.113 226.801C181.262 226.967 181.375 227.168 181.453 227.402C181.531 227.637 181.57 227.898 181.57 228.188C181.57 228.461 181.533 228.712 181.457 228.941C181.384 229.171 181.273 229.371 181.125 229.543C180.977 229.712 180.789 229.844 180.562 229.938C180.339 230.031 180.074 230.078 179.77 230.078C179.54 230.078 179.323 230.047 179.117 229.984C178.914 229.919 178.732 229.822 178.57 229.691C178.411 229.559 178.281 229.395 178.18 229.199C178.081 229.001 178.018 228.77 177.992 228.504H178.68C178.711 228.717 178.773 228.897 178.867 229.043C178.961 229.189 179.083 229.299 179.234 229.375C179.388 229.448 179.566 229.484 179.77 229.484C179.941 229.484 180.094 229.454 180.227 229.395C180.359 229.335 180.471 229.249 180.562 229.137C180.654 229.025 180.723 228.889 180.77 228.73C180.819 228.572 180.844 228.393 180.844 228.195C180.844 228.016 180.819 227.849 180.77 227.695C180.72 227.542 180.646 227.408 180.547 227.293C180.451 227.178 180.332 227.09 180.191 227.027C180.051 226.962 179.889 226.93 179.707 226.93C179.465 226.93 179.281 226.962 179.156 227.027C179.034 227.092 178.908 227.181 178.777 227.293Z" fill="#FCF6F6"/>
<path d="M203.195 226.801H203.711C203.964 226.801 204.172 226.759 204.336 226.676C204.503 226.59 204.626 226.474 204.707 226.328C204.79 226.18 204.832 226.013 204.832 225.828C204.832 225.609 204.796 225.426 204.723 225.277C204.65 225.129 204.54 225.017 204.395 224.941C204.249 224.866 204.064 224.828 203.84 224.828C203.637 224.828 203.457 224.868 203.301 224.949C203.147 225.027 203.026 225.139 202.938 225.285C202.852 225.431 202.809 225.603 202.809 225.801H202.086C202.086 225.512 202.159 225.249 202.305 225.012C202.451 224.775 202.655 224.586 202.918 224.445C203.184 224.305 203.491 224.234 203.84 224.234C204.184 224.234 204.484 224.296 204.742 224.418C205 224.538 205.201 224.717 205.344 224.957C205.487 225.194 205.559 225.49 205.559 225.844C205.559 225.987 205.525 226.141 205.457 226.305C205.392 226.466 205.289 226.617 205.148 226.758C205.01 226.898 204.831 227.014 204.609 227.105C204.388 227.194 204.122 227.238 203.812 227.238H203.195V226.801ZM203.195 227.395V226.961H203.812C204.174 226.961 204.474 227.004 204.711 227.09C204.948 227.176 205.134 227.29 205.27 227.434C205.408 227.577 205.504 227.734 205.559 227.906C205.616 228.076 205.645 228.245 205.645 228.414C205.645 228.68 205.599 228.915 205.508 229.121C205.419 229.327 205.293 229.501 205.129 229.645C204.967 229.788 204.777 229.896 204.559 229.969C204.34 230.042 204.102 230.078 203.844 230.078C203.596 230.078 203.363 230.043 203.145 229.973C202.928 229.902 202.737 229.801 202.57 229.668C202.404 229.533 202.273 229.367 202.18 229.172C202.086 228.974 202.039 228.749 202.039 228.496H202.762C202.762 228.694 202.805 228.867 202.891 229.016C202.979 229.164 203.104 229.28 203.266 229.363C203.43 229.444 203.622 229.484 203.844 229.484C204.065 229.484 204.255 229.447 204.414 229.371C204.576 229.293 204.699 229.176 204.785 229.02C204.874 228.863 204.918 228.667 204.918 228.43C204.918 228.193 204.868 227.999 204.77 227.848C204.671 227.694 204.53 227.581 204.348 227.508C204.168 227.432 203.956 227.395 203.711 227.395H203.195ZM207.555 227.293L206.977 227.145L207.262 224.312H210.18V224.98H207.875L207.703 226.527C207.807 226.467 207.939 226.411 208.098 226.359C208.259 226.307 208.444 226.281 208.652 226.281C208.915 226.281 209.151 226.327 209.359 226.418C209.568 226.507 209.745 226.634 209.891 226.801C210.039 226.967 210.152 227.168 210.23 227.402C210.309 227.637 210.348 227.898 210.348 228.188C210.348 228.461 210.31 228.712 210.234 228.941C210.161 229.171 210.051 229.371 209.902 229.543C209.754 229.712 209.566 229.844 209.34 229.938C209.116 230.031 208.852 230.078 208.547 230.078C208.318 230.078 208.1 230.047 207.895 229.984C207.691 229.919 207.509 229.822 207.348 229.691C207.189 229.559 207.059 229.395 206.957 229.199C206.858 229.001 206.796 228.77 206.77 228.504H207.457C207.488 228.717 207.551 228.897 207.645 229.043C207.738 229.189 207.861 229.299 208.012 229.375C208.165 229.448 208.344 229.484 208.547 229.484C208.719 229.484 208.871 229.454 209.004 229.395C209.137 229.335 209.249 229.249 209.34 229.137C209.431 229.025 209.5 228.889 209.547 228.73C209.596 228.572 209.621 228.393 209.621 228.195C209.621 228.016 209.596 227.849 209.547 227.695C209.497 227.542 209.423 227.408 209.324 227.293C209.228 227.178 209.109 227.09 208.969 227.027C208.828 226.962 208.667 226.93 208.484 226.93C208.242 226.93 208.059 226.962 207.934 227.027C207.811 227.092 207.685 227.181 207.555 227.293Z" fill="#FCF6F6"/>
<path d="M234.762 228.086V228.68H230.652V228.254L233.199 224.312H233.789L233.156 225.453L231.473 228.086H234.762ZM233.969 224.312V230H233.246V224.312H233.969ZM238.988 226.703V227.57C238.988 228.036 238.947 228.43 238.863 228.75C238.78 229.07 238.66 229.328 238.504 229.523C238.348 229.719 238.159 229.861 237.938 229.949C237.719 230.035 237.471 230.078 237.195 230.078C236.977 230.078 236.775 230.051 236.59 229.996C236.405 229.941 236.238 229.854 236.09 229.734C235.944 229.612 235.819 229.453 235.715 229.258C235.611 229.062 235.531 228.826 235.477 228.547C235.422 228.268 235.395 227.943 235.395 227.57V226.703C235.395 226.237 235.436 225.846 235.52 225.531C235.605 225.216 235.727 224.964 235.883 224.773C236.039 224.581 236.227 224.443 236.445 224.359C236.667 224.276 236.914 224.234 237.188 224.234C237.409 224.234 237.612 224.262 237.797 224.316C237.984 224.368 238.151 224.453 238.297 224.57C238.443 224.685 238.566 224.839 238.668 225.031C238.772 225.221 238.852 225.454 238.906 225.73C238.961 226.007 238.988 226.331 238.988 226.703ZM238.262 227.688V226.582C238.262 226.327 238.246 226.103 238.215 225.91C238.186 225.715 238.143 225.548 238.086 225.41C238.029 225.272 237.956 225.16 237.867 225.074C237.781 224.988 237.681 224.926 237.566 224.887C237.454 224.845 237.328 224.824 237.188 224.824C237.016 224.824 236.863 224.857 236.73 224.922C236.598 224.984 236.486 225.085 236.395 225.223C236.306 225.361 236.238 225.542 236.191 225.766C236.145 225.99 236.121 226.262 236.121 226.582V227.688C236.121 227.943 236.135 228.168 236.164 228.363C236.195 228.559 236.241 228.728 236.301 228.871C236.361 229.012 236.434 229.128 236.52 229.219C236.605 229.31 236.704 229.378 236.816 229.422C236.931 229.464 237.057 229.484 237.195 229.484C237.372 229.484 237.527 229.451 237.66 229.383C237.793 229.315 237.904 229.21 237.992 229.066C238.083 228.921 238.151 228.734 238.195 228.508C238.24 228.279 238.262 228.005 238.262 227.688Z" fill="#FCF6F6"/>
<path d="M263.539 228.086V228.68H259.43V228.254L261.977 224.312H262.566L261.934 225.453L260.25 228.086H263.539ZM262.746 224.312V230H262.023V224.312H262.746ZM265.109 227.293L264.531 227.145L264.816 224.312H267.734V224.98H265.43L265.258 226.527C265.362 226.467 265.493 226.411 265.652 226.359C265.814 226.307 265.999 226.281 266.207 226.281C266.47 226.281 266.706 226.327 266.914 226.418C267.122 226.507 267.299 226.634 267.445 226.801C267.594 226.967 267.707 227.168 267.785 227.402C267.863 227.637 267.902 227.898 267.902 228.188C267.902 228.461 267.865 228.712 267.789 228.941C267.716 229.171 267.605 229.371 267.457 229.543C267.309 229.712 267.121 229.844 266.895 229.938C266.671 230.031 266.406 230.078 266.102 230.078C265.872 230.078 265.655 230.047 265.449 229.984C265.246 229.919 265.064 229.822 264.902 229.691C264.743 229.559 264.613 229.395 264.512 229.199C264.413 229.001 264.35 228.77 264.324 228.504H265.012C265.043 228.717 265.105 228.897 265.199 229.043C265.293 229.189 265.415 229.299 265.566 229.375C265.72 229.448 265.898 229.484 266.102 229.484C266.273 229.484 266.426 229.454 266.559 229.395C266.691 229.335 266.803 229.249 266.895 229.137C266.986 229.025 267.055 228.889 267.102 228.73C267.151 228.572 267.176 228.393 267.176 228.195C267.176 228.016 267.151 227.849 267.102 227.695C267.052 227.542 266.978 227.408 266.879 227.293C266.783 227.178 266.664 227.09 266.523 227.027C266.383 226.962 266.221 226.93 266.039 226.93C265.797 226.93 265.613 226.962 265.488 227.027C265.366 227.092 265.24 227.181 265.109 227.293Z" fill="#FCF6F6"/>
<path d="M289.387 227.293L288.809 227.145L289.094 224.312H292.012V224.98H289.707L289.535 226.527C289.639 226.467 289.771 226.411 289.93 226.359C290.091 226.307 290.276 226.281 290.484 226.281C290.747 226.281 290.983 226.327 291.191 226.418C291.4 226.507 291.577 226.634 291.723 226.801C291.871 226.967 291.984 227.168 292.062 227.402C292.141 227.637 292.18 227.898 292.18 228.188C292.18 228.461 292.142 228.712 292.066 228.941C291.993 229.171 291.883 229.371 291.734 229.543C291.586 229.712 291.398 229.844 291.172 229.938C290.948 230.031 290.684 230.078 290.379 230.078C290.15 230.078 289.932 230.047 289.727 229.984C289.523 229.919 289.341 229.822 289.18 229.691C289.021 229.559 288.891 229.395 288.789 229.199C288.69 229.001 288.628 228.77 288.602 228.504H289.289C289.32 228.717 289.383 228.897 289.477 229.043C289.57 229.189 289.693 229.299 289.844 229.375C289.997 229.448 290.176 229.484 290.379 229.484C290.551 229.484 290.703 229.454 290.836 229.395C290.969 229.335 291.081 229.249 291.172 229.137C291.263 229.025 291.332 228.889 291.379 228.73C291.428 228.572 291.453 228.393 291.453 228.195C291.453 228.016 291.428 227.849 291.379 227.695C291.329 227.542 291.255 227.408 291.156 227.293C291.06 227.178 290.941 227.09 290.801 227.027C290.66 226.962 290.499 226.93 290.316 226.93C290.074 226.93 289.891 226.962 289.766 227.027C289.643 227.092 289.517 227.181 289.387 227.293ZM296.543 226.703V227.57C296.543 228.036 296.501 228.43 296.418 228.75C296.335 229.07 296.215 229.328 296.059 229.523C295.902 229.719 295.714 229.861 295.492 229.949C295.273 230.035 295.026 230.078 294.75 230.078C294.531 230.078 294.329 230.051 294.145 229.996C293.96 229.941 293.793 229.854 293.645 229.734C293.499 229.612 293.374 229.453 293.27 229.258C293.165 229.062 293.086 228.826 293.031 228.547C292.977 228.268 292.949 227.943 292.949 227.57V226.703C292.949 226.237 292.991 225.846 293.074 225.531C293.16 225.216 293.281 224.964 293.438 224.773C293.594 224.581 293.781 224.443 294 224.359C294.221 224.276 294.469 224.234 294.742 224.234C294.964 224.234 295.167 224.262 295.352 224.316C295.539 224.368 295.706 224.453 295.852 224.57C295.997 224.685 296.121 224.839 296.223 225.031C296.327 225.221 296.406 225.454 296.461 225.73C296.516 226.007 296.543 226.331 296.543 226.703ZM295.816 227.688V226.582C295.816 226.327 295.801 226.103 295.77 225.91C295.741 225.715 295.698 225.548 295.641 225.41C295.583 225.272 295.51 225.16 295.422 225.074C295.336 224.988 295.236 224.926 295.121 224.887C295.009 224.845 294.883 224.824 294.742 224.824C294.57 224.824 294.418 224.857 294.285 224.922C294.152 224.984 294.04 225.085 293.949 225.223C293.861 225.361 293.793 225.542 293.746 225.766C293.699 225.99 293.676 226.262 293.676 226.582V227.688C293.676 227.943 293.69 228.168 293.719 228.363C293.75 228.559 293.796 228.728 293.855 228.871C293.915 229.012 293.988 229.128 294.074 229.219C294.16 229.31 294.259 229.378 294.371 229.422C294.486 229.464 294.612 229.484 294.75 229.484C294.927 229.484 295.082 229.451 295.215 229.383C295.348 229.315 295.458 229.21 295.547 229.066C295.638 228.921 295.706 228.734 295.75 228.508C295.794 228.279 295.816 228.005 295.816 227.688Z" fill="#FCF6F6"/>
</svg>
