<?xml version="1.0" encoding="UTF-8"?><svg id="Layer_2" xmlns="http://www.w3.org/2000/svg" xmlns:xlink="http://www.w3.org/1999/xlink" viewBox="0 0 309.0734 62.0668"><defs><linearGradient id="linear-gradient" x1="0" y1="31.0334" x2="103.4447" y2="31.0334" gradientUnits="userSpaceOnUse"><stop offset=".0765" stop-color="#436731"/><stop offset=".1417" stop-color="#527634"/><stop offset=".2653" stop-color="#698f3b"/><stop offset=".3793" stop-color="#789d3e"/><stop offset=".4737" stop-color="#7da340"/><stop offset=".4841" stop-color="#282a73"/><stop offset=".5448" stop-color="#282e76"/><stop offset=".6108" stop-color="#2b3b82"/><stop offset=".6793" stop-color="#2f5195"/><stop offset=".749" stop-color="#356fb0"/><stop offset=".8147" stop-color="#3d93d0"/></linearGradient><linearGradient id="linear-gradient-2" x1="37.0677" y1="31.0334" x2="80.1696" y2="31.0334" gradientUnits="userSpaceOnUse"><stop offset="0" stop-color="#7da340"/><stop offset=".3567" stop-color="#679d70"/><stop offset="1" stop-color="#3d93d0"/></linearGradient></defs><g id="Components"><g id="_78c7a61b-750e-4658-b92f-95b17fb72392_1"><path d="m0,0h40.8916l7.9573,10.3445h-28.9557l15.9146,20.6889-15.9146,20.6889h28.9557l-7.9573,10.3445H0l23.8718-31.0334L0,0Zm50.6614,0l7.9573,10.3445h16.5777l15.9146,20.6889-15.9146,20.6889h-16.5777l-7.9573,10.3445h28.6462l24.1371-31.0334L79.3076,0h-28.6462Z" style="fill:url(#linear-gradient); stroke-width:0px;"/><polygon points="37.0677 18.3148 70.2774 18.3148 80.1696 31.0334 70.2774 43.752 37.0677 43.752 46.8512 31.0334 37.0677 18.3148" style="fill:url(#linear-gradient-2); stroke-width:0px;"/><path d="m113.7798,8.0492h22.6559c15.366,0,25.9392,8.734,25.9392,22.9842s-10.5732,22.9842-25.9392,22.9842h-22.6559V8.0492Zm21.9993,33.8851c6.5012,0,10.9669-3.8745,10.9669-10.9009s-4.4658-10.9015-10.9669-10.9015h-6.5012v21.8024h6.5012Z" style="fill:#4996cf; stroke-width:0px;"/><path d="m198.686,46.0057h-17.4681l-3.0858,8.012h-15.761l20.0947-45.9685h15.2352l20.096,45.9685h-16.0239l-3.0871-8.012Zm-4.2683-11.1638l-4.4658-11.5575-4.4645,11.5575h8.9303Z" style="fill:#4996cf; stroke-width:0px;"/><path d="m227.9726,20.0665h-13.4614v-12.0173h42.4223v12.0173h-13.4627v33.9512h-15.4981V20.0665Z" style="fill:#4996cf; stroke-width:0px;"/><path d="m289.9624,46.0057h-17.4681l-3.0858,8.012h-15.761l20.0947-45.9685h15.2352l20.096,45.9685h-16.0239l-3.0871-8.012Zm-4.2683-11.1638l-4.4658-11.5575-4.4645,11.5575h8.9303Z" style="fill:#4996cf; stroke-width:0px;"/></g></g></svg>