<svg width="101" height="108" viewBox="0 0 101 108" fill="none" xmlns="http://www.w3.org/2000/svg">
<path d="M66.696 107.176C66.5102 107.176 66.3278 107.126 66.1656 107.034C65.919 106.893 65.7434 106.663 65.6724 106.393L62.8923 96.0221H18.5083C17.9239 96.0221 17.4476 95.5458 17.4476 94.9614V19.8913H1.5607C0.976303 19.8913 0.5 19.415 0.5 18.8306V10.3551C0.5 5.09886 4.77659 0.822266 10.0328 0.822266H62.997C65.5441 0.822266 67.9357 1.81541 69.7362 3.6159C71.5367 5.4164 72.5299 7.81142 72.5299 10.3551V30.522L72.7629 30.8125C84.3834 45.3549 88.4742 67.8425 88.9944 74.5749C89.3795 79.5474 89.3727 83.8814 89.3018 86.6447L89.2646 88.0634L96.4362 86.1413C96.5274 86.1177 96.6186 86.1042 96.7098 86.1042C96.8956 86.1042 97.0781 86.1548 97.2402 86.246C97.4868 86.3879 97.6625 86.6176 97.7334 86.8913L100.459 97.0727C100.534 97.3463 100.497 97.63 100.355 97.8766C100.213 98.1232 99.9832 98.2955 99.7129 98.3698L66.9696 107.143C66.8818 107.166 66.7872 107.18 66.696 107.18V107.176ZM65.2671 96.6876L67.4459 104.822L98.1421 96.5963L95.9633 88.462L65.2671 96.6876ZM19.569 93.9041H67.4729L71.432 92.8434L71.2766 91.8975C69.3174 79.9021 63.4869 72.511 62.8281 71.707L62.7944 71.6664L50.8429 59.7116C49.843 58.7117 49.2924 57.3807 49.2924 55.9653C49.2924 54.5499 49.843 53.2224 50.8429 52.2191C51.8428 51.2192 53.1737 50.6686 54.5891 50.6686C56.0045 50.6686 57.3219 51.2158 58.3185 52.2056L70.4152 63.8328V10.3551C70.4152 8.37555 69.645 6.51426 68.2431 5.11237C66.8412 3.71049 64.98 2.94029 63.0004 2.94029C59.869 2.94029 57.0585 4.92658 56.0113 7.88236L55.5113 9.29438H63.0038C63.5882 9.29438 64.0645 9.77068 64.0645 10.3551C64.0645 10.9395 63.5882 11.4158 63.0038 11.4158H55.589V18.8306C55.589 19.415 55.1127 19.8913 54.5283 19.8913H19.569V93.9041ZM64.4023 70.2848C64.9023 70.8794 71.1314 78.4664 73.3034 91.1442L73.4994 92.2894L87.1128 88.6411L87.1432 87.8607C87.2378 85.4184 87.3257 80.4696 86.8831 74.7405C86.7244 72.6934 85.765 65.5218 83.245 57.0159C80.9547 49.2903 78.009 42.5309 74.4891 36.9233L72.5332 33.8054V66.3258C72.5332 66.7514 72.2799 67.1331 71.888 67.2986C71.7563 67.3561 71.6178 67.3831 71.4725 67.3831C71.1989 67.3831 70.9354 67.2784 70.7395 67.0858L61.0243 57.7456L56.5855 62.4545L57.3118 63.1808C59.1866 65.059 64.024 69.8964 64.4023 70.2814V70.2848ZM54.5891 52.79C53.7412 52.79 52.944 53.121 52.3427 53.7223C51.7414 54.3236 51.4104 55.1208 51.4104 55.9687C51.4104 56.8166 51.7414 57.6138 52.3427 58.2151L55.0857 60.9614L59.4974 56.2829C59.4974 56.2829 56.8659 53.7527 56.822 53.7122C56.2342 53.1244 55.437 52.7934 54.5891 52.7934V52.79ZM10.0328 2.94029C5.94539 2.94029 2.61803 6.26766 2.61803 10.3551V17.7699H53.4642V10.3551C53.4642 8.27421 54.1263 6.29806 55.3762 4.63607L56.6531 2.94029H10.0328Z" fill="#3C597A"/>
</svg>
