<svg width="125" height="119" viewBox="0 0 125 119" fill="none" xmlns="http://www.w3.org/2000/svg">
<path d="M100.353 119C100.087 119 99.8324 118.917 99.6141 118.762L62.5 91.7968L25.3859 118.762C25.1715 118.917 24.9134 119 24.6474 119C24.3814 119 24.1233 118.917 23.9089 118.762C23.4682 118.44 23.2856 117.876 23.4524 117.36L37.6302 73.7289L0.516109 46.7639C0.0754085 46.4423 -0.107224 45.8786 0.0595275 45.3624C0.226279 44.8424 0.706682 44.497 1.25458 44.497H47.1271L61.3049 0.865483C61.4717 0.345399 61.9521 0 62.5 0C63.0479 0 63.5243 0.34937 63.695 0.865483L77.8689 44.493H123.745C124.289 44.493 124.77 44.8424 124.94 45.3585C125.111 45.8786 124.925 46.4423 124.484 46.7599L87.3698 73.7249L101.548 117.356C101.714 117.876 101.532 118.44 101.091 118.758C100.877 118.913 100.619 118.996 100.353 118.996V119ZM39.8456 72.2321C40.2863 72.5537 40.4689 73.1175 40.3022 73.6336L27.0375 114.458L61.7655 89.2282C61.9799 89.0733 62.2379 88.99 62.5039 88.99C62.7699 88.99 63.024 89.0733 63.2424 89.2282L97.9704 114.458L84.7057 73.6336C84.5389 73.1135 84.7216 72.5497 85.1623 72.2321L119.89 47.0021H76.9637C76.4197 47.0021 75.9393 46.6527 75.7686 46.1366L62.5 5.31597L49.2353 46.1366C49.0686 46.6567 48.5881 47.0021 48.0402 47.0021H5.11765L39.8456 72.2321Z" fill="#48637B"/>
<path d="M79.7071 54.327C79.0163 54.327 78.4525 53.7592 78.4565 53.0684C78.4565 52.3776 79.0203 51.8178 79.7111 51.8178L92.9639 51.8536C93.2974 51.8536 93.615 51.9846 93.8492 52.2228C94.0874 52.461 94.2145 52.7746 94.2145 53.1121C94.2145 53.8029 93.6507 54.3627 92.9599 54.3627L79.7071 54.327Z" fill="#48637B"/>
<path d="M99.9039 54.8748C98.7922 54.8748 98.7327 53.8307 98.7327 53.6203C98.7327 53.4099 98.7883 52.3657 99.9039 52.3657C100.368 52.3657 100.69 52.5325 100.889 52.8779C101.139 53.3066 101.135 53.9299 100.889 54.3627C100.69 54.7081 100.368 54.8748 99.9079 54.8748H99.9039Z" fill="#48637B"/>
</svg>
