<svg width="108" height="84" viewBox="0 0 108 84" fill="none" xmlns="http://www.w3.org/2000/svg">
<g clip-path="url(#clip0_3310_39100)">
<path d="M72.0693 75.3843C71.4759 75.3843 70.9922 74.9001 70.9922 74.306V65.6897C70.9922 65.0955 71.4759 64.6113 72.0693 64.6113H89.2792C89.8726 64.6113 90.3563 65.0955 90.3563 65.6897V74.306C90.3563 74.9001 89.8726 75.3843 89.2792 75.3843H72.0693ZM73.1464 73.2311H88.2055V66.768H73.1464V73.2311Z" fill="#3C597A"/>
<path d="M40.874 66.768C40.2806 66.768 39.7969 66.2838 39.7969 65.6897C39.7969 65.0955 40.2806 64.6113 40.874 64.6113H46.2527C46.8462 64.6113 47.3298 65.0955 47.3298 65.6897C47.3298 66.2838 46.8462 66.768 46.2527 66.768H40.874Z" fill="#3C597A"/>
<path d="M29.2607 75.3832C28.6673 75.3832 28.1836 74.899 28.1836 74.3049C28.1836 73.7108 28.6673 73.2266 29.2607 73.2266H46.2579C46.8514 73.2266 47.335 73.7108 47.335 74.3049C47.335 74.899 46.8514 75.3832 46.2579 75.3832H29.2607Z" fill="#3C597A"/>
<path d="M9.67868 75.3832C9.08524 75.3832 8.60156 74.899 8.60156 74.3049C8.60156 73.7108 9.08524 73.2266 9.67868 73.2266H20.6523C21.2457 73.2266 21.7294 73.7108 21.7294 74.3049C21.7294 74.899 21.2457 75.3832 20.6523 75.3832H9.67868Z" fill="#3C597A"/>
<path d="M75.7295 58.1547C75.136 58.1547 74.6523 57.6705 74.6523 57.0764C74.6523 56.4823 75.136 55.998 75.7295 55.998H89.2826C89.8761 55.998 90.3598 56.4823 90.3598 57.0764C90.3598 57.6705 89.8761 58.1547 89.2826 58.1547H75.7295Z" fill="#3C597A"/>
<path d="M53.5693 58.1547C52.9759 58.1547 52.4922 57.6705 52.4922 57.0764C52.4922 56.4823 52.9759 55.998 53.5693 55.998H67.1225C67.7159 55.998 68.1996 56.4823 68.1996 57.0764C68.1996 57.6705 67.7159 58.1547 67.1225 58.1547H53.5693Z" fill="#3C597A"/>
<path d="M9.67868 58.1547C9.08524 58.1547 8.60156 57.6705 8.60156 57.0764C8.60156 56.4823 9.08524 55.998 9.67868 55.998H22.8031C23.3965 55.998 23.8802 56.4823 23.8802 57.0764C23.8802 57.6705 23.3965 58.1547 22.8031 58.1547H9.67868Z" fill="#3C597A"/>
<path d="M31.4131 58.1547C30.8196 58.1547 30.3359 57.6705 30.3359 57.0764C30.3359 56.4823 30.8196 55.998 31.4131 55.998H44.9662C45.5597 55.998 46.0433 56.4823 46.0433 57.0764C46.0433 57.6705 45.5597 58.1547 44.9662 58.1547H31.4131Z" fill="#3C597A"/>
<path d="M9.67868 47.3843C9.08524 47.3843 8.60156 46.9001 8.60156 46.306V37.6897C8.60156 37.0955 9.08524 36.6113 9.67868 36.6113H18.2853C18.8788 36.6113 19.3625 37.0955 19.3625 37.6897V46.306C19.3625 46.9001 18.8788 47.3843 18.2853 47.3843H9.67868ZM10.7558 45.2311H17.2116V38.768H10.7558V45.2311Z" fill="#3C597A"/>
<path d="M9.68035 84C4.34278 84 0 79.6523 0 74.3088V37.6935C0 32.9132 3.42002 28.8883 8.13327 28.1259L9.03888 27.9783V9.69125C9.03545 4.34767 13.3782 0 18.7158 0H98.3162C103.654 0 107.997 4.34767 107.997 9.69125V46.3065C107.997 51.0868 104.577 55.1117 99.8633 55.8741L98.9577 56.0218V74.3088C98.9577 79.6523 94.6149 84 89.2774 84H9.68035ZM9.68035 30.1555C5.52967 30.1555 2.15081 33.5382 2.15081 37.6935V74.3088C2.15081 78.4641 5.52967 81.8468 9.68035 81.8468H89.2808C93.4314 81.8468 96.8103 78.4641 96.8103 74.3088V37.6935C96.8103 33.5382 93.4314 30.1555 89.2808 30.1555H9.68035ZM11.1863 28.0023H89.2808C94.6183 28.0023 98.9611 32.35 98.9611 37.6935V53.9509L100.323 53.5732C103.575 52.67 105.846 49.6857 105.846 46.3099V21.5392H11.1863V28.0023ZM11.1863 19.3859H105.846V12.9228H11.1863V19.3859ZM18.7158 2.15323C14.5651 2.15323 11.1863 5.53589 11.1863 9.69125V10.7696H105.846V9.69125C105.846 5.53589 102.467 2.15323 98.3162 2.15323H18.7158Z" fill="#3C597A"/>
<path d="M26.8935 43.0746C26.3001 43.0746 25.8164 42.5904 25.8164 41.9963C25.8164 41.4022 26.3001 40.918 26.8935 40.918H33.1333C33.7267 40.918 34.2104 41.4022 34.2104 41.9963C34.2104 42.5904 33.7267 43.0746 33.1333 43.0746H26.8935Z" fill="#3C597A"/>
<path d="M41.7373 43.0746C41.1438 43.0746 40.6602 42.5904 40.6602 41.9963C40.6602 41.4022 41.1438 40.918 41.7373 40.918H44.1042C44.6976 40.918 45.1813 41.4022 45.1813 41.9963C45.1813 42.5904 44.6976 43.0746 44.1042 43.0746H41.7373Z" fill="#3C597A"/>
</g>
<defs>
<clipPath id="clip0_3310_39100">
<rect width="108" height="84" fill="white"/>
</clipPath>
</defs>
</svg>
