<svg width="97" height="97" viewBox="0 0 97 97" fill="none" xmlns="http://www.w3.org/2000/svg">
<path d="M1.4622 96.4777C1.42866 96.4777 1.39817 96.4777 1.36463 96.4716L1.26706 96.4564L1.17558 96.432L1.08715 96.4015L1.01093 96.3649L0.931647 96.3161L0.849319 96.2551L0.80968 96.2155C0.800533 96.2063 0.791385 96.2002 0.785287 96.1911L0.721254 96.1209L0.690763 96.0783L0.666369 96.0478L0.617583 95.9654L0.580993 95.8862L0.55355 95.8069L0.529157 95.7123C0.523058 95.691 0.523058 95.6758 0.520009 95.6575L0.510862 95.6026C0.510862 95.5782 0.507812 95.5477 0.507812 95.5172V30.762C0.507812 30.2315 0.937745 29.8015 1.4683 29.8015H36.238L36.0703 28.7008C35.8843 27.4781 35.7897 26.231 35.7897 24.9961C35.7836 11.5035 46.7637 0.523438 60.2593 0.523438C73.7549 0.523438 84.735 11.5035 84.735 24.9991C84.735 26.234 84.6405 27.4811 84.4545 28.7038L84.2868 29.8046H95.5412C96.0718 29.8046 96.5017 30.2345 96.5017 30.7651V95.5203C96.5017 96.0508 96.0718 96.4808 95.5412 96.4808H1.4622V96.4777ZM56.6278 94.5567H94.5808V84.6378L80.5637 70.6208L56.6278 94.5567ZM3.77957 94.5567H53.9109L94.5808 53.8869V31.7195H83.8019L83.5824 32.3689C82.6676 35.0583 81.1248 37.8117 79.9844 39.4888L61.0551 67.5868C60.8752 67.8521 60.5795 68.0107 60.2593 68.0107C59.9391 68.0107 59.6403 67.8521 59.4635 67.5868L47.9254 50.4597L25.572 72.7918L3.77957 94.5598V94.5567ZM2.41964 93.1998L23.5138 72.127L2.41964 51.039V93.2059V93.1998ZM81.9206 69.2608L94.5808 81.921V56.6007L81.9206 69.2608ZM2.91056 48.8131L24.8707 70.7732L41.574 54.0882L19.6048 32.1189L2.91056 48.8131ZM60.2593 2.44136C54.2433 2.44136 48.581 4.78922 44.3183 9.05501C40.0525 13.3208 37.7046 18.98 37.7046 24.9961C37.7046 26.8713 37.9333 28.7313 38.3876 30.5242C39.1011 33.3569 40.3452 35.9914 42.0832 38.3545C42.0832 38.3545 42.1168 38.3972 42.1229 38.4093L48.8798 48.4411L60.2563 65.3274L78.4171 38.3697C79.7953 36.3329 81.4754 33.116 82.1279 30.5242C82.5823 28.7313 82.811 26.8713 82.811 24.993C82.811 12.5555 72.6938 2.43831 60.2563 2.43831L60.2593 2.44136ZM21.9221 31.7225L42.9339 52.7343L46.8338 48.8405L40.5525 39.5162L40.5403 39.5009C38.9456 37.336 37.729 34.9455 36.924 32.3933L36.7136 31.7256H21.9221V31.7225ZM2.41964 46.5872L17.2874 31.7195H2.41964V46.5872Z" fill="#3C597A"/>
</svg>
