<svg width="107" height="107" viewBox="0 0 107 107" fill="none" xmlns="http://www.w3.org/2000/svg">
<path d="M100 103C99.5435 103 99.1377 102.705 98.9923 102.263L93.0541 84.1775C93.0169 84.0677 93 83.9546 93 83.8379V11.0996C93 7.18625 96.1382 4 100 4C103.862 4 107 7.18282 107 11.0996V44.334C107 44.9273 106.523 45.4109 105.938 45.4109C105.353 45.4109 104.876 44.9273 104.876 44.334V16.3163H95.1203V82.7644H104.876V61.5411C104.876 60.9477 105.353 60.4641 105.938 60.4641C106.523 60.4641 107 60.9477 107 61.5411V83.8414C107 83.958 106.983 84.0712 106.946 84.1809L101.008 102.266C100.862 102.705 100.46 103 100 103ZM100 98.5207L104.467 84.9149H95.5328L100 98.5207ZM100 6.15046C97.3116 6.15046 95.1237 8.36951 95.1237 11.0962V14.1624H104.88V11.0962C104.88 8.36951 102.692 6.15046 100.003 6.15046H100Z" fill="#48637B"/>
<path d="M106 54C105.742 54 105.478 53.8917 105.293 53.707C105.111 53.5255 105 53.2611 105 53C105 52.7389 105.108 52.4777 105.293 52.293C105.478 52.1083 105.739 52 106 52C106.261 52 106.522 52.1083 106.707 52.293C106.892 52.4777 107 52.7389 107 53C107 53.2611 106.892 53.5223 106.707 53.707C106.522 53.8885 106.261 54 106 54Z" fill="#48637B"/>
<path d="M6.18332 107C2.77383 107 0 104.227 0 100.818V6.18197C0 2.77322 2.77383 0 6.18332 0H77.8167C81.2262 0 84 2.77322 84 6.18197V100.818C84 104.227 81.2262 107 77.8167 107H6.18332ZM6.18332 2.13089C3.94998 2.13089 2.13136 3.94912 2.13136 6.18197V100.818C2.13136 103.051 3.94998 104.869 6.18332 104.869H77.8167C80.05 104.869 81.8686 103.051 81.8686 100.818V6.18197C81.8686 3.94912 80.05 2.13089 77.8167 2.13089H59.09V8.52697H70.1411C73.0815 8.52697 75.4712 10.9161 75.4712 13.8559V83.9816C75.4712 84.2671 75.359 84.5356 75.1584 84.7361L61.7278 98.1638C61.5273 98.3643 61.2587 98.4764 60.9732 98.4764H41.1893C40.6012 98.4764 40.1219 97.9972 40.1219 97.4093C40.1219 96.8213 40.6012 96.3421 41.1893 96.3421H59.9058V88.2434C59.9058 85.3036 62.2955 82.9145 65.2359 82.9145H73.3364V13.8559C73.3364 12.092 71.9019 10.6579 70.1377 10.6579H59.0866V11.8847C59.0866 14.9706 56.5745 17.4788 53.4913 17.4788H30.5019C27.4153 17.4788 24.9066 14.9672 24.9066 11.8847V10.6579H13.8555C12.0913 10.6579 10.6568 12.092 10.6568 13.8559V93.1475C10.6568 94.9113 12.0913 96.3455 13.8555 96.3455H24.1316C24.7197 96.3455 25.199 96.8247 25.199 97.4127C25.199 98.0006 24.7197 98.4798 24.1316 98.4798H13.8555C10.9151 98.4798 8.52543 96.0907 8.52543 93.1509V13.8559C8.52543 10.9161 10.9151 8.52697 13.8555 8.52697H24.9066V2.13089H6.18332ZM65.2393 85.0454C63.475 85.0454 62.0405 86.4795 62.0405 88.2434V94.8366L71.8339 85.0454H65.2393ZM27.0414 11.8813C27.0414 13.7913 28.5949 15.3445 30.5053 15.3445H53.4947C55.4051 15.3445 56.9586 13.7913 56.9586 11.8813V2.13089H27.0414V11.8813Z" fill="#48637B"/>
<path d="M21.6418 58C21.3507 58 21.0804 57.8905 20.8725 57.6948L17.3171 54.2906C16.8943 53.8859 16.8943 53.2256 17.3171 52.8208C17.5215 52.6251 17.7953 52.5156 18.0864 52.5156C18.3775 52.5156 18.6478 52.6251 18.8557 52.8208L21.6418 55.4884L29.1443 48.3052C29.3488 48.1095 29.6225 48 29.9136 48C30.2047 48 30.475 48.1095 30.6829 48.3052C31.1057 48.71 31.1057 49.3703 30.6829 49.7784L22.4146 57.6948C22.2101 57.8905 21.9364 58 21.6453 58H21.6418Z" fill="#48637B"/>
<path d="M40.0705 58C39.4807 58 39 57.551 39 57C39 56.449 39.4807 56 40.0705 56H50.9295C51.5193 56 52 56.449 52 57C52 57.551 51.5193 58 50.9295 58H40.0705Z" fill="#48637B"/>
<path d="M40.032 50C39.4634 50 39 49.551 39 49C39 48.449 39.4634 48 40.032 48H60.968C61.5366 48 62 48.449 62 49C62 49.551 61.5366 50 60.968 50H40.032Z" fill="#48637B"/>
<path d="M21.6413 78C21.3502 78 21.0799 77.8905 20.872 77.6949L17.317 74.2919C16.8943 73.8872 16.8943 73.2272 17.317 72.8192C17.5215 72.6236 17.7952 72.5141 18.0863 72.5141C18.3773 72.5141 18.651 72.6236 18.8555 72.8192L21.6413 75.4859L29.1428 68.3051C29.3472 68.1095 29.621 68 29.912 68C30.2031 68 30.4733 68.1095 30.6812 68.3051C30.8857 68.5008 31 68.7628 31 69.0415C31 69.3201 30.8857 69.5821 30.6812 69.7778L22.4139 77.6915C22.2095 77.8872 21.9358 77.9967 21.6447 77.9967L21.6413 78Z" fill="#48637B"/>
<path d="M40.0705 78C39.4807 78 39 77.551 39 77C39 76.449 39.4807 76 40.0705 76H50.9295C51.5193 76 52 76.449 52 77C52 77.551 51.5193 78 50.9295 78H40.0705Z" fill="#48637B"/>
<path d="M40.032 70C39.4634 70 39 69.3264 39 68.5C39 67.6736 39.4634 67 40.032 67H60.968C61.5366 67 62 67.6736 62 68.5C62 69.3264 61.5366 70 60.968 70H40.032Z" fill="#48637B"/>
<path d="M21.643 38C21.3554 38 21.0782 37.8905 20.8738 37.6949L17.3188 34.2919C17.1143 34.0962 17 33.8342 17 33.5556C17 33.277 17.1143 33.0149 17.3188 32.8192C17.5232 32.6236 17.7969 32.5141 18.088 32.5141C18.379 32.5141 18.6493 32.6236 18.8572 32.8192L21.643 35.4859L29.1445 28.3051C29.349 28.1095 29.6227 28 29.9137 28C30.2048 28 30.4751 28.1095 30.683 28.3051C31.1057 28.7098 31.1057 29.3698 30.683 29.7778L22.4157 37.6915C22.2147 37.8839 21.934 37.9967 21.6465 37.9967L21.643 38Z" fill="#48637B"/>
<path d="M40.0705 38C39.4807 38 39 37.551 39 37C39 36.449 39.4807 36 40.0705 36H50.9295C51.5193 36 52 36.449 52 37C52 37.551 51.5193 38 50.9295 38H40.0705Z" fill="#48637B"/>
<path d="M40.032 30C39.4634 30 39 29.551 39 29C39 28.449 39.4634 28 40.032 28H60.968C61.5366 28 62 28.449 62 29C62 29.551 61.5366 30 60.968 30H40.032Z" fill="#48637B"/>
</svg>
