<svg width="63" height="67" viewBox="0 0 63 67" fill="none" xmlns="http://www.w3.org/2000/svg">
<g clip-path="url(#clip0_1977_34681)">
<mask id="mask0_1977_34681" style="mask-type:luminance" maskUnits="userSpaceOnUse" x="7" y="0" width="49" height="67">
<path d="M56 0.199219H7V66.1992H56V0.199219Z" fill="white"/>
</mask>
<g mask="url(#mask0_1977_34681)">
<path d="M53.9318 62.9919C53.9318 63.6249 53.4215 64.1383 52.7922 64.1383H10.204C9.57471 64.1383 9.06437 63.6249 9.06437 62.9919C9.06437 62.359 9.57471 61.8456 10.204 61.8456H52.796C53.4253 61.8456 53.9356 62.359 53.9356 62.9919H53.9318ZM50.7623 47.6228V59.7807H12.2415V47.6228H50.7623ZM9.06437 44.4155C9.06437 43.7825 9.57471 43.2691 10.204 43.2691H15.0042C15.5721 43.2691 16.0287 42.806 16.0287 42.2386C16.0287 41.6712 15.5683 41.2081 15.0042 41.2081H12.2415V29.0502H50.7623V41.2081H18.3003C17.7324 41.2081 17.2758 41.6712 17.2758 42.2386C17.2758 42.806 17.7363 43.2691 18.3003 43.2691H52.796C53.4253 43.2691 53.9356 43.7825 53.9356 44.4155C53.9356 45.0484 53.4253 45.5618 52.796 45.5618H10.204C9.57471 45.5618 9.06437 45.0484 9.06437 44.4155ZM9.06437 25.8351C9.06437 25.2021 9.57471 24.6888 10.204 24.6888H52.7922C53.4215 24.6888 53.9318 25.2021 53.9318 25.8351C53.9318 26.4681 53.4215 26.9814 52.7922 26.9814H10.204C9.57471 26.9814 9.06437 26.4681 9.06437 25.8351ZM9.06437 7.25861C9.06437 6.62563 9.57471 6.11229 10.204 6.11229H52.7922C53.4215 6.11229 53.9318 6.62563 53.9318 7.25861C53.9318 7.89159 53.4215 8.40493 52.7922 8.40493H48.9781C48.4102 8.40493 47.9536 8.86808 47.9536 9.43545C47.9536 10.0028 48.414 10.466 48.9781 10.466H50.7547V22.6239H12.2415V10.466H45.6973C46.2652 10.466 46.7218 10.0028 46.7218 9.43545C46.7218 8.86808 46.2614 8.40493 45.6973 8.40493H10.204C9.57471 8.40493 9.06437 7.89159 9.06437 7.25861ZM16.5314 2.26036H21.063V4.04738H16.5314V2.26036ZM55.9271 62.934C55.8964 61.2126 54.5227 59.8232 52.8114 59.7846V47.6228C54.5726 47.6228 56 46.187 56 44.4155C56 42.6439 54.5726 41.2081 52.8114 41.2081V29.0463C54.5649 29.0348 55.9847 27.6028 55.9847 25.839C55.9847 24.0751 54.5649 22.6393 52.8114 22.6316V10.4698C54.5726 10.4274 55.9693 8.96072 55.9271 7.18914C55.8887 5.46773 54.5074 4.08598 52.796 4.0551H23.1121V2.01335C23.1121 1.0137 22.3063 0.207031 21.3163 0.207031H16.2782C15.2843 0.207031 14.4824 1.01756 14.4824 2.01335V4.0551H10.2078C8.44276 4.08212 7.04221 5.54493 7.07291 7.31651C7.1036 9.03791 8.47729 10.4274 10.1886 10.466V22.6277C8.42741 22.6277 7 24.0635 7 25.8351C7 27.6067 8.42741 29.0425 10.1886 29.0425V41.2042C8.42741 41.2042 7 42.6439 7 44.4155C7 46.1832 8.42741 47.619 10.1848 47.619V59.7807C8.42357 59.8232 7.02686 61.2898 7.06907 63.0614C7.10744 64.7828 8.4888 66.1646 10.2002 66.1955H52.7883C54.5496 66.1646 55.954 64.7018 55.9194 62.9302L55.9271 62.934Z" fill="#1F2D38"/>
</g>
</g>
<rect x="59.8662" y="1.4559" width="4.05092" height="84.3039" rx="2.02546" transform="rotate(45 59.8662 1.4559)" fill="#1F2D38"/>
<rect x="59.8662" y="1.4559" width="4.05092" height="84.3039" rx="2.02546" transform="rotate(45 59.8662 1.4559)" stroke="#47627A" stroke-width="2"/>
<defs>
<clipPath id="clip0_1977_34681">
<rect width="49" height="66" fill="white" transform="translate(7 0.199219)"/>
</clipPath>
</defs>
</svg>
