<svg width="104" height="66" viewBox="0 0 104 66" fill="none" xmlns="http://www.w3.org/2000/svg">
<path d="M101.014 8.69904C101.339 7.87893 102.314 6.89413 102.314 6.89413L103.858 4.51404C103.533 4.51404 102.314 3.4473 101.745 2.4625C101.177 1.47769 100.607 0.575658 100.039 0.411805C99.4702 0.247107 99.0637 0.493731 98.1695 0.657584C97.2753 0.822281 96.9508 1.80624 96.9508 2.87382C96.9508 3.9414 96.8696 5.91017 96.382 7.55038C95.8943 9.19144 90.8554 9.02844 89.8801 9.52084C88.9048 10.0132 89.2302 10.4229 88.5802 10.998C88.351 11.1999 88.2247 11.2379 88.1545 11.1898C88.0265 11.3747 87.2201 12.5352 86.5484 13.2134C85.8174 13.9525 85.2477 14.1982 84.6798 14.1982C84.1118 14.1982 84.3753 14.1729 84.2122 13.5158C84.1311 14.5825 84.111 14.1982 84.111 14.1982C84.111 14.1982 83.8776 15.0108 83.5614 15.3655C83.625 15.3545 83.6768 15.3478 83.7044 15.3478C83.9479 15.3478 84.4355 16.1679 84.4355 16.4145C84.4355 16.6611 85.0043 16.6603 84.6789 17.3993C84.3535 18.1383 83.8659 19.2861 82.9725 19.7785C82.0784 20.2709 80.8588 21.5843 80.0466 21.5843C79.2344 21.5843 77.6894 21.6654 77.6894 21.6654L77.2017 21.173C77.4451 20.5986 77.5263 20.189 77.9328 19.6147C78.3393 19.0395 78.6639 18.4652 78.7459 18.1375C78.7676 18.0488 78.8328 17.9162 78.9198 17.7692C78.8897 17.7844 78.8588 17.8022 78.8278 17.8089C78.4213 17.8908 78.0148 17.3984 77.8525 16.9888C77.7078 16.6239 77.5706 16.1375 77.5405 15.7439C77.3004 15.8047 77.0696 15.8393 76.9583 15.8393C76.7141 15.8393 76.3084 16.2498 75.9019 16.4136C75.4953 16.5783 75.4953 16.2489 75.4953 15.9212C75.4953 15.5935 75.9019 14.9364 76.0641 14.526C76.2264 14.1155 75.6576 13.1307 75.0077 12.5563C74.3569 11.982 72.8948 12.5563 72.2448 12.5563C71.5949 12.5563 71.6752 13.0487 71.594 13.2954C71.5129 13.5411 70.9441 14.5268 70.7818 15.0192C70.6187 15.5116 70.6187 17.0699 70.6999 17.9736C70.7818 18.8765 71.2695 20.1071 71.3498 21.3377C71.4309 22.5691 70.9433 23.1426 70.5376 23.5539C70.1311 23.9644 69.4811 23.1434 69.0746 22.4872C68.6681 21.8301 68.6681 20.4356 68.5869 19.3689C68.5058 18.3022 68.5869 17.4821 68.7492 16.5783C68.9115 15.6755 68.9926 15.5124 69.1557 14.6915C69.318 13.8714 68.9935 13.9533 68.9935 13.9533C68.9935 13.9533 68.5869 14.8562 68.0181 15.4305C67.4493 16.0049 68.0181 15.4305 68.0181 14.8562C68.0181 14.2819 68.5869 13.6248 68.7492 13.0504C68.9115 12.4769 69.7245 12.3942 70.3745 12.3122C71.0244 12.2303 71.6752 11.5732 72.1628 11.5732C72.6505 11.5732 74.6823 11.4094 74.8446 11.0808C75.0068 10.7531 74.1135 10.9989 73.6258 10.9989C73.1382 10.9989 73.2193 10.096 73.2193 10.096C73.2193 10.096 72.244 10.096 72.0809 9.85023C71.9178 9.60361 71.3498 9.85023 70.9433 10.0149C70.5368 10.1788 69.8057 10.5073 68.5869 10.835C67.3682 11.1627 67.2862 10.4246 66.9608 10.3426C66.6355 10.2607 66.8797 9.76831 66.9608 9.52253C67.042 9.2759 66.4732 8.53688 66.0675 8.61965C65.661 8.70158 64.1988 10.3435 63.3858 11.0817C62.5727 11.8207 62.2482 11.3283 61.9228 10.9178C61.5974 10.5073 61.0286 11.1636 60.5409 11.0817C60.0533 10.9997 60.5409 10.754 60.9466 10.1788C61.3531 9.60445 62.0842 8.70158 62.4907 8.29194C62.8973 7.88147 63.3849 7.88147 64.0349 7.47099C64.0349 7.47099 64.0508 7.41356 64.0767 7.32065C63.6225 7.42116 62.6781 7.34599 61.5974 7.22521C60.1344 7.06051 58.1035 6.48618 58.1035 6.48618C58.1035 6.48618 56.965 6.48618 56.3971 6.56811C55.8283 6.65004 55.3406 6.32233 54.8529 5.91185C54.3653 5.50138 54.203 5.33752 53.7154 5.5833C53.2277 5.82993 52.9843 6.56811 52.9843 6.56811C52.9843 6.56811 25.1892 5.66523 24.377 5.5833C23.5648 5.50138 7.47282 3.36791 7.47282 3.36791L7.14743 4.68042C7.14743 4.68042 5.60331 4.18802 4.3026 3.53177C4.3026 3.53177 3.97721 4.27079 3.97721 5.748C3.97721 7.22521 4.14032 9.03097 3.48955 10.8359C2.83961 12.6408 2.67734 14.6104 2.18968 15.7591C1.70202 16.9077 1.05124 16.0876 0.888968 17.4001C0.726693 18.7126 1.37663 20.6823 0.401307 22.488C-0.574016 24.2929 0.563582 24.6215 0.401307 26.0987C0.239032 27.5759 1.21352 29.3808 1.37663 30.0371C1.53891 30.6933 2.35195 29.8724 2.51423 30.6933C2.6765 31.5134 2.6765 32.0058 2.6765 32.9906C2.6765 33.9755 3.16417 34.7956 3.16417 35.6165C3.16417 36.4375 3.97721 36.9299 4.13949 37.9147C4.30176 38.8995 3.16416 39.2272 4.30176 39.7196C5.43936 40.212 6.41468 40.8683 6.90235 41.3607C7.39001 41.8531 8.68988 42.1808 9.34065 43.1656C9.99059 44.1504 10.4783 45.9553 10.4783 45.9553L10.6405 46.9401C10.6405 46.9401 15.5171 45.9544 15.8417 46.6124C16.1671 47.2686 16.3294 47.9249 17.7923 48.582C19.2553 49.2391 21.0429 49.7307 21.8559 50.2231C22.669 50.7155 23.3189 51.2079 24.9442 51.2079C26.5694 51.2079 29.0077 51.3717 29.0077 51.3717L29.3331 50.5516C29.3331 50.5516 31.1215 50.3869 32.4213 51.044C33.7212 51.7003 35.185 53.8346 35.835 54.327C36.4849 54.8194 36.4849 55.9672 37.6225 56.6243C38.7601 57.2806 39.2478 58.7569 39.8977 57.9368C40.5485 57.1167 40.2231 56.7882 41.3607 56.4596C42.4983 56.1319 42.6606 54.8194 43.799 56.1319C44.9366 57.4444 44.6121 57.6091 45.5874 58.5939C46.5627 59.5787 46.8872 60.0711 47.3749 60.5635C47.8626 61.0559 48.0248 60.3988 48.188 61.876C48.3502 63.3541 48.0257 63.3541 49.1633 64.1742C50.3009 64.9952 52.7392 65.159 52.7392 65.159C52.8948 64.6894 52.9793 64.2916 53.0286 63.9436C53.1348 63.1995 53.0637 62.7054 53.0637 62.3693C53.0637 61.876 52.7392 61.0559 53.2269 60.8912C53.7145 60.7274 54.0391 60.235 54.5267 59.5787C55.0144 58.9216 55.9897 57.773 55.9897 57.773C55.9897 57.773 57.1281 58.1007 57.7781 57.4444C58.428 56.7882 58.428 56.6243 58.428 56.1319C58.428 55.6395 58.5911 55.1471 59.0788 55.3118C59.5665 55.4756 61.354 54.6555 62.167 54.8194C62.9801 54.9832 63.9554 55.1471 63.9554 55.1471C63.9554 55.1471 64.9307 54.6547 65.5807 54.8194C66.2306 54.9832 65.2553 54.3261 66.2306 54.9832C67.2059 55.6395 67.5313 56.2966 68.019 55.8042L68.5066 55.3118H70.4573C70.4573 55.3118 69.9696 54.9832 69.8074 54.4908C69.6442 53.9984 70.6196 53.8346 70.6196 53.8346L69.6442 52.8498C69.6442 52.8498 70.295 52.3574 70.9449 52.3574C71.5949 52.3574 72.7333 51.7003 72.7333 51.7003C72.7333 51.7003 73.5455 52.3574 74.1963 52.3574C74.8471 52.3574 75.0085 52.3574 76.3092 52.0288C77.6099 51.7011 79.0721 51.7011 79.0721 52.3574C79.0721 53.0136 79.0721 53.8337 80.2097 52.5212C81.3473 51.2087 80.0466 50.8802 81.3473 51.2087C82.648 51.5364 83.7856 52.1927 84.5986 52.5212C85.4117 52.8498 85.7362 53.3413 85.7362 54.4908C85.7362 55.6403 85.0863 55.4757 86.0616 57.1167C87.0369 58.7578 87.1992 60.0703 87.85 60.3988C88.4999 60.7274 89.6375 62.697 90.2883 62.697C90.9391 62.697 92.0758 62.0399 91.9136 59.414C91.7513 56.789 91.1005 54.8194 90.6128 54.327C90.1252 53.8346 90.776 53.6699 89.8006 52.8498C88.8253 52.0288 89.1499 52.3574 88.4999 50.7163C87.85 49.0753 87.1992 48.7467 87.1992 47.7619C87.1992 46.7771 87.5246 45.136 87.85 44.6436C88.1745 44.1512 89.9621 42.0169 90.1252 41.1968C90.2883 40.3767 90.2883 39.391 90.776 39.2272C91.2636 39.0625 92.5635 38.5709 92.7266 37.5861C92.8889 36.6013 93.8642 36.1089 93.8642 36.1089L94.3519 35.4527C94.3519 35.4527 94.3519 34.1393 94.8395 33.6469C95.3272 33.1545 95.6526 32.6621 95.1649 32.4982C94.6773 32.3335 94.3519 32.1697 94.3519 31.3496C94.3519 30.5295 94.0265 30.2009 93.5388 30.2009C93.0512 30.2009 92.8889 30.3648 92.8889 29.5438C92.8889 28.7229 92.2389 28.2313 92.2389 28.2313C92.2389 28.2313 91.5882 27.0827 91.5882 26.5903C91.5882 26.0978 91.7513 24.7845 91.7513 24.7845C91.7513 24.7845 92.5635 24.7845 92.8889 25.6054C93.2143 26.4256 93.8642 26.2617 93.8642 27.0827C93.8642 27.9036 94.5141 28.3952 94.5141 28.3952C94.5141 28.3952 94.8395 26.5903 94.6773 26.0978C94.5141 25.6054 93.2143 24.7845 93.7019 24.1282C94.1896 23.472 95.4895 23.6358 95.4895 23.6358C95.4895 23.6358 95.8148 22.3225 95.8148 21.5024C95.8148 20.6823 95.9771 19.8613 95.9771 19.8613L97.6024 18.8765C97.6024 18.8765 98.74 17.8917 98.2523 17.727C97.7647 17.5623 96.9524 18.2202 96.4648 18.3841C95.9771 18.5479 94.6773 18.5488 95.6526 17.8917C96.6279 17.2354 98.0909 16.5792 98.5785 16.4145C99.0662 16.2498 99.7161 15.7582 99.7161 15.7582L101.341 14.281C101.341 14.281 101.341 13.4609 100.691 13.4609C100.042 13.4609 99.3908 14.1172 99.3908 12.8047C99.3908 11.4921 99.0662 10.5073 99.5539 10.0149C100.042 9.52253 100.691 9.52168 101.017 8.70158L101.014 8.69904Z" fill="#2585C6"/>
</svg>
