<svg width="97" height="104" viewBox="0 0 97 104" fill="none" xmlns="http://www.w3.org/2000/svg">
<g clip-path="url(#clip0_3378_31331)">
<path d="M78.9137 20.2076C78.6381 20.2076 78.3691 20.0997 78.1766 19.9067C78.1367 19.8674 78.0902 19.8118 78.0471 19.7496C78.0105 19.6907 77.9773 19.6318 77.9508 19.573C77.9242 19.5108 77.9043 19.4454 77.891 19.3799C77.8777 19.3178 77.8711 19.2523 77.8711 19.1804C77.8711 18.9121 77.984 18.6439 78.1732 18.4574C78.3625 18.2709 78.6414 18.1597 78.9203 18.1597C78.9867 18.1597 79.0531 18.1662 79.1162 18.1793C79.1826 18.1924 79.249 18.212 79.3088 18.2382C79.3719 18.2644 79.4383 18.2971 79.5014 18.3396C79.5512 18.3723 79.6043 18.4181 79.6508 18.4606C79.8434 18.6504 79.9562 18.9187 79.9562 19.1869C79.9562 19.2523 79.9496 19.3178 79.933 19.3898C79.9197 19.4519 79.8998 19.5173 79.8766 19.5762C79.85 19.6417 79.8168 19.7038 79.7769 19.7627C79.7404 19.815 79.6973 19.8707 79.6475 19.9197C79.6143 19.9525 79.5611 19.995 79.4947 20.0408C79.435 20.0768 79.3752 20.1095 79.3154 20.1357C79.2523 20.1618 79.1859 20.1815 79.1195 20.1945C79.0498 20.2076 78.9834 20.2142 78.9203 20.2142L78.9137 20.2076Z" fill="#48637B"/>
<path d="M1.54341 103.5C1.23463 103.5 0.945759 103.366 0.74654 103.137C0.547322 102.905 0.464314 102.6 0.514119 102.303L8.84809 54.0839C8.93441 53.59 9.36605 53.2301 9.87406 53.2301H43.2066V1.52725C43.2066 0.961282 43.6748 0.5 44.2492 0.5H52.4238C52.9982 0.5 53.4664 0.961282 53.4664 1.52725V3.89255H91.6897C92.0284 3.89255 92.3471 4.05612 92.5397 4.32766C92.7356 4.60246 92.7821 4.95252 92.6692 5.26658L87.5128 19.3897L92.6692 33.5127C92.7854 33.8268 92.7356 34.1769 92.5397 34.4484C92.3438 34.7232 92.0251 34.8835 91.6864 34.8835H53.463V53.2268H87.1309C87.6389 53.2268 88.0739 53.5867 88.1569 54.0807L96.4876 102.299C96.5407 102.597 96.4544 102.901 96.2551 103.134C96.0559 103.366 95.767 103.5 95.4583 103.5H1.54341ZM87.961 70.4742C85.2815 70.5691 82.871 71.8777 81.347 74.0598C79.7532 76.3433 79.4179 79.1371 80.4239 81.7216L80.5069 81.931C82.1671 86.2003 80.8257 90.9603 77.1733 93.7771L67.2224 101.446H94.2331L88.8774 70.4415L87.9677 70.4742H87.961ZM23.4508 91.8829C16.9762 91.8829 10.8502 94.631 6.64672 99.427L4.877 101.449H47.6857L48.0509 99.463L31.1373 93.2504C28.677 92.3475 26.0904 91.8862 23.4508 91.8862V91.8829ZM23.4143 89.8153C26.2963 89.8153 29.1385 90.3224 31.8644 91.3235L57.9986 100.925C58.9316 101.269 59.9144 101.442 60.9204 101.442C62.8064 101.442 64.6525 100.821 66.12 99.6887L75.8851 92.1642C78.8136 89.9069 79.8893 86.0923 78.5579 82.6703L78.4749 82.4577C77.2397 79.2778 77.6714 75.7053 79.6304 72.9016C81.4167 70.34 84.2423 68.7207 87.3833 68.4589L88.5122 68.3641L86.2511 55.2846H80.8589L80.7393 58.6215C80.4737 62.4296 78.3155 65.8417 74.962 67.7556L66.4122 72.6366L66.6247 73.3989C66.9601 74.6028 67.1327 75.8656 67.1327 77.148C67.1327 85.667 58.9482 92.3376 48.5025 92.3376C38.0568 92.3376 29.8723 85.6638 29.8723 77.148C29.8723 75.2833 30.2342 73.4807 30.948 71.7926L31.5258 70.4251L24.8354 70.1928C20.9639 69.9311 17.4942 67.8046 15.5518 64.5004L10.6112 56.0959L2.95454 100.408L5.36177 97.7618C8.56918 94.2351 12.7295 91.7455 17.3879 90.571C19.3635 90.0738 21.3889 89.8186 23.4109 89.8186L23.4143 89.8153ZM41.8453 64.9453C35.8355 66.8723 31.9541 71.6617 31.9541 77.1448C31.9541 84.5122 39.2222 90.2831 48.5025 90.2831C57.7828 90.2831 65.0509 84.5122 65.0509 77.1448C65.0509 71.5211 61.03 66.689 54.8078 64.8341L53.4664 64.435V69.6269L54.1437 69.8755C57.806 71.2135 59.9908 73.9322 59.9908 77.1448C59.9908 81.7151 54.9439 85.2974 48.5025 85.2974C42.0611 85.2974 37.0142 81.7151 37.0142 77.1448C37.0142 74.0401 39.0861 71.364 42.5525 69.9933L43.2066 69.7348V64.5102L41.842 64.9486L41.8453 64.9453ZM41.5697 72.8231C39.976 73.9256 39.0994 75.46 39.0994 77.1415C39.0994 80.5046 43.3195 83.2429 48.5058 83.2429C53.6921 83.2429 57.9122 80.5079 57.9122 77.1415C57.9122 75.3356 56.8996 73.7195 55.0601 72.5876L53.4664 71.6061V77.1415C53.4664 77.7075 52.9982 78.1688 52.4238 78.1688H44.2492C43.6748 78.1688 43.2066 77.7075 43.2066 77.1415V71.6846L41.5664 72.8198L41.5697 72.8231ZM45.2918 76.1175H51.3845V2.55123H45.2918V76.1175ZM53.4664 62.3739L54.2665 62.5637C59.0113 63.6825 62.8495 66.2768 65.0775 69.8689L65.6087 70.7228L73.9228 65.9759C76.6653 64.4121 78.4351 61.6182 78.6642 58.507V58.471L78.7804 55.2813H53.4664V62.3772V62.3739ZM17.358 63.4666C18.9451 66.1656 21.7807 67.9126 24.9383 68.1383H24.9748L32.9668 68.4197L33.2922 68.0435C35.5334 65.4557 38.691 63.5877 42.423 62.6422L43.2066 62.4459V55.2846H12.5403L17.3514 63.4699L17.358 63.4666ZM53.4664 32.8323H90.2089L85.4276 19.7332C85.3446 19.5107 85.3446 19.2621 85.4276 19.0396L90.2089 5.94051H53.4664V18.1563H69.9616C70.536 18.1563 71.0042 18.6176 71.0042 19.1836C71.0042 19.7495 70.536 20.2108 69.9616 20.2108H53.4664V32.8355V32.8323Z" fill="#48637B"/>
</g>
<defs>
<clipPath id="clip0_3378_31331">
<rect width="96" height="103" fill="white" transform="translate(0.5 0.5)"/>
</clipPath>
</defs>
</svg>
