<svg width="20" height="20" viewBox="0 0 20 20" fill="none" xmlns="http://www.w3.org/2000/svg">
<path d="M5.5 0.125H1.375C0.601562 0.125 0 0.769531 0 1.5V5.625C0 6.39844 0.601562 7 1.375 7C2.10547 7 2.75 6.39844 2.75 5.625V2.875H5.5C6.23047 2.875 6.875 2.27344 6.875 1.5C6.875 0.769531 6.23047 0.125 5.5 0.125ZM17.875 0.125H13.75C12.9766 0.125 12.375 0.769531 12.375 1.5C12.375 2.27344 12.9766 2.875 13.75 2.875H16.5V5.625C16.5 6.39844 17.1016 7 17.875 7C18.6055 7 19.25 6.39844 19.25 5.625V1.5C19.25 0.769531 18.6055 0.125 17.875 0.125ZM5.5 16.625H2.75V13.875C2.75 13.1445 2.10547 12.5 1.375 12.5C0.601562 12.5 0 13.1445 0 13.875V18C0 18.7734 0.601562 19.375 1.375 19.375H5.5C6.23047 19.375 6.875 18.7734 6.875 18C6.875 17.2695 6.23047 16.625 5.5 16.625ZM17.875 12.5C17.1016 12.5 16.5 13.1445 16.5 13.875V16.625H13.75C12.9766 16.625 12.375 17.2695 12.375 18C12.375 18.7734 12.9766 19.375 13.75 19.375H17.875C18.6055 19.375 19.25 18.7734 19.25 18V13.875C19.25 13.1445 18.6055 12.5 17.875 12.5Z" fill="#D7D7D7"/>
</svg>
