<svg width="21" height="21" viewBox="0 0 21 21" fill="none" xmlns="http://www.w3.org/2000/svg">
<path d="M12.3047 8.19531C12.5391 8.42969 12.5391 8.85938 12.3047 9.09375L9.17969 12.2188C8.94531 12.4531 8.51562 12.4531 8.28125 12.2188C8.04688 11.9844 8.04688 11.5547 8.28125 11.3203L10.3516 9.25H4.375C4.02344 9.25 3.75 8.97656 3.75 8.625C3.75 8.3125 4.02344 8 4.375 8H10.3516L8.28125 5.96875C8.04688 5.73438 8.04688 5.30469 8.28125 5.07031C8.51562 4.83594 8.94531 4.83594 9.17969 5.07031L12.3047 8.19531ZM0 8.625C0 4.17188 3.63281 0.5 8.125 0.5C12.5781 0.5 16.25 4.17188 16.25 8.625C16.25 10.6562 15.5078 12.4922 14.2578 13.9375L19.8047 19.4453C20.0391 19.6797 20.0391 20.1094 19.8047 20.3438C19.5703 20.5781 19.1406 20.5781 18.9062 20.3438L13.3984 14.7969C11.9531 16.0469 10.1172 16.75 8.125 16.75C3.63281 16.75 0 13.1172 0 8.625ZM8.125 15.5C11.9141 15.5 15 12.4531 15 8.625C15 4.83594 11.9141 1.75 8.125 1.75C4.29688 1.75 1.25 4.83594 1.25 8.625C1.25 12.4531 4.29688 15.5 8.125 15.5Z" fill="white"/>
</svg>
