<svg width="20" height="21" viewBox="0 0 20 21" fill="none" xmlns="http://www.w3.org/2000/svg">
<path d="M13.4097 15.6981C11.7399 16.9959 9.63851 17.6081 7.53338 17.4101C5.42824 17.2122 3.47766 16.2189 2.07881 14.6325C0.679961 13.0462 -0.0619809 10.986 0.00405863 8.87156C0.0700982 6.7571 0.939153 4.74731 2.43427 3.25143C3.92939 1.75555 5.93814 0.886052 8.05152 0.819979C10.1649 0.753905 12.224 1.49623 13.8096 2.89579C15.3951 4.29536 16.3879 6.24694 16.5857 8.35315C16.7836 10.4594 16.1717 12.5618 14.8745 14.2325L19.6936 19.036C20.1016 19.4427 20.1022 20.1032 19.695 20.5106C19.2878 20.918 18.6273 20.9177 18.2204 20.5099L13.4201 15.6981H13.4097ZM8.31916 15.3655C9.13773 15.3655 9.94829 15.2041 10.7045 14.8907C11.4608 14.5773 12.148 14.1179 12.7268 13.5388C13.3056 12.9597 13.7647 12.2722 14.078 11.5156C14.3913 10.7589 14.5525 9.94793 14.5525 9.12894C14.5525 8.30995 14.3913 7.49898 14.078 6.74233C13.7647 5.98568 13.3056 5.29817 12.7268 4.71906C12.148 4.13994 11.4608 3.68056 10.7045 3.36715C9.94829 3.05374 9.13773 2.89242 8.31916 2.89242C6.66598 2.89242 5.08051 3.54948 3.91153 4.71906C2.74256 5.88863 2.08583 7.47491 2.08583 9.12894C2.08583 10.783 2.74256 12.3692 3.91153 13.5388C5.08051 14.7084 6.66598 15.3655 8.31916 15.3655Z" fill="#D7D7D7"/>
</svg>
