<svg width="22" height="18" viewBox="0 0 22 18" fill="none" xmlns="http://www.w3.org/2000/svg">
<path d="M14.2422 7.72021C13.8125 8.11084 13.1875 8.11084 12.7188 7.75928L8.5 4.59521L2.99219 8.97021C2.48438 9.3999 1.70312 9.32178 1.27344 8.7749C0.804688 8.26709 0.921875 7.48584 1.46875 7.01709L7.71875 2.05615C8.14844 1.66553 8.77344 1.66553 9.24219 2.01709L13.4609 5.18115L18.9688 0.806152C19.4766 0.337402 20.2578 0.45459 20.6875 1.00146C21.1562 1.50928 21.0391 2.29053 20.4922 2.72021L14.2422 7.72021ZM7.25 9.24365C7.25 8.57959 7.79688 7.99365 8.5 7.99365C9.16406 7.99365 9.75 8.57959 9.75 9.24365V16.7437C9.75 17.4468 9.16406 17.9937 8.5 17.9937C7.79688 17.9937 7.25 17.4468 7.25 16.7437V9.24365ZM2.25 12.9937C2.25 12.3296 2.79688 11.7437 3.5 11.7437C4.16406 11.7437 4.75 12.3296 4.75 12.9937V16.7437C4.75 17.4468 4.16406 17.9937 3.5 17.9937C2.79688 17.9937 2.25 17.4468 2.25 16.7437V12.9937ZM14.75 11.7437V16.7437C14.75 17.4468 14.1641 17.9937 13.5 17.9937C12.7969 17.9937 12.25 17.4468 12.25 16.7437V11.7437C12.25 11.0796 12.7969 10.4937 13.5 10.4937C14.1641 10.4937 14.75 11.0796 14.75 11.7437ZM17.25 9.24365C17.25 8.57959 17.7969 7.99365 18.5 7.99365C19.1641 7.99365 19.75 8.57959 19.75 9.24365V16.7437C19.75 17.4468 19.1641 17.9937 18.5 17.9937C17.7969 17.9937 17.25 17.4468 17.25 16.7437V9.24365Z" fill="white"/>
</svg>
