<svg width="34" height="24" viewBox="0 0 34 24" fill="none" xmlns="http://www.w3.org/2000/svg">
<path d="M0 3.4375C0 1.5918 1.47656 0.0625 3.375 0.0625H30.375C32.2207 0.0625 33.75 1.5918 33.75 3.4375V20.3125C33.75 22.2109 32.2207 23.6875 30.375 23.6875H3.375C1.47656 23.6875 0 22.2109 0 20.3125V3.4375ZM23.625 21.1562H30.375C30.7969 21.1562 31.2188 20.7871 31.2188 20.3125V3.4375C31.2188 3.01562 30.7969 2.59375 30.375 2.59375H23.625V21.1562ZM21.0938 2.59375H12.6562V21.1562H21.0938V2.59375ZM10.125 21.1562V2.59375H3.375C2.90039 2.59375 2.53125 3.01562 2.53125 3.4375V20.3125C2.53125 20.7871 2.90039 21.1562 3.375 21.1562H10.125Z" fill="#D7D7D7"/>
</svg>
