<svg width="17" height="20" viewBox="0 0 17 20" fill="none" xmlns="http://www.w3.org/2000/svg">
<path d="M15.625 16.625H1.83203C1.10156 16.625 0.5 17.2695 0.5 18C0.5 18.6875 1.10156 19.375 1.83203 19.375H15.625C16.3555 19.375 17 18.7734 17 18C17 17.2695 16.3555 16.625 15.625 16.625ZM14.5938 7.04297H11.5V1.54297C11.5 0.769531 10.8555 0.167969 10.125 0.167969H7.375C6.60156 0.167969 6 0.769531 6 1.54297V7.04297H2.90625C2.47656 7.04297 2.08984 7.25781 1.91797 7.64453C1.78906 8.03125 1.83203 8.46094 2.13281 8.76172L7.97656 14.9492C8.36328 15.3789 9.09375 15.3789 9.48047 14.9492L15.3242 8.76172C15.625 8.46094 15.668 8.03125 15.5391 7.64453C15.3672 7.25781 14.9805 7.04297 14.5938 7.04297Z" fill="#D7D7D7"/>
</svg>
