<svg width="50" height="270" viewBox="0 0 50 270" fill="none" xmlns="http://www.w3.org/2000/svg">
<g clip-path="url(#clip0_410_8940)">
<path d="M23.6539 29.9162C28.9403 29.9162 33.2258 25.6962 33.2258 20.4906C33.2258 15.2849 28.9403 11.0649 23.6539 11.0649C18.3675 11.0649 14.082 15.2849 14.082 20.4906C14.082 25.6962 18.3675 29.9162 23.6539 29.9162Z" stroke="#E6E6E6" stroke-miterlimit="10" stroke-linecap="round"/>
<path d="M27.7109 29.2345L32.6753 36.1786C33.2486 36.9774 34.3626 37.1691 35.1629 36.6046C35.9741 36.0401 36.1688 34.9432 35.5956 34.155L30.6312 27.2109" stroke="#E6E6E6" stroke-miterlimit="10" stroke-linecap="round"/>
</g>
<g clip-path="url(#clip1_410_8940)">
<path d="M24.9946 85.2368C20.1642 85.2368 16.2461 89.0982 16.2461 93.8585C16.2461 100.218 24.9946 110.358 24.9946 110.358C24.9946 110.358 33.7431 100.218 33.7431 93.8585C33.7431 89.0982 29.825 85.2368 24.9946 85.2368V85.2368ZM24.9946 98.5452C22.385 98.5452 20.2689 96.4598 20.2689 93.888C20.2689 91.3162 22.385 89.2308 24.9946 89.2308C27.6042 89.2308 29.7203 91.3162 29.7203 93.888C29.7203 96.4598 27.6042 98.5452 24.9946 98.5452Z" stroke="#E6E6E6" stroke-miterlimit="10" stroke-linecap="round"/>
</g>
<path d="M24.1836 162.266C24.4414 162.18 24.6992 162.094 25 162.094C25.2578 162.094 25.5156 162.18 25.7734 162.266L35.0977 166.477C35.4414 166.605 35.6562 166.906 35.6562 167.25C35.6562 167.594 35.4414 167.938 35.0977 168.066L25.7734 172.234C25.5156 172.363 25.2578 172.406 25 172.406C24.6992 172.406 24.4414 172.363 24.1836 172.234L14.8594 168.066C14.5156 167.938 14.3438 167.594 14.3438 167.25C14.3438 166.906 14.5156 166.605 14.8594 166.477L24.1836 162.266ZM25 162.781C24.7852 162.781 24.6133 162.824 24.4414 162.91L15.1172 167.078C15.0742 167.121 15.0312 167.207 15.0312 167.25C15.0312 167.336 15.0742 167.422 15.1172 167.422L24.4414 171.633C24.6133 171.719 24.7852 171.719 25 171.719C25.1719 171.719 25.3438 171.719 25.5156 171.633L34.8398 167.422C34.8828 167.422 34.9688 167.336 34.9688 167.25C34.9688 167.207 34.8828 167.121 34.8398 167.078L25.5156 162.91C25.3438 162.824 25.1719 162.781 25 162.781ZM17.0508 171.375C17.1367 171.547 17.0508 171.719 16.8789 171.805L15.1172 172.578C15.0742 172.621 15.0312 172.707 15.0312 172.75C15.0312 172.836 15.0742 172.922 15.1172 172.922L24.4414 177.133C24.6133 177.219 24.7852 177.219 25 177.219C25.1719 177.219 25.3438 177.219 25.5156 177.133L34.8398 172.922C34.8828 172.922 34.9688 172.836 34.9688 172.75C34.9688 172.707 34.8828 172.621 34.8398 172.578L33.0781 171.805C32.9062 171.719 32.8203 171.547 32.9062 171.375C32.9922 171.203 33.207 171.117 33.3789 171.203L35.0977 171.977C35.4414 172.105 35.6562 172.406 35.6562 172.75C35.6562 173.094 35.4414 173.438 35.0977 173.566L25.7734 177.734C25.5156 177.863 25.2578 177.906 25 177.906C24.6992 177.906 24.4414 177.863 24.1836 177.734L14.8594 173.566C14.5156 173.438 14.3438 173.094 14.3438 172.75C14.3438 172.406 14.5156 172.105 14.8594 171.977L16.5781 171.203C16.75 171.117 16.9648 171.203 17.0508 171.375ZM15.1172 178.078C15.0742 178.121 15.0312 178.207 15.0312 178.25C15.0312 178.336 15.0742 178.422 15.1172 178.422L24.4414 182.633C24.6133 182.719 24.7852 182.719 25 182.719C25.1719 182.719 25.3438 182.719 25.5156 182.633L34.8398 178.422C34.8828 178.422 34.9688 178.336 34.9688 178.25C34.9688 178.207 34.8828 178.121 34.8398 178.078L33.0781 177.305C32.9062 177.219 32.8203 177.047 32.9062 176.875C32.9922 176.703 33.207 176.617 33.3789 176.703L35.0977 177.477C35.4414 177.605 35.6562 177.906 35.6562 178.25C35.6562 178.594 35.4414 178.938 35.0977 179.066L25.7734 183.234C25.5156 183.363 25.2578 183.406 25 183.406C24.6992 183.406 24.4414 183.363 24.1836 183.234L14.8594 179.066C14.5156 178.938 14.3438 178.594 14.3438 178.25C14.3438 177.906 14.5156 177.605 14.8594 177.477L16.5781 176.703C16.75 176.617 16.9648 176.703 17.0508 176.875C17.1367 177.047 17.0508 177.219 16.8789 177.305L15.1172 178.078Z" fill="#F4F4F4"/>
<path d="M24.1836 162.266L24.1203 162.076L24.1106 162.079L24.1013 162.083L24.1836 162.266ZM25.7734 162.266L25.8558 162.083L25.8464 162.079L25.8367 162.076L25.7734 162.266ZM35.0977 166.477L35.0152 166.659L35.0274 166.664L35.0977 166.477ZM35.0977 168.066L35.0273 167.879L35.016 167.884L35.0977 168.066ZM25.7734 172.234L25.6917 172.052L25.684 172.055L25.7734 172.234ZM24.1836 172.234L24.2731 172.055L24.2652 172.052L24.1836 172.234ZM14.8594 168.066L14.9411 167.883L14.9296 167.879L14.8594 168.066ZM14.8594 166.477L14.9298 166.664L14.9417 166.659L14.8594 166.477ZM24.4414 162.91L24.5231 163.093L24.5308 163.089L24.4414 162.91ZM15.1172 167.078L15.0356 166.896L15.0019 166.911L14.9758 166.937L15.1172 167.078ZM15.1172 167.422L15.1995 167.24L15.1603 167.222H15.1172V167.422ZM24.4414 171.633L24.5309 171.454L24.5237 171.451L24.4414 171.633ZM25.5156 171.633L25.4332 171.45L25.4262 171.454L25.5156 171.633ZM34.8398 167.422V167.222H34.7968L34.7575 167.24L34.8398 167.422ZM34.8398 167.078L34.9813 166.937L34.9552 166.911L34.9215 166.896L34.8398 167.078ZM25.5156 162.91L25.4261 163.089L25.434 163.093L25.5156 162.91ZM16.8789 171.805L16.9594 171.988L16.9683 171.984L16.8789 171.805ZM15.1172 172.578L15.0368 172.395L15.0024 172.41L14.9758 172.437L15.1172 172.578ZM15.1172 172.922L15.1995 172.74L15.1603 172.722H15.1172V172.922ZM24.4414 177.133L24.5309 176.954L24.5237 176.951L24.4414 177.133ZM25.5156 177.133L25.4332 176.95L25.4262 176.954L25.5156 177.133ZM34.8398 172.922V172.722H34.7968L34.7575 172.74L34.8398 172.922ZM34.8398 172.578L34.9813 172.437L34.9547 172.41L34.9202 172.395L34.8398 172.578ZM33.0781 171.805L32.9886 171.984L32.9977 171.988L33.0781 171.805ZM33.3789 171.203L33.2894 171.382L33.2968 171.386L33.3789 171.203ZM35.0977 171.977L35.0154 172.159L35.0274 172.164L35.0977 171.977ZM35.0977 173.566L35.0273 173.379L35.016 173.384L35.0977 173.566ZM25.7734 177.734L25.6917 177.552L25.684 177.555L25.7734 177.734ZM24.1836 177.734L24.2731 177.555L24.2652 177.552L24.1836 177.734ZM14.8594 173.566L14.9411 173.383L14.9296 173.379L14.8594 173.566ZM14.8594 171.977L14.9297 172.164L14.9414 172.159L14.8594 171.977ZM16.5781 171.203L16.6603 171.386L16.6676 171.382L16.5781 171.203ZM15.1172 178.078L15.0368 177.895L15.0024 177.91L14.9758 177.937L15.1172 178.078ZM15.1172 178.422L15.1995 178.24L15.1603 178.222H15.1172V178.422ZM24.4414 182.633L24.5309 182.454L24.5237 182.451L24.4414 182.633ZM25.5156 182.633L25.4332 182.45L25.4262 182.454L25.5156 182.633ZM34.8398 178.422V178.222H34.7968L34.7575 178.24L34.8398 178.422ZM34.8398 178.078L34.9813 177.937L34.9547 177.91L34.9202 177.895L34.8398 178.078ZM33.0781 177.305L32.9886 177.484L32.9977 177.488L33.0781 177.305ZM33.3789 176.703L33.2894 176.882L33.2968 176.886L33.3789 176.703ZM35.0977 177.477L35.0154 177.659L35.0274 177.664L35.0977 177.477ZM35.0977 179.066L35.0273 178.879L35.016 178.884L35.0977 179.066ZM25.7734 183.234L25.6917 183.052L25.684 183.055L25.7734 183.234ZM24.1836 183.234L24.2731 183.055L24.2652 183.052L24.1836 183.234ZM14.8594 179.066L14.9411 178.883L14.9296 178.879L14.8594 179.066ZM14.8594 177.477L14.9297 177.664L14.9414 177.659L14.8594 177.477ZM16.5781 176.703L16.6603 176.886L16.6676 176.882L16.5781 176.703ZM16.8789 177.305L16.9594 177.488L16.9683 177.484L16.8789 177.305ZM24.2468 162.455C24.5078 162.368 24.7362 162.294 25 162.294V161.894C24.6622 161.894 24.375 161.991 24.1203 162.076L24.2468 162.455ZM25 162.294C25.2195 162.294 25.4457 162.367 25.7102 162.455L25.8367 162.076C25.5856 161.992 25.2961 161.894 25 161.894V162.294ZM25.6911 162.448L35.0153 166.659L35.18 166.294L25.8558 162.083L25.6911 162.448ZM35.0274 166.664C35.2987 166.766 35.4562 166.995 35.4562 167.25H35.8563C35.8563 166.817 35.5841 166.445 35.1679 166.289L35.0274 166.664ZM35.4562 167.25C35.4562 167.516 35.2877 167.782 35.0274 167.879L35.1679 168.254C35.5951 168.093 35.8563 167.671 35.8563 167.25H35.4562ZM35.016 167.884L25.6918 172.052L25.8551 172.417L35.1793 168.249L35.016 167.884ZM25.684 172.055C25.4601 172.167 25.2344 172.206 25 172.206V172.606C25.2812 172.606 25.5712 172.559 25.8629 172.413L25.684 172.055ZM25 172.206C24.7201 172.206 24.4953 172.167 24.273 172.055L24.0942 172.413C24.3876 172.56 24.6783 172.606 25 172.606V172.206ZM24.2652 172.052L14.941 167.884L14.7778 168.249L24.102 172.417L24.2652 172.052ZM14.9296 167.879C14.6844 167.787 14.5438 167.535 14.5438 167.25H14.1437C14.1437 167.653 14.3469 168.088 14.7892 168.254L14.9296 167.879ZM14.5438 167.25C14.5438 166.977 14.6748 166.759 14.9296 166.664L14.7892 166.289C14.3565 166.452 14.1437 166.835 14.1437 167.25H14.5438ZM14.9417 166.659L24.2659 162.448L24.1013 162.083L14.7771 166.294L14.9417 166.659ZM25 162.581C24.7543 162.581 24.5518 162.631 24.352 162.731L24.5308 163.089C24.6748 163.017 24.816 162.981 25 162.981V162.581ZM24.3598 162.728L15.0356 166.896L15.1988 167.261L24.523 163.093L24.3598 162.728ZM14.9758 166.937C14.9345 166.978 14.9015 167.03 14.8792 167.075C14.8601 167.113 14.8312 167.18 14.8312 167.25H15.2313C15.2313 167.261 15.23 167.268 15.2296 167.27C15.2291 167.272 15.2288 167.273 15.2292 167.272C15.2302 167.269 15.2326 167.262 15.237 167.254C15.2412 167.245 15.2461 167.237 15.2509 167.23C15.2559 167.222 15.2589 167.219 15.2586 167.22L14.9758 166.937ZM14.8312 167.25C14.8312 167.323 14.8489 167.397 14.8792 167.458C14.8943 167.488 14.9166 167.523 14.9492 167.553C14.9806 167.583 15.0378 167.622 15.1172 167.622V167.222C15.1751 167.222 15.2108 167.25 15.2221 167.261C15.2345 167.272 15.238 167.281 15.237 167.279C15.2351 167.275 15.2313 167.263 15.2313 167.25H14.8312ZM15.0349 167.604L24.3591 171.815L24.5237 171.451L15.1995 167.24L15.0349 167.604ZM24.352 171.812C24.5728 171.922 24.7931 171.919 25 171.919V171.519C24.7772 171.519 24.6537 171.515 24.5308 171.454L24.352 171.812ZM25 171.919C25.1668 171.919 25.3851 171.922 25.6051 171.812L25.4262 171.454C25.3024 171.516 25.1769 171.519 25 171.519V171.919ZM25.5979 171.815L34.9222 167.604L34.7575 167.24L25.4333 171.451L25.5979 171.815ZM34.8398 167.622C34.9089 167.622 34.9624 167.591 34.9891 167.574C35.0214 167.552 35.0502 167.525 35.0741 167.496C35.1187 167.443 35.1688 167.356 35.1688 167.25H34.7687C34.7687 167.244 34.7695 167.24 34.7701 167.237C34.7704 167.236 34.7706 167.235 34.7708 167.234C34.7709 167.234 34.771 167.234 34.7711 167.234C34.7711 167.234 34.7711 167.234 34.7711 167.234C34.7711 167.234 34.7711 167.234 34.7711 167.234C34.7711 167.234 34.7711 167.234 34.7711 167.234C34.7711 167.234 34.7711 167.234 34.7711 167.234C34.7711 167.234 34.7711 167.234 34.7711 167.234C34.7711 167.234 34.7711 167.234 34.7711 167.234C34.7711 167.234 34.7711 167.234 34.7711 167.234C34.7711 167.234 34.7711 167.234 34.7711 167.234C34.771 167.234 34.7709 167.234 34.7708 167.234C34.7706 167.235 34.7703 167.235 34.7699 167.236C34.769 167.237 34.7679 167.239 34.7668 167.24C34.7638 167.244 34.763 167.243 34.7672 167.241C34.7694 167.239 34.7753 167.235 34.7851 167.232C34.7941 167.228 34.8132 167.222 34.8398 167.222V167.622ZM35.1688 167.25C35.1688 167.183 35.1392 167.13 35.1268 167.109C35.1104 167.081 35.0907 167.056 35.0741 167.036C35.0405 166.996 35.0018 166.957 34.9813 166.937L34.6984 167.22C34.7208 167.242 34.7466 167.268 34.7668 167.292C34.777 167.304 34.7815 167.311 34.7825 167.313C34.7829 167.313 34.7804 167.31 34.7775 167.302C34.775 167.295 34.7687 167.276 34.7687 167.25H35.1688ZM34.9215 166.896L25.5972 162.728L25.434 163.093L34.7582 167.261L34.9215 166.896ZM25.6051 162.731C25.4087 162.633 25.2064 162.581 25 162.581V162.981C25.1373 162.981 25.2788 163.015 25.4262 163.089L25.6051 162.731ZM16.8719 171.464C16.8889 171.499 16.8864 171.523 16.8777 171.543C16.8673 171.568 16.8409 171.6 16.7895 171.626L16.9683 171.984C17.0888 171.923 17.1913 171.827 17.2454 171.701C17.3011 171.571 17.2986 171.423 17.2297 171.286L16.8719 171.464ZM16.7985 171.622L15.0368 172.395L15.1976 172.761L16.9593 171.988L16.7985 171.622ZM14.9758 172.437C14.9345 172.478 14.9015 172.53 14.8792 172.575C14.8601 172.613 14.8312 172.68 14.8312 172.75H15.2313C15.2313 172.761 15.23 172.768 15.2296 172.77C15.2291 172.772 15.2288 172.773 15.2292 172.772C15.2302 172.769 15.2326 172.762 15.237 172.754C15.2412 172.745 15.2461 172.737 15.2509 172.73C15.2559 172.722 15.2589 172.719 15.2586 172.72L14.9758 172.437ZM14.8312 172.75C14.8312 172.823 14.8489 172.897 14.8792 172.958C14.8943 172.988 14.9166 173.023 14.9492 173.053C14.9806 173.083 15.0378 173.122 15.1172 173.122V172.722C15.1751 172.722 15.2108 172.75 15.2221 172.761C15.2345 172.772 15.238 172.781 15.237 172.779C15.2351 172.775 15.2313 172.763 15.2313 172.75H14.8312ZM15.0349 173.104L24.3591 177.315L24.5237 176.951L15.1995 172.74L15.0349 173.104ZM24.352 177.312C24.5728 177.422 24.7931 177.419 25 177.419V177.019C24.7772 177.019 24.6537 177.015 24.5308 176.954L24.352 177.312ZM25 177.419C25.1668 177.419 25.3851 177.422 25.6051 177.312L25.4262 176.954C25.3024 177.016 25.1769 177.019 25 177.019V177.419ZM25.5979 177.315L34.9222 173.104L34.7575 172.74L25.4333 176.951L25.5979 177.315ZM34.8398 173.122C34.9089 173.122 34.9624 173.091 34.9891 173.074C35.0214 173.052 35.0502 173.025 35.0741 172.996C35.1187 172.943 35.1688 172.856 35.1688 172.75H34.7687C34.7687 172.744 34.7695 172.74 34.7701 172.737C34.7704 172.736 34.7706 172.735 34.7708 172.734C34.7709 172.734 34.771 172.734 34.7711 172.734C34.7711 172.734 34.7711 172.734 34.7711 172.734C34.7711 172.734 34.7711 172.734 34.7711 172.734C34.7711 172.734 34.7711 172.734 34.7711 172.734C34.7711 172.734 34.7711 172.734 34.7711 172.734C34.7711 172.734 34.7711 172.734 34.7711 172.734C34.7711 172.734 34.7711 172.734 34.7711 172.734C34.7711 172.734 34.7711 172.734 34.7711 172.734C34.7711 172.734 34.7711 172.734 34.7711 172.734C34.771 172.734 34.7709 172.734 34.7708 172.734C34.7706 172.735 34.7703 172.735 34.7699 172.736C34.769 172.737 34.7679 172.739 34.7668 172.74C34.7638 172.744 34.763 172.743 34.7672 172.741C34.7694 172.739 34.7753 172.735 34.7851 172.732C34.7941 172.728 34.8132 172.722 34.8398 172.722V173.122ZM35.1688 172.75C35.1688 172.683 35.1392 172.63 35.1268 172.609C35.1104 172.581 35.0907 172.556 35.0741 172.536C35.0405 172.496 35.0018 172.457 34.9813 172.437L34.6984 172.72C34.7208 172.742 34.7466 172.768 34.7668 172.792C34.777 172.804 34.7815 172.811 34.7825 172.813C34.7829 172.813 34.7804 172.81 34.7775 172.802C34.775 172.795 34.7687 172.776 34.7687 172.75H35.1688ZM34.9202 172.395L33.1585 171.622L32.9977 171.988L34.7594 172.761L34.9202 172.395ZM33.1676 171.626C33.1162 171.6 33.0898 171.568 33.0793 171.543C33.0706 171.523 33.0681 171.499 33.0851 171.464L32.7274 171.286C32.6585 171.423 32.6559 171.571 32.7117 171.701C32.7657 171.827 32.8682 171.923 32.9887 171.984L33.1676 171.626ZM33.0851 171.464C33.128 171.379 33.2286 171.352 33.2895 171.382L33.4683 171.024C33.1854 170.883 32.8563 171.028 32.7274 171.286L33.0851 171.464ZM33.2968 171.386L35.0156 172.159L35.1797 171.794L33.461 171.021L33.2968 171.386ZM35.0274 172.164C35.2987 172.266 35.4562 172.495 35.4562 172.75H35.8563C35.8563 172.317 35.5841 171.945 35.1679 171.789L35.0274 172.164ZM35.4562 172.75C35.4562 173.016 35.2877 173.282 35.0274 173.379L35.1679 173.754C35.5951 173.593 35.8563 173.171 35.8563 172.75H35.4562ZM35.016 173.384L25.6918 177.552L25.8551 177.917L35.1793 173.749L35.016 173.384ZM25.684 177.555C25.4601 177.667 25.2344 177.706 25 177.706V178.106C25.2812 178.106 25.5712 178.059 25.8629 177.913L25.684 177.555ZM25 177.706C24.7201 177.706 24.4953 177.667 24.273 177.555L24.0942 177.913C24.3876 178.06 24.6783 178.106 25 178.106V177.706ZM24.2652 177.552L14.941 173.384L14.7778 173.749L24.102 177.917L24.2652 177.552ZM14.9296 173.379C14.6844 173.287 14.5438 173.035 14.5438 172.75H14.1437C14.1437 173.153 14.3469 173.588 14.7892 173.754L14.9296 173.379ZM14.5438 172.75C14.5438 172.477 14.6748 172.259 14.9296 172.164L14.7892 171.789C14.3565 171.952 14.1437 172.335 14.1437 172.75H14.5438ZM14.9414 172.159L16.6602 171.386L16.4961 171.021L14.7773 171.794L14.9414 172.159ZM16.6676 171.382C16.7284 171.352 16.829 171.379 16.8719 171.464L17.2297 171.286C17.1007 171.028 16.7716 170.883 16.4887 171.024L16.6676 171.382ZM14.9758 177.937C14.9345 177.978 14.9015 178.03 14.8792 178.075C14.8601 178.113 14.8312 178.18 14.8312 178.25H15.2313C15.2313 178.261 15.23 178.268 15.2296 178.27C15.2291 178.272 15.2288 178.273 15.2292 178.272C15.2302 178.269 15.2326 178.262 15.237 178.254C15.2412 178.245 15.2461 178.237 15.2509 178.23C15.2559 178.222 15.2589 178.219 15.2586 178.22L14.9758 177.937ZM14.8312 178.25C14.8312 178.323 14.8489 178.397 14.8792 178.458C14.8943 178.488 14.9166 178.523 14.9492 178.553C14.9806 178.583 15.0378 178.622 15.1172 178.622V178.222C15.1751 178.222 15.2108 178.25 15.2221 178.261C15.2345 178.272 15.238 178.281 15.237 178.279C15.2351 178.275 15.2313 178.263 15.2313 178.25H14.8312ZM15.0349 178.604L24.3591 182.815L24.5237 182.451L15.1995 178.24L15.0349 178.604ZM24.352 182.812C24.5728 182.922 24.7931 182.919 25 182.919V182.519C24.7772 182.519 24.6537 182.515 24.5308 182.454L24.352 182.812ZM25 182.919C25.1668 182.919 25.3851 182.922 25.6051 182.812L25.4262 182.454C25.3024 182.516 25.1769 182.519 25 182.519V182.919ZM25.5979 182.815L34.9222 178.604L34.7575 178.24L25.4333 182.451L25.5979 182.815ZM34.8398 178.622C34.9089 178.622 34.9624 178.591 34.9891 178.574C35.0214 178.552 35.0502 178.525 35.0741 178.496C35.1187 178.443 35.1688 178.356 35.1688 178.25H34.7687C34.7687 178.244 34.7695 178.24 34.7701 178.237C34.7704 178.236 34.7706 178.235 34.7708 178.234C34.7709 178.234 34.771 178.234 34.7711 178.234C34.7711 178.234 34.7711 178.234 34.7711 178.234C34.7711 178.234 34.7711 178.234 34.7711 178.234C34.7711 178.234 34.7711 178.234 34.7711 178.234C34.7711 178.234 34.7711 178.234 34.7711 178.234C34.7711 178.234 34.7711 178.234 34.7711 178.234C34.7711 178.234 34.7711 178.234 34.7711 178.234C34.7711 178.234 34.7711 178.234 34.7711 178.234C34.7711 178.234 34.7711 178.234 34.7711 178.234C34.771 178.234 34.7709 178.234 34.7708 178.234C34.7706 178.235 34.7703 178.235 34.7699 178.236C34.769 178.237 34.7679 178.239 34.7668 178.24C34.7638 178.244 34.763 178.243 34.7672 178.241C34.7694 178.239 34.7753 178.235 34.7851 178.232C34.7941 178.228 34.8132 178.222 34.8398 178.222V178.622ZM35.1688 178.25C35.1688 178.183 35.1392 178.13 35.1268 178.109C35.1104 178.081 35.0907 178.056 35.0741 178.036C35.0405 177.996 35.0018 177.957 34.9813 177.937L34.6984 178.22C34.7208 178.242 34.7466 178.268 34.7668 178.292C34.777 178.304 34.7815 178.311 34.7825 178.313C34.7829 178.313 34.7804 178.31 34.7775 178.302C34.775 178.295 34.7687 178.276 34.7687 178.25H35.1688ZM34.9202 177.895L33.1585 177.122L32.9977 177.488L34.7594 178.261L34.9202 177.895ZM33.1676 177.126C33.1162 177.1 33.0898 177.068 33.0793 177.043C33.0706 177.023 33.0681 176.999 33.0851 176.964L32.7274 176.786C32.6585 176.923 32.6559 177.071 32.7117 177.201C32.7657 177.327 32.8682 177.423 32.9887 177.484L33.1676 177.126ZM33.0851 176.964C33.128 176.879 33.2286 176.852 33.2895 176.882L33.4683 176.524C33.1854 176.383 32.8563 176.528 32.7274 176.786L33.0851 176.964ZM33.2968 176.886L35.0156 177.659L35.1797 177.294L33.461 176.521L33.2968 176.886ZM35.0274 177.664C35.2987 177.766 35.4562 177.995 35.4562 178.25H35.8563C35.8563 177.817 35.5841 177.445 35.1679 177.289L35.0274 177.664ZM35.4562 178.25C35.4562 178.516 35.2877 178.782 35.0274 178.879L35.1679 179.254C35.5951 179.093 35.8563 178.671 35.8563 178.25H35.4562ZM35.016 178.884L25.6918 183.052L25.8551 183.417L35.1793 179.249L35.016 178.884ZM25.684 183.055C25.4601 183.167 25.2344 183.206 25 183.206V183.606C25.2812 183.606 25.5712 183.559 25.8629 183.413L25.684 183.055ZM25 183.206C24.7201 183.206 24.4953 183.167 24.273 183.055L24.0942 183.413C24.3876 183.56 24.6783 183.606 25 183.606V183.206ZM24.2652 183.052L14.941 178.884L14.7778 179.249L24.102 183.417L24.2652 183.052ZM14.9296 178.879C14.6844 178.787 14.5438 178.535 14.5438 178.25H14.1437C14.1437 178.653 14.3469 179.088 14.7892 179.254L14.9296 178.879ZM14.5438 178.25C14.5438 177.977 14.6748 177.759 14.9296 177.664L14.7892 177.289C14.3565 177.452 14.1437 177.835 14.1437 178.25H14.5438ZM14.9414 177.659L16.6602 176.886L16.4961 176.521L14.7773 177.294L14.9414 177.659ZM16.6676 176.882C16.7284 176.852 16.829 176.879 16.8719 176.964L17.2297 176.786C17.1007 176.528 16.7716 176.383 16.4887 176.524L16.6676 176.882ZM16.8719 176.964C16.8889 176.999 16.8864 177.023 16.8777 177.043C16.8673 177.068 16.8409 177.1 16.7895 177.126L16.9683 177.484C17.0888 177.423 17.1913 177.327 17.2454 177.201C17.3011 177.071 17.2986 176.923 17.2297 176.786L16.8719 176.964ZM16.7985 177.122L15.0368 177.895L15.1976 178.261L16.9593 177.488L16.7985 177.122Z" fill="#F4F4F4"/>
<path d="M24.125 234.375C24.125 234.188 24.2656 234 24.5 234C24.6875 234 24.875 234.188 24.875 234.375V235.5L24.8281 235.547C28.8125 235.734 32 239.016 32 243V244.734C32 246.703 32.6562 248.578 33.875 250.125L34.6719 251.109C34.8594 251.391 35 251.719 35 252.047C35 252.844 34.2969 253.5 33.5 253.5H15.4531C14.6562 253.5 14 252.844 14 252.047C14 251.719 14.0938 251.391 14.2812 251.109L15.0781 250.125C16.2969 248.578 17 246.703 17 244.734V243C17 239.016 20.1406 235.734 24.125 235.547V235.5V234.375ZM24.5 236.25C20.75 236.25 17.75 239.297 17.75 243V244.734C17.75 246.891 17 248.953 15.6875 250.594L14.8906 251.578C14.7969 251.719 14.75 251.859 14.75 252.047C14.75 252.422 15.0781 252.75 15.4531 252.75H33.5C33.875 252.75 34.25 252.422 34.25 252.047C34.25 251.859 34.1562 251.719 34.0625 251.578L33.2656 250.594C31.9531 248.953 31.25 246.891 31.25 244.734V243C31.25 239.297 28.2031 236.25 24.5 236.25ZM22.9062 256.594C23.3281 257.016 23.8906 257.25 24.5 257.25C25.0625 257.25 25.625 257.016 26.0469 256.594C26.4688 256.172 26.75 255.609 26.75 255C26.75 254.812 26.8906 254.625 27.125 254.625C27.3125 254.625 27.5 254.812 27.5 255C27.5 255.797 27.1719 256.594 26.6094 257.156C26.0469 257.719 25.25 258 24.5 258C23.7031 258 22.9062 257.719 22.3438 257.156C21.7812 256.594 21.5 255.797 21.5 255C21.5 254.812 21.6406 254.625 21.875 254.625C22.0625 254.625 22.25 254.812 22.25 255C22.25 255.609 22.4844 256.172 22.9062 256.594Z" fill="#E6E6E6"/>
<path d="M24.875 235.5L25.0164 235.641L25.075 235.583V235.5H24.875ZM24.8281 235.547L24.6867 235.405L24.3668 235.725L24.8187 235.747L24.8281 235.547ZM33.875 250.125L33.7179 250.249L33.7196 250.251L33.875 250.125ZM34.6719 251.109L34.8383 250.998L34.8331 250.991L34.8273 250.984L34.6719 251.109ZM14.2812 251.109L14.1258 250.984L14.12 250.991L14.1148 250.998L14.2812 251.109ZM15.0781 250.125L15.2336 250.251L15.2352 250.249L15.0781 250.125ZM24.125 235.547L24.1344 235.747L24.325 235.738V235.547H24.125ZM15.6875 250.594L15.843 250.72L15.8437 250.719L15.6875 250.594ZM14.8906 251.578L14.7352 251.452L14.7294 251.459L14.7242 251.467L14.8906 251.578ZM34.0625 251.578L34.2289 251.467L34.2238 251.459L34.2179 251.452L34.0625 251.578ZM33.2656 250.594L33.1094 250.719L33.1102 250.72L33.2656 250.594ZM24.325 234.375C24.325 234.281 24.3921 234.2 24.5 234.2V233.8C24.1391 233.8 23.925 234.094 23.925 234.375H24.325ZM24.5 234.2C24.5287 234.2 24.5741 234.216 24.6164 234.259C24.6586 234.301 24.675 234.346 24.675 234.375H25.075C25.075 234.216 24.9976 234.074 24.8992 233.976C24.8009 233.877 24.6588 233.8 24.5 233.8V234.2ZM24.675 234.375V235.5H25.075V234.375H24.675ZM24.7336 235.359L24.6867 235.405L24.9695 235.688L25.0164 235.641L24.7336 235.359ZM24.8187 235.747C28.6985 235.929 31.8 239.125 31.8 243H32.2C32.2 238.907 28.9265 235.54 24.8375 235.347L24.8187 235.747ZM31.8 243V244.734H32.2V243H31.8ZM31.8 244.734C31.8 246.748 32.4716 248.667 33.7179 250.249L34.0321 250.001C32.8409 248.489 32.2 246.658 32.2 244.734H31.8ZM33.7196 250.251L34.5164 251.235L34.8273 250.984L34.0304 249.999L33.7196 250.251ZM34.5055 251.22C34.6814 251.484 34.8 251.773 34.8 252.047H35.2C35.2 251.664 35.0374 251.297 34.8383 250.998L34.5055 251.22ZM34.8 252.047C34.8 252.725 34.1947 253.3 33.5 253.3V253.7C34.399 253.7 35.2 252.962 35.2 252.047H34.8ZM33.5 253.3H15.4531V253.7H33.5V253.3ZM15.4531 253.3C14.7667 253.3 14.2 252.733 14.2 252.047H13.8C13.8 252.954 14.5458 253.7 15.4531 253.7V253.3ZM14.2 252.047C14.2 251.757 14.283 251.467 14.4477 251.22L14.1148 250.998C13.9045 251.314 13.8 251.681 13.8 252.047H14.2ZM14.4367 251.235L15.2336 250.251L14.9227 249.999L14.1258 250.984L14.4367 251.235ZM15.2352 250.249C16.4794 248.67 17.2 246.752 17.2 244.734H16.8C16.8 246.655 16.1143 248.487 14.921 250.001L15.2352 250.249ZM17.2 244.734V243H16.8V244.734H17.2ZM17.2 243C17.2 239.123 20.2563 235.929 24.1344 235.747L24.1156 235.347C20.025 235.54 16.8 238.908 16.8 243H17.2ZM24.325 235.547V235.5H23.925V235.547H24.325ZM24.325 235.5V234.375H23.925V235.5H24.325ZM24.5 236.05C20.6386 236.05 17.55 239.187 17.55 243H17.95C17.95 239.406 20.8614 236.45 24.5 236.45V236.05ZM17.55 243V244.734H17.95V243H17.55ZM17.55 244.734C17.55 246.844 16.8161 248.863 15.5313 250.469L15.8437 250.719C17.1839 249.043 17.95 246.937 17.95 244.734H17.55ZM15.5321 250.468L14.7352 251.452L15.0461 251.704L15.8429 250.72L15.5321 250.468ZM14.7242 251.467C14.6093 251.64 14.55 251.819 14.55 252.047H14.95C14.95 251.9 14.9845 251.798 15.057 251.689L14.7242 251.467ZM14.55 252.047C14.55 252.532 14.9677 252.95 15.4531 252.95V252.55C15.1886 252.55 14.95 252.311 14.95 252.047H14.55ZM15.4531 252.95H33.5V252.55H15.4531V252.95ZM33.5 252.95C33.7441 252.95 33.9784 252.844 34.1508 252.686C34.3232 252.528 34.45 252.302 34.45 252.047H34.05C34.05 252.167 33.9893 252.292 33.8805 252.392C33.7716 252.491 33.6309 252.55 33.5 252.55V252.95ZM34.45 252.047C34.45 251.79 34.3184 251.601 34.2289 251.467L33.8961 251.689C33.9941 251.836 34.05 251.929 34.05 252.047H34.45ZM34.2179 251.452L33.4211 250.468L33.1102 250.72L33.9071 251.704L34.2179 251.452ZM33.4218 250.469C32.1389 248.865 31.45 246.847 31.45 244.734H31.05C31.05 246.934 31.7674 249.041 33.1095 250.719L33.4218 250.469ZM31.45 244.734V243H31.05V244.734H31.45ZM31.45 243C31.45 239.186 28.3136 236.05 24.5 236.05V236.45C28.0927 236.45 31.05 239.407 31.05 243H31.45ZM22.7648 256.735C23.2244 257.195 23.8379 257.45 24.5 257.45V257.05C23.9434 257.05 23.4318 256.836 23.0477 256.452L22.7648 256.735ZM24.5 257.45C25.1175 257.45 25.7303 257.193 26.1883 256.735L25.9055 256.452C25.5197 256.838 25.0075 257.05 24.5 257.05V257.45ZM26.1883 256.735C26.6401 256.283 26.95 255.672 26.95 255H26.55C26.55 255.547 26.2974 256.06 25.9055 256.452L26.1883 256.735ZM26.95 255C26.95 254.906 27.0171 254.825 27.125 254.825V254.425C26.7641 254.425 26.55 254.719 26.55 255H26.95ZM27.125 254.825C27.1537 254.825 27.1991 254.841 27.2414 254.884C27.2836 254.926 27.3 254.971 27.3 255H27.7C27.7 254.841 27.6226 254.699 27.5242 254.601C27.4259 254.502 27.2838 254.425 27.125 254.425V254.825ZM27.3 255C27.3 255.744 26.9927 256.49 26.468 257.015L26.7508 257.298C27.3511 256.697 27.7 255.85 27.7 255H27.3ZM26.468 257.015C25.9476 257.535 25.2039 257.8 24.5 257.8V258.2C25.2961 258.2 26.1462 257.902 26.7508 257.298L26.468 257.015ZM24.5 257.8C23.7476 257.8 23.0045 257.534 22.4852 257.015L22.2023 257.298C22.808 257.903 23.6587 258.2 24.5 258.2V257.8ZM22.4852 257.015C21.9658 256.495 21.7 255.752 21.7 255H21.3C21.3 255.841 21.5967 256.692 22.2023 257.298L22.4852 257.015ZM21.7 255C21.7 254.906 21.7671 254.825 21.875 254.825V254.425C21.5141 254.425 21.3 254.719 21.3 255H21.7ZM21.875 254.825C21.9037 254.825 21.9491 254.841 21.9914 254.884C22.0336 254.926 22.05 254.971 22.05 255H22.45C22.45 254.841 22.3726 254.699 22.2742 254.601C22.1759 254.502 22.0338 254.425 21.875 254.425V254.825ZM22.05 255C22.05 255.662 22.3052 256.276 22.7648 256.735L23.0477 256.452C22.6635 256.068 22.45 255.557 22.45 255H22.05Z" fill="#E6E6E6"/>
<defs>
<clipPath id="clip0_410_8940">
<rect width="24" height="28" fill="white" transform="translate(13 10)"/>
</clipPath>
<clipPath id="clip1_410_8940">
<rect width="19" height="27" fill="white" transform="translate(15.5 84.5)"/>
</clipPath>
</defs>
</svg>
