<svg width="4" height="11" viewBox="0 0 4 11" fill="none" xmlns="http://www.w3.org/2000/svg">
<path d="M2 8.125C2.60938 8.125 3.125 8.64062 3.125 9.25C3.125 9.88281 2.60938 10.375 2 10.375C1.36719 10.375 0.875 9.88281 0.875 9.25C0.875 8.64062 1.36719 8.125 2 8.125ZM2 4.375C2.60938 4.375 3.125 4.89062 3.125 5.5C3.125 6.13281 2.60938 6.625 2 6.625C1.36719 6.625 0.875 6.13281 0.875 5.5C0.875 4.89062 1.36719 4.375 2 4.375ZM2 2.875C1.36719 2.875 0.875 2.38281 0.875 1.75C0.875 1.14062 1.36719 0.625 2 0.625C2.60938 0.625 3.125 1.14062 3.125 1.75C3.125 2.38281 2.60938 2.875 2 2.875Z" fill="#D7D7D7"/>
</svg>
