<svg width="29" height="23" viewBox="0 0 29 23" fill="none" xmlns="http://www.w3.org/2000/svg">
<path d="M5.34766 13.125C5.82031 12.8242 6.46484 12.9961 6.72266 13.5117C6.98047 13.9844 6.85156 14.6289 6.37891 14.8867L3.97266 16.2617C3.67188 16.4766 3.24219 16.4766 2.94141 16.3047C2.59766 16.0898 2.42578 15.7461 2.42578 15.4023C2.42578 15.0156 2.64062 14.6719 2.94141 14.5L5.34766 13.125ZM6.37891 3.15625C6.67969 3.32812 6.89453 3.67188 6.89453 4.05859C6.89453 4.40234 6.67969 4.74609 6.37891 4.96094C6.03516 5.13281 5.64844 5.13281 5.34766 4.91797L2.94141 3.54297C2.64062 3.37109 2.42578 3.02734 2.42578 2.64062C2.42578 2.29688 2.59766 1.95312 2.94141 1.73828C3.24219 1.56641 3.67188 1.56641 3.97266 1.78125L6.37891 3.15625ZM5.5625 9C5.5625 9.60156 5.08984 10.0312 4.53125 10.0312H1.78125C1.17969 10.0312 0.75 9.60156 0.75 9C0.75 8.44141 1.17969 7.96875 1.78125 7.96875H4.53125C5.08984 7.96875 5.5625 8.44141 5.5625 9ZM23.1367 5.04688C22.6641 5.04688 22.2344 4.74609 22.1055 4.31641C22.0195 3.84375 22.1914 3.37109 22.6211 3.15625L24.9844 1.78125C25.457 1.48047 26.1016 1.65234 26.3594 2.16797C26.6602 2.64062 26.4883 3.24219 26.0156 3.54297L23.6523 4.91797C23.4805 5.00391 23.3086 5.04688 23.1367 5.04688ZM27.2188 7.96875C27.7773 7.96875 28.25 8.44141 28.25 9C28.25 9.60156 27.7773 10.0312 27.2188 10.0312H24.4688C23.8672 10.0312 23.4375 9.60156 23.4375 9C23.4375 8.44141 23.8672 7.96875 24.4688 7.96875H27.2188ZM26.0156 14.5C26.4883 14.7578 26.6602 15.4023 26.3594 15.875C26.1016 16.3906 25.457 16.5625 24.9844 16.2617L22.5781 14.8867C22.2773 14.7148 22.0625 14.3711 22.0625 13.9844C22.0625 13.6406 22.2773 13.2969 22.5781 13.082C22.9219 12.9102 23.3086 12.9102 23.6094 13.125L26.0156 14.5ZM14.5 0.792969C18.668 0.792969 22.0625 4.14453 22.0625 8.3125C22.0625 10.2461 21.332 11.9648 20.1719 13.2539C19.4414 14.0703 18.3672 15.7891 17.9375 17.207C17.9375 17.207 17.9375 17.207 17.9375 17.25H11.0195C11.0195 17.207 11.0195 17.207 11.0195 17.207C10.5898 15.7891 9.51562 14.0703 8.78516 13.2539C7.625 11.9219 6.9375 10.2031 6.9375 8.3125C6.9375 4.31641 10.1172 0.792969 14.5 0.792969ZM18.625 11.9648C19.4844 10.9336 20 9.64453 20 8.3125C20 5.30469 17.5078 2.8125 14.457 2.8125C11.0625 2.85547 9 5.64844 9 8.3125C9 9.64453 9.47266 10.9336 10.332 11.9648C11.0195 12.6953 11.8359 13.9414 12.4375 15.1875H16.5195C17.1211 13.9414 17.9375 12.6953 18.625 11.9648ZM11.0625 20.3008V18.668H17.9375V20.3008C17.9375 20.5156 17.8086 20.8594 17.6797 21.0742L16.9492 22.1484C16.7344 22.4922 16.2188 22.793 15.7891 22.793H13.168C12.7383 22.793 12.2227 22.4922 12.0078 22.1484L11.2773 21.0742C11.1055 20.8164 11.0625 20.5586 11.0625 20.3008ZM13.8125 4.1875C14.1562 4.1875 14.5 4.53125 14.5 4.91797C14.5 5.26172 14.1562 5.5625 13.8125 5.5625C12.6523 5.5625 11.75 6.50781 11.75 7.625C11.75 8.01172 11.4062 8.35547 11.0625 8.35547C10.6758 8.35547 10.375 8.01172 10.375 7.625C10.375 5.73438 11.8789 4.1875 13.8125 4.1875Z" fill="#D6C635"/>
</svg>
