<svg width="19" height="23" viewBox="0 0 19 23" fill="none" xmlns="http://www.w3.org/2000/svg">
<g clip-path="url(#clip0_4604_46828)">
<path d="M5.53711 1.86328C5.74219 1.41211 6.19336 1.125 6.68555 1.125L11.6484 1.125C12.1406 1.125 12.5918 1.41211 12.7969 1.86328L13.125 2.4375L17.0625 2.4375C17.7598 2.4375 18.375 3.05273 18.375 3.75C18.375 4.48828 17.7598 5.0625 17.0625 5.0625L1.3125 5.0625C0.574218 5.0625 -1.22597e-06 4.48828 -1.35505e-06 3.75C-1.47697e-06 3.05273 0.574217 2.4375 1.3125 2.4375L5.25 2.4375L5.53711 1.86328ZM1.27148 6.375L17.0625 6.375L17.0625 19.5C17.0625 20.9766 15.873 22.125 14.4375 22.125L3.89649 22.125C2.46094 22.125 1.27149 20.9766 1.27149 19.5L1.27148 6.375ZM4.55273 9.65625L4.55274 18.8437C4.55274 19.2129 4.88086 19.5 5.20899 19.5C5.57813 19.5 5.86524 19.2129 5.86524 18.8437L5.86523 9.65625C5.86523 9.32812 5.57812 9 5.20898 9C4.88086 9 4.55273 9.32812 4.55273 9.65625ZM8.49023 9.65625L8.49024 18.8437C8.49024 19.2129 8.81836 19.5 9.14649 19.5C9.51563 19.5 9.84375 19.2129 9.84375 18.8437L9.84375 9.65625C9.84375 9.32812 9.51562 9 9.14648 9C8.81836 9 8.49023 9.32812 8.49023 9.65625ZM12.4687 9.65625L12.4688 18.8437C12.4688 19.2129 12.7559 19.5 13.125 19.5C13.4531 19.5 13.7813 19.2129 13.7813 18.8437L13.7812 9.65625C13.7812 9.32812 13.4531 9 13.125 9C12.7559 9 12.4687 9.32812 12.4687 9.65625Z" fill="#FD6D6D"/>
</g>
<defs>
<clipPath id="clip0_4604_46828">
<rect width="19" height="22" fill="white" transform="translate(0 0.5)"/>
</clipPath>
</defs>
</svg>
