<svg width="24" height="25" viewBox="0 0 24 25" fill="none" xmlns="http://www.w3.org/2000/svg">
<path fill-rule="evenodd" clip-rule="evenodd" d="M2.29297 3.125C2.29297 1.41602 3.66016 0 5.41797 0H13.0352C13.6211 0 14.2559 0.292969 14.6953 0.732422L20.3105 6.34766C20.75 6.78711 21.043 7.42188 21.043 8.00781V11.0371H22.332C22.8843 11.0371 23.332 11.4848 23.332 12.0371V20.875C23.332 21.4273 22.8843 21.875 22.332 21.875H21.043C21.043 23.6328 19.627 25 17.918 25H5.41797C3.66016 25 2.29297 23.6328 2.29297 21.875H1C0.447716 21.875 0 21.4273 0 20.875V12.0371C0 11.4848 0.447715 11.0371 1 11.0371H2.29297V3.125ZM2.29297 12.2371V12.2383H3.85547V12.2371H19.4805V12.2383H21.043V12.2371H22.132V20.675H1.2V12.2371H2.29297ZM19.4805 11.0371H3.85547V3.125C3.85547 2.29492 4.53906 1.5625 5.41797 1.5625H11.668V7.03125C11.668 8.34961 12.6934 9.375 14.0117 9.375H19.4805V11.0371ZM3.85547 21.875C3.85547 22.7539 4.53906 23.4375 5.41797 23.4375H17.918C18.748 23.4375 19.4805 22.7539 19.4805 21.875H3.85547ZM19.2363 7.4707L13.5723 1.80664C13.4977 1.73204 13.3946 1.68593 13.3065 1.64655L13.3065 1.64655C13.2793 1.63438 13.2535 1.62285 13.2305 1.61133V7.03125C13.2305 7.4707 13.5723 7.8125 14.0117 7.8125H19.4316C19.4201 7.78945 19.4086 7.76368 19.3964 7.73648L19.3964 7.73646C19.357 7.6484 19.3109 7.54531 19.2363 7.4707Z" fill="white"/>
</svg>
