<svg width="19" height="11" viewBox="0 0 19 11" fill="none" xmlns="http://www.w3.org/2000/svg">
<path d="M18.918 10.6895C18.8359 10.7715 18.7539 10.7715 18.7129 10.7715C18.5898 10.7715 18.5078 10.7715 18.4668 10.6895L9.8125 1.0918L1.19922 10.6895C1.07617 10.8125 0.871093 10.8125 0.748047 10.6895C0.625 10.5664 0.625 10.3613 0.748047 10.2383L9.60742 0.39453C9.73047 0.271484 9.93555 0.271484 10.0586 0.39453L18.918 10.2383C19.041 10.3613 19.041 10.6074 18.918 10.6895Z" fill="#E6E6E6"/>
<path d="M18.918 10.6895L18.807 10.523L18.7906 10.534L18.7765 10.548L18.918 10.6895ZM18.4668 10.6895L18.6457 10.6L18.6335 10.5757L18.6153 10.5555L18.4668 10.6895ZM9.8125 1.0918L9.96103 0.957863L9.81215 0.792748L9.66365 0.958214L9.8125 1.0918ZM1.19922 10.6895L1.34085 10.8311L1.34807 10.823L1.19922 10.6895ZM0.748047 10.2383L0.889663 10.3799L0.896705 10.3721L0.748047 10.2383ZM9.60742 0.39453L9.46581 0.252913L9.45876 0.260738L9.60742 0.39453ZM10.0586 0.39453L10.2075 0.260552L10.2 0.253109L10.0586 0.39453ZM18.918 10.2383L18.7691 10.3723L18.7765 10.3797L18.918 10.2383ZM18.7765 10.548C18.7607 10.5639 18.7499 10.5676 18.7451 10.5689C18.7381 10.5709 18.7316 10.5715 18.7129 10.5715L18.7129 10.9715C18.7694 10.9715 18.9198 10.9705 19.0594 10.8309L18.7765 10.548ZM18.7129 10.5715C18.6808 10.5715 18.658 10.5714 18.6383 10.5705C18.6187 10.5695 18.6102 10.5678 18.6076 10.5672C18.6061 10.5668 18.6143 10.5687 18.6252 10.5769C18.637 10.5857 18.6434 10.5955 18.6457 10.6L18.2879 10.7789C18.3387 10.8804 18.4225 10.9332 18.5106 10.9553C18.5808 10.9728 18.6602 10.9715 18.7129 10.9715L18.7129 10.5715ZM18.6153 10.5555L9.96103 0.957863L9.66397 1.22573L18.3183 10.8234L18.6153 10.5555ZM9.66365 0.958214L1.05037 10.5559L1.34807 10.823L9.96135 1.22538L9.66365 0.958214ZM1.0578 10.548C1.01286 10.593 0.93441 10.593 0.889469 10.548L0.606624 10.8309C0.807777 11.032 1.13949 11.032 1.34064 10.8309L1.0578 10.548ZM0.889469 10.548C0.844526 10.5031 0.844526 10.4246 0.889469 10.3797L0.606624 10.0969C0.405473 10.298 0.405473 10.6297 0.606624 10.8309L0.889469 10.548ZM0.896705 10.3721L9.75608 0.528323L9.45876 0.260738L0.599388 10.1045L0.896705 10.3721ZM9.74884 0.535952C9.79379 0.49101 9.87223 0.49101 9.91717 0.535952L10.2 0.253109C9.99886 0.0519573 9.66715 0.0519573 9.466 0.253109L9.74884 0.535952ZM9.90994 0.528323L18.7693 10.3721L19.0666 10.1045L10.2073 0.260738L9.90994 0.528323ZM18.7765 10.3797C18.793 10.3961 18.8103 10.4334 18.8103 10.4792C18.8103 10.5003 18.8064 10.5156 18.8029 10.524C18.7994 10.5323 18.7987 10.5286 18.807 10.523L19.0289 10.8559C19.1674 10.7635 19.2103 10.6028 19.2103 10.4792C19.2103 10.3508 19.166 10.2035 19.0594 10.0969L18.7765 10.3797Z" fill="white"/>
</svg>
