<svg width="12" height="16" viewBox="0 0 12 16" fill="none" xmlns="http://www.w3.org/2000/svg">
<path d="M5.46875 6.96875L2.96875 9.46875C2.65625 9.78125 2.65625 10.25 2.96875 10.5312C3.25 10.8438 3.71875 10.8438 4 10.5312L5.25 9.3125V12.5C5.25 12.9375 5.5625 13.25 6 13.25C6.40625 13.25 6.75 12.9375 6.75 12.5V9.3125L7.96875 10.5312C8.09375 10.6875 8.28125 10.75 8.5 10.75C8.6875 10.75 8.875 10.6875 9 10.5312C9.3125 10.25 9.3125 9.78125 9 9.5L6.5 7C6.21875 6.6875 5.75 6.6875 5.46875 6.96875ZM11.4062 2.9375L9.0625 0.59375C8.6875 0.21875 8.1875 0 7.65625 0H2C0.875 0 0 0.90625 0 2V14C0 15.125 0.875 16 2 16H10C11.0938 16 12 15.125 12 14V4.34375C12 3.8125 11.7812 3.3125 11.4062 2.9375ZM10.5 14C10.5 14.2812 10.25 14.5 10 14.5H2C1.71875 14.5 1.5 14.2812 1.5 14V2.03125C1.5 1.75 1.71875 1.53125 2 1.53125H7V4C7 4.5625 7.4375 5 8 5H10.4688V14H10.5Z" fill="#293842"/>
</svg>
