<svg width="24" height="19" viewBox="0 0 24 19" fill="none" xmlns="http://www.w3.org/2000/svg">
<path d="M7.25 9.5C7.25 6.76562 9.47656 4.5 12.25 4.5C14.9844 4.5 17.25 6.76562 17.25 9.5C17.25 12.2734 14.9844 14.5 12.25 14.5C9.47656 14.5 7.25 12.2734 7.25 9.5ZM12.25 12.625C13.9688 12.625 15.375 11.2578 15.375 9.5C15.375 7.78125 13.9688 6.375 12.25 6.375C12.2109 6.375 12.1719 6.375 12.1328 6.375C12.2109 6.60938 12.25 6.80469 12.25 7C12.25 8.40625 11.1172 9.5 9.75 9.5C9.51562 9.5 9.32031 9.5 9.125 9.42188C9.125 9.46094 9.125 9.5 9.125 9.5C9.125 11.2578 10.4922 12.625 12.25 12.625ZM4.71094 3.91406C6.54688 2.19531 9.08594 0.75 12.25 0.75C15.375 0.75 17.9141 2.19531 19.75 3.91406C21.5859 5.59375 22.7969 7.625 23.3828 9.03125C23.5 9.34375 23.5 9.69531 23.3828 10.0078C22.7969 11.375 21.5859 13.4062 19.75 15.125C17.9141 16.8438 15.375 18.25 12.25 18.25C9.08594 18.25 6.54688 16.8438 4.71094 15.125C2.875 13.4062 1.66406 11.375 1.07812 10.0078C0.960938 9.69531 0.960938 9.34375 1.07812 9.03125C1.66406 7.625 2.875 5.59375 4.71094 3.91406ZM12.25 2.625C9.67188 2.625 7.60156 3.79688 6 5.28125C4.47656 6.6875 3.46094 8.32812 2.91406 9.5C3.46094 10.6719 4.47656 12.3516 6 13.7578C7.60156 15.2422 9.67188 16.375 12.25 16.375C14.7891 16.375 16.8594 15.2422 18.4609 13.7578C19.9844 12.3516 21 10.6719 21.5469 9.5C21 8.32812 19.9844 6.6875 18.4609 5.28125C16.8594 3.79688 14.7891 2.625 12.25 2.625Z" fill="#FFF9F9"/>
</svg>
