<?xml version="1.0" encoding="UTF-8"?>
<svg width="1200pt" height="1200pt" version="1.1" viewBox="0 0 1200 1200" xmlns="http://www.w3.org/2000/svg">
 <path d="m930.47 756.97h-83.27l-92.387-425.04h26.398v-50.617h-37.402l-40.73-187.34h-81.41l0.003906-33.973h-57.266v33.973h-78.613l-40.727 187.34h-38.062v50.617h27.059l-92.398 425.04h-83.27v50.617h72.266l-72.266 332.41h70.453l6.2656-28.824 229.3-141.61-0.003906 170.44h57.266v-172.16l232.08 143.34 6.2773 28.824h70.453l-72.266-332.41h72.266v-50.617zm-432.42-395.26 66.359 42.742v2.0898l-88.188 55.586zm278.7 395.26h-155.07v-99.562l154.68 97.715zm-155.07-252.46v-63.168l98.074 63.168zm71.27 30.48-71.258 44.867v-44.867zm-128.54-30.48h-97.391l97.391-61.367zm0 30.48v42.168l-66.742-42.168zm65.57 83.605 102.65-64.621 32.629 150.09zm-6.168-212.88 67.355-42.445 21.695 99.805zm-2.1367-35.254v-38.531h61.141zm-57.266-3-55.152-35.52h55.152zm-4.1992 251.1-136.7 86.062 32.953-151.61zm4.1992 41.316v97.094h-152.28l0.30078-1.4023zm0 147.71v78.312l-126.8-78.312zm57.266 0h129.57l-129.57 80.027zm30.602-623.21 21.07 96.949h-51.672v-96.949zm-115.68 0h27.805v96.949h-48.879zm-140.09 644.39 160.22 98.965-209.91 129.66zm235.63 98.961 160.22-98.965 49.691 228.61z"/>
</svg>
