<svg width="57" height="58" viewBox="0 0 57 58" fill="none" xmlns="http://www.w3.org/2000/svg">
<path fill-rule="evenodd" clip-rule="evenodd" d="M28.4243 57.6101C44.1222 57.6101 56.8478 44.8845 56.8478 29.1866C56.8478 13.4887 44.1222 0.763062 28.4243 0.763062C12.7264 0.763062 0.000732422 13.4887 0.000732422 29.1866C0.000732422 44.8845 12.7264 57.6101 28.4243 57.6101ZM28.4243 47.4777C38.5262 47.4777 46.7154 39.2885 46.7154 29.1866C46.7154 19.0847 38.5262 10.8955 28.4243 10.8955C18.3224 10.8955 10.1331 19.0847 10.1331 29.1866C10.1331 39.2885 18.3224 47.4777 28.4243 47.4777Z" fill="#1543C2"/>
<path d="M26.0234 28.7408H27.5769C29.0289 28.7408 30.1153 28.4565 30.8362 27.8879C31.5571 27.3091 31.9176 26.4714 31.9176 25.3748C31.9176 24.2681 31.613 23.4507 31.0038 22.9227C30.4047 22.3947 29.4604 22.1307 28.1709 22.1307H26.0234V28.7408ZM36.6848 25.2073C36.6848 27.6035 35.9334 29.4363 34.4306 30.7055C32.938 31.9747 30.8108 32.6093 28.049 32.6093H26.0234V40.5292H21.3019V18.2622H28.4146C31.1155 18.2622 33.1665 18.846 34.5677 20.0137C35.9791 21.1712 36.6848 22.9024 36.6848 25.2073Z" fill="#1543C2"/>
</svg>
