<svg width="43" height="67" viewBox="0 0 43 67" fill="none" xmlns="http://www.w3.org/2000/svg">
<g filter="url(#filter0_d_1465_3439)">
<path d="M40.7526 42.3341H36.0021L30.7313 18.0854H32.2374V15.1977H30.1035L27.78 4.50965H26.1814H23.76H23.1356V2.57153H19.8687V4.50965H19.4031H16.9433H15.3838L13.0603 15.1977H10.8887V18.0854H12.4325L7.161 42.3341H2.41052V45.2218H6.53322L2.41052 64.1861H6.42984L6.78721 62.5417L19.8687 54.4626V64.1861H23.1356V54.364L36.3759 62.5417L36.7339 64.1861H40.7533L36.6306 45.2218H40.7533L40.7526 42.3341ZM16.0828 19.7846L19.8687 22.2232V22.3423L14.8375 25.5134L16.0828 19.7846ZM31.9828 42.3341H23.1356V36.654L31.9602 42.2287L31.9828 42.3341ZM23.1356 27.9314V24.3276L28.7309 27.9314H23.1356ZM27.2015 29.6703L23.1363 32.23V29.6703H27.2015ZM19.8687 27.9314H14.3124L19.8687 24.4303V27.9314ZM19.8687 29.6703V32.076L16.0609 29.6703H19.8687ZM23.6094 34.4399L29.4655 30.7533L31.3269 39.3157L23.6094 34.4399ZM23.2575 22.295L27.1002 19.8736L28.3379 25.5674L23.2575 22.295ZM23.1356 20.2837V18.0854H26.6237L23.1356 20.2837ZM19.8687 20.1125L16.7222 18.0861H19.8687V20.1125ZM19.629 34.4379L11.83 39.3479L13.7099 30.6986L19.629 34.4379ZM19.8687 36.795V42.3341H11.181L11.1981 42.254L19.8687 36.795ZM19.8687 45.2218V49.6895L12.6344 45.2218H19.8687ZM23.1356 45.2218H30.528L23.1356 49.7874V45.2218ZM24.8813 9.66747L26.0835 15.1984H23.1356V9.66747H24.8813ZM18.2817 9.66747H19.868V15.1984H17.0796L18.2817 9.66747ZM10.2897 46.4301L19.4305 52.0761L7.4547 59.4732L10.2897 46.4301ZM23.7326 52.0761L32.8734 46.4301L35.7084 59.4726L23.7326 52.0761Z" fill="black"/>
</g>
<defs>
<filter id="filter0_d_1465_3439" x="0.410522" y="0.571533" width="42.3427" height="65.6145" filterUnits="userSpaceOnUse" color-interpolation-filters="sRGB">
<feFlood flood-opacity="0" result="BackgroundImageFix"/>
<feColorMatrix in="SourceAlpha" type="matrix" values="0 0 0 0 0 0 0 0 0 0 0 0 0 0 0 0 0 0 127 0" result="hardAlpha"/>
<feOffset/>
<feGaussianBlur stdDeviation="1"/>
<feComposite in2="hardAlpha" operator="out"/>
<feColorMatrix type="matrix" values="0 0 0 0 1 0 0 0 0 1 0 0 0 0 1 0 0 0 1 0"/>
<feBlend mode="normal" in2="BackgroundImageFix" result="effect1_dropShadow_1465_3439"/>
<feBlend mode="normal" in="SourceGraphic" in2="effect1_dropShadow_1465_3439" result="shape"/>
</filter>
</defs>
</svg>
