<svg width="55" height="56" viewBox="0 0 55 56" fill="none" xmlns="http://www.w3.org/2000/svg">
<path fill-rule="evenodd" clip-rule="evenodd" d="M40.0196 27.4016C39.7319 24.7992 38.6617 22.4327 37.0494 20.5426L53.3141 2.9226C53.8452 2.34722 53.8093 1.45022 53.2339 0.9191C52.6585 0.387978 51.7615 0.423858 51.2304 0.99924L34.982 18.6017C33.2074 17.2718 31.0749 16.3934 28.7549 16.1369V3.2986C28.7549 2.51556 28.1201 1.88078 27.3371 1.88078C26.554 1.88078 25.9193 2.51556 25.9193 3.2986V16.1369C23.6648 16.3861 21.5874 17.2226 19.8434 18.4901L12.7436 11.3903C12.1899 10.8366 11.2922 10.8366 10.7385 11.3903C10.1848 11.944 10.1848 12.8417 10.7385 13.3954L17.7458 20.4028C16.0661 22.3154 14.9494 24.7346 14.6546 27.4016H1.81626C1.03322 27.4016 0.398438 28.0364 0.398438 28.8194C0.398438 29.6025 1.03322 30.2373 1.81626 30.2373H14.6546C15.3084 36.1519 20.0046 40.8481 25.9193 41.502V54.3403C25.9193 55.1233 26.554 55.7581 27.3371 55.7581C28.1201 55.7581 28.7549 55.1233 28.7549 54.3403V41.502C31.4219 41.2071 33.8411 40.0904 35.7538 38.4107L45.5968 48.2537C46.1505 48.8074 47.0482 48.8074 47.6019 48.2537C48.1556 47.7 48.1556 46.8023 47.6019 46.2486L37.6664 36.3131C38.9339 34.5691 39.7704 32.4917 40.0196 30.2373H52.8579C53.641 30.2373 54.2757 29.6025 54.2757 28.8194C54.2757 28.0364 53.641 27.4016 52.8579 27.4016H40.0196ZM27.3369 37.305C32.1231 37.305 36.003 33.425 36.003 28.6388C36.003 23.8526 32.1231 19.9727 27.3369 19.9727C22.5507 19.9727 18.6708 23.8526 18.6708 28.6388C18.6708 33.425 22.5507 37.305 27.3369 37.305Z" fill="#FF0000"/>
</svg>
