<svg width="56" height="53" viewBox="0 0 56 53" fill="none" xmlns="http://www.w3.org/2000/svg">
<path fill-rule="evenodd" clip-rule="evenodd" d="M37.0853 42.6678C39.813 40.0094 41.1768 36.1741 41.1768 31.1618C41.1768 26.4681 39.8683 22.8127 37.2515 20.1959C34.6346 17.579 30.9654 16.2705 26.2439 16.2705H16.9395V46.6347H25.3509C30.46 46.6347 34.3715 45.3124 37.0853 42.6678ZM34.4477 22.3351C36.4415 24.3427 37.4384 27.3265 37.4384 31.2865C37.4384 35.3433 36.3792 38.4102 34.2607 40.4871C32.1423 42.5501 28.9785 43.5816 24.7694 43.5816H20.4702V19.3236H25.6001C29.5185 19.3236 32.4677 20.3274 34.4477 22.3351Z" fill="#7D7D7D"/>
<path fill-rule="evenodd" clip-rule="evenodd" d="M28.361 0.763062L41.9307 10.9437L55.8063 20.7033L50.3172 36.7548L45.3231 52.9672L28.361 52.707L11.3988 52.9672L6.40471 36.7548L0.915649 20.7033L14.7913 10.9437L28.361 0.763062ZM52.4348 21.7987L47.6201 35.8784L43.2394 50.0992L28.361 49.871L13.4825 50.0992L9.10189 35.8784L4.28712 21.7987L16.4582 13.238L28.361 4.30804L40.2638 13.238L52.4348 21.7987Z" fill="#7D7D7D"/>
</svg>
