<svg width="55" height="56" viewBox="0 0 55 56" fill="none" xmlns="http://www.w3.org/2000/svg">
<path d="M40.565 28.4185C40.565 35.4659 34.852 41.179 27.8046 41.179C20.7572 41.179 15.0442 35.4659 15.0442 28.4185C15.0442 21.3712 20.7572 15.6581 27.8046 15.6581C34.852 15.6581 40.565 21.3712 40.565 28.4185Z" fill="#FF0000"/>
<path fill-rule="evenodd" clip-rule="evenodd" d="M19.6737 37.3816C19.0983 36.8505 19.0624 35.9535 19.5935 35.3781L51.6979 0.598361C52.2291 0.0229792 53.1261 -0.0129013 53.7014 0.518221C54.2768 1.04934 54.3127 1.94634 53.7816 2.52172L21.6772 37.3015C21.1461 37.8769 20.2491 37.9128 19.6737 37.3816Z" fill="#FF0000"/>
<path fill-rule="evenodd" clip-rule="evenodd" d="M27.8046 55.3572C27.0216 55.3572 26.3868 54.7224 26.3868 53.9394L26.3868 2.89773C26.3868 2.11468 27.0216 1.4799 27.8046 1.4799C28.5877 1.4799 29.2224 2.11468 29.2224 2.89773L29.2224 53.9394C29.2224 54.7224 28.5877 55.3572 27.8046 55.3572Z" fill="#FF0000"/>
<path fill-rule="evenodd" clip-rule="evenodd" d="M48.0694 47.8528C47.5157 48.4065 46.618 48.4065 46.0643 47.8528L11.206 12.9945C10.6523 12.4408 10.6523 11.5431 11.206 10.9894C11.7597 10.4357 12.6574 10.4357 13.2111 10.9894L48.0694 45.8477C48.6231 46.4014 48.6231 47.2991 48.0694 47.8528Z" fill="#FF0000"/>
<path fill-rule="evenodd" clip-rule="evenodd" d="M0.865967 28.4185C0.865967 27.6355 1.50075 27.0007 2.28379 27.0007H53.3254C54.1085 27.0007 54.7433 27.6355 54.7433 28.4185C54.7433 29.2016 54.1085 29.8364 53.3254 29.8364H2.28379C1.50075 29.8364 0.865967 29.2016 0.865967 28.4185Z" fill="#FF0000"/>
</svg>
