<svg width="55" height="55" viewBox="0 0 55 55" fill="none" xmlns="http://www.w3.org/2000/svg">
<path d="M40.4287 27.7017C40.4287 34.7491 34.7156 40.4621 27.6683 40.4621C20.6209 40.4621 14.9079 34.7491 14.9079 27.7017C14.9079 20.6543 20.6209 14.9413 27.6683 14.9413C34.7156 14.9413 40.4287 20.6543 40.4287 27.7017Z" fill="#7D7D7D"/>
<path fill-rule="evenodd" clip-rule="evenodd" d="M54.6069 2.18089C55.1454 2.74934 55.1212 3.64673 54.5527 4.18526L2.73399 53.2767C2.16554 53.8152 1.26815 53.791 0.729619 53.2225C0.191086 52.6541 0.215339 51.7567 0.78379 51.2182L52.6025 2.12672C53.171 1.58818 54.0684 1.61244 54.6069 2.18089Z" fill="#7D7D7D"/>
<path fill-rule="evenodd" clip-rule="evenodd" d="M27.6683 0.763062C28.4513 0.763061 29.0861 1.39784 29.0861 2.18089L29.0861 53.2225C29.0861 54.0056 28.4513 54.6404 27.6683 54.6404C26.8852 54.6404 26.2505 54.0056 26.2505 53.2225L26.2504 2.18089C26.2504 1.39784 26.8852 0.763062 27.6683 0.763062Z" fill="#7D7D7D"/>
<path fill-rule="evenodd" clip-rule="evenodd" d="M9.23657 9.27001C9.79026 8.71631 10.688 8.71631 11.2417 9.27001L46.1 44.1283C46.6537 44.682 46.6537 45.5797 46.1 46.1334C45.5463 46.6871 44.6486 46.6871 44.0949 46.1334L9.23657 11.2751C8.68287 10.7214 8.68287 9.8237 9.23657 9.27001Z" fill="#7D7D7D"/>
<path fill-rule="evenodd" clip-rule="evenodd" d="M54.6069 27.7017C54.6069 28.4848 53.9721 29.1195 53.1891 29.1195H2.14744C1.3644 29.1195 0.72962 28.4848 0.72962 27.7017C0.72962 26.9187 1.3644 26.2839 2.14744 26.2839H53.1891C53.9721 26.2839 54.6069 26.9187 54.6069 27.7017Z" fill="#7D7D7D"/>
</svg>
