<svg width="55" height="55" viewBox="0 0 55 55" fill="none" xmlns="http://www.w3.org/2000/svg">
<path fill-rule="evenodd" clip-rule="evenodd" d="M27.3868 0.966797C28.1698 0.966797 28.8046 1.60158 28.8046 2.38462V15.2229C34.7192 15.8767 39.4155 20.573 40.0693 26.4876H52.9076C53.6906 26.4876 54.3254 27.1224 54.3254 27.9054C54.3254 28.6885 53.6906 29.3233 52.9076 29.3233H40.0693C39.4155 35.2379 34.7192 39.9341 28.8046 40.588V53.4263C28.8046 54.2093 28.1698 54.8441 27.3868 54.8441C26.6037 54.8441 25.969 54.2093 25.969 53.4263V40.588C20.0543 39.9342 15.3581 35.2379 14.7042 29.3233H1.86594C1.0829 29.3233 0.44812 28.6885 0.44812 27.9054C0.44812 27.1224 1.0829 26.4876 1.86594 26.4876H14.7042C15.3581 20.573 20.0543 15.8767 25.9689 15.2229V2.38462C25.9689 1.60158 26.6037 0.966797 27.3868 0.966797ZM27.3868 36.5716C32.173 36.5716 36.0529 32.6916 36.0529 27.9054C36.0529 23.1193 32.173 19.2393 27.3868 19.2393C22.6006 19.2393 18.7206 23.1193 18.7206 27.9054C18.7206 32.6916 22.6006 36.5716 27.3868 36.5716Z" fill="#7D7D7D"/>
</svg>
