<svg width="56" height="53" viewBox="0 0 56 53" fill="none" xmlns="http://www.w3.org/2000/svg">
<path fill-rule="evenodd" clip-rule="evenodd" d="M28.3411 0.693604L41.9108 10.8742L55.7864 20.6338L50.2973 36.6854L45.3032 52.8977L28.3411 52.6375L11.3789 52.8977L6.38482 36.6854L0.895752 20.6338L14.7714 10.8742L28.3411 0.693604ZM52.4149 21.7293L47.6002 35.809L43.2195 50.0298L28.3411 49.8015L13.4626 50.0298L9.082 35.809L4.26722 21.7293L16.4383 13.1686L28.3411 4.23858L40.2439 13.1686L52.4149 21.7293Z" fill="#7D7D7D"/>
<path d="M40.3947 46.7224H36.8639V32.4334H20.8719V46.7224H17.3412V16.3583H20.8719V29.2765H36.8639V16.3583H40.3947V46.7224Z" fill="#7D7D7D"/>
</svg>
