<svg width="55" height="55" viewBox="0 0 55 55" fill="none" xmlns="http://www.w3.org/2000/svg">
<path d="M40.6853 27.4817C40.6853 34.5291 34.9722 40.2422 27.9249 40.2422C20.8775 40.2422 15.1644 34.5291 15.1644 27.4817C15.1644 20.4344 20.8775 14.7213 27.9249 14.7213C34.9722 14.7213 40.6853 20.4344 40.6853 27.4817Z" fill="#FF0000"/>
<path fill-rule="evenodd" clip-rule="evenodd" d="M48.2963 7.11028C48.85 7.66397 48.85 8.56169 48.2963 9.11538L9.76264 47.6491C9.20895 48.2028 8.31123 48.2028 7.75754 47.6491V47.6491C7.20384 47.0954 7.20809 46.1934 7.76178 45.6397C22.6369 30.7646 31.4119 21.9896 46.2869 7.11452C46.8406 6.56083 47.7426 6.55658 48.2963 7.11028V7.11028Z" fill="#FF0000"/>
<path fill-rule="evenodd" clip-rule="evenodd" d="M27.9249 0.543091C28.7079 0.543091 29.3427 1.17787 29.3427 1.96092L29.3427 53.0026C29.3427 53.7856 28.7079 54.4204 27.9249 54.4204V54.4204C27.1418 54.4204 26.507 53.7856 26.507 53.0026L26.507 1.96091C26.507 1.17787 27.1418 0.543091 27.9249 0.543091V0.543091Z" fill="#FF0000"/>
<path fill-rule="evenodd" clip-rule="evenodd" d="M7.70401 7.26091C8.25771 6.70722 9.15543 6.70722 9.70912 7.26091L48.2039 45.7556C48.7576 46.3093 48.7576 47.2071 48.2039 47.7608V47.7608C47.6502 48.3145 46.7525 48.3144 46.1988 47.7608L7.70401 9.26602C7.15032 8.71232 7.15032 7.8146 7.70401 7.26091V7.26091Z" fill="#FF0000"/>
<path fill-rule="evenodd" clip-rule="evenodd" d="M54.8635 27.4817C54.8635 28.2648 54.2287 28.8996 53.4457 28.8996H2.40403C1.62099 28.8996 0.986206 28.2648 0.986206 27.4817V27.4817C0.986206 26.6987 1.62099 26.0639 2.40403 26.0639H53.4457C54.2287 26.0639 54.8635 26.6987 54.8635 27.4817V27.4817Z" fill="#FF0000"/>
</svg>
