<svg width="55" height="55" viewBox="0 0 55 55" fill="none" xmlns="http://www.w3.org/2000/svg">
<path fill-rule="evenodd" clip-rule="evenodd" d="M28.8966 2.38462C28.8966 1.60158 28.2619 0.966797 27.4788 0.966797C26.6958 0.966797 26.061 1.60158 26.061 2.38462V15.2229C23.5999 15.495 21.3497 16.467 19.5139 17.9355L11.0522 9.47374C10.4985 8.92005 9.60081 8.92005 9.04711 9.47374C8.49342 10.0274 8.49342 10.9252 9.04711 11.4788L17.5088 19.9406C16.0403 21.7763 15.0683 24.0265 14.7963 26.4876H1.95799C1.17495 26.4876 0.540167 27.1224 0.540167 27.9054C0.540167 28.6885 1.17495 29.3233 1.95799 29.3233H14.7963C15.055 31.6641 15.947 33.8141 17.2971 35.5982L0.594337 51.4219C0.0258855 51.9604 0.00163251 52.8578 0.540166 53.4263C1.0787 53.9947 1.97609 54.019 2.54454 53.4804L19.2476 37.6565C21.1301 39.2472 23.4795 40.3026 26.061 40.588V53.4263C26.061 54.2093 26.6958 54.8441 27.4788 54.8441C28.2619 54.8441 28.8966 54.2093 28.8966 53.4263V40.588C31.3578 40.3159 33.6079 39.3439 35.4437 37.8754L43.9054 46.3372C44.4591 46.8909 45.3568 46.8909 45.9105 46.3372C46.4642 45.7835 46.4642 44.8857 45.9105 44.332L37.4488 35.8703C38.9173 34.0346 39.8893 31.7844 40.1613 29.3233H52.9996C53.7827 29.3233 54.4175 28.6885 54.4175 27.9054C54.4175 27.1224 53.7827 26.4876 52.9996 26.4876H40.1613C39.9026 24.1468 39.0106 21.9968 37.6605 20.2127L54.3633 4.389C54.9317 3.85046 54.956 2.95308 54.4175 2.38462C53.8789 1.81617 52.9815 1.79192 52.4131 2.33045L35.71 18.1544C33.8275 16.5637 31.4781 15.5083 28.8966 15.2229V2.38462ZM27.4788 36.5716C32.265 36.5716 36.1449 32.6916 36.1449 27.9054C36.1449 23.1193 32.265 19.2393 27.4788 19.2393C22.6926 19.2393 18.8127 23.1193 18.8127 27.9054C18.8127 32.6916 22.6926 36.5716 27.4788 36.5716Z" fill="#7D7D7D"/>
</svg>
