<svg width="48" height="48" viewBox="0 0 48 48" fill="none" xmlns="http://www.w3.org/2000/svg">
<path fill-rule="evenodd" clip-rule="evenodd" d="M0.863393 0.958363C1.41709 0.404667 2.3148 0.404667 2.8685 0.958363L11.3302 9.42008C13.5132 7.67385 16.2822 6.62966 19.2951 6.62966C26.3425 6.62966 32.0555 12.3427 32.0555 19.3901C32.0555 22.403 31.0113 25.172 29.2651 27.355L36.6563 34.7462L38.9758 32.4267C39.2492 32.1534 39.7099 32.2276 39.8835 32.573L46.9766 46.6824C47.2219 47.1704 46.7032 47.6891 46.2152 47.4438L32.1058 40.3507C31.7604 40.1771 31.6862 39.7164 31.9595 39.443L34.6512 36.7513L27.26 29.3601C25.077 31.1063 22.308 32.1505 19.2951 32.1505C12.2477 32.1505 6.53469 26.4374 6.53469 19.3901C6.53469 16.3772 7.57887 13.6082 9.3251 11.4252L0.863393 2.96347C0.309696 2.40977 0.309696 1.51206 0.863393 0.958363ZM27.9612 19.3901C27.9612 24.1762 24.0813 28.0562 19.2951 28.0562C14.5089 28.0562 10.629 24.1762 10.629 19.3901C10.629 14.6039 14.5089 10.7239 19.2951 10.7239C24.0813 10.7239 27.9612 14.6039 27.9612 19.3901Z" fill="#6E3DB8"/>
</svg>
