<svg width="55" height="55" viewBox="0 0 55 55" fill="none" xmlns="http://www.w3.org/2000/svg">
<path fill-rule="evenodd" clip-rule="evenodd" d="M28.9308 1.96092C28.9308 1.17787 28.296 0.543091 27.513 0.543091C26.7299 0.543091 26.0952 1.17787 26.0952 1.96091V14.7992C23.634 15.0713 21.3839 16.0433 19.5481 17.5117L9.29725 7.26091C8.74356 6.70721 7.84584 6.70721 7.29215 7.26091C6.73845 7.8146 6.73845 8.71232 7.29215 9.26602L17.543 19.5169C16.0745 21.3526 15.1025 23.6028 14.8305 26.0639H1.99217C1.20912 26.0639 0.574341 26.6987 0.574341 27.4817C0.574341 28.2648 1.20912 28.8996 1.99216 28.8996H14.8305C15.1025 31.3607 16.0745 33.6109 17.543 35.4466L7.34992 45.6397C6.79622 46.1934 6.79198 47.0954 7.34567 47.6491C7.89937 48.2028 8.79708 48.2028 9.35078 47.6491L19.5481 37.4517C21.3839 38.9202 23.634 39.8922 26.0952 40.1643V53.0026C26.0952 53.7856 26.73 54.4204 27.513 54.4204C28.296 54.4204 28.9308 53.7856 28.9308 53.0026V40.1643C31.392 39.8922 33.6421 38.9202 35.4779 37.4517L45.7869 47.7608C46.3406 48.3145 47.2383 48.3145 47.792 47.7608C48.3457 47.2071 48.3457 46.3093 47.792 45.7556L37.483 35.4466C38.9515 33.6109 39.9235 31.3607 40.1955 28.8996H53.0338C53.8169 28.8996 54.4516 28.2648 54.4516 27.4817C54.4516 26.6987 53.8169 26.0639 53.0338 26.0639H40.1955C39.9235 23.6028 38.9514 21.3526 37.483 19.5168L47.8844 9.11538C48.4381 8.56169 48.4381 7.66397 47.8844 7.11028C47.3307 6.55658 46.4288 6.56083 45.8751 7.11452L35.4779 17.5117C33.6421 16.0433 31.3919 15.0713 28.9308 14.7992V1.96092ZM27.513 35.2751C31.8171 35.2751 35.3063 31.7859 35.3063 27.4817C35.3063 23.1776 31.8171 19.6884 27.513 19.6884C23.2089 19.6884 19.7197 23.1776 19.7197 27.4817C19.7197 31.7859 23.2089 35.2751 27.513 35.2751Z" fill="#FF0000"/>
</svg>
